G04 #@! TF.GenerationSoftware,KiCad,Pcbnew,5.1.5-52549c5~84~ubuntu19.04.1*
G04 #@! TF.CreationDate,2019-12-06T19:41:43+01:00*
G04 #@! TF.ProjectId,Rocket_PCB,526f636b-6574-45f5-9043-422e6b696361,rev?*
G04 #@! TF.SameCoordinates,Original*
G04 #@! TF.FileFunction,Copper,L1,Top*
G04 #@! TF.FilePolarity,Positive*
%FSLAX46Y46*%
G04 Gerber Fmt 4.6, Leading zero omitted, Abs format (unit mm)*
G04 Created by KiCad (PCBNEW 5.1.5-52549c5~84~ubuntu19.04.1) date 2019-12-06 19:41:43*
%MOMM*%
%LPD*%
G04 APERTURE LIST*
%ADD10O,2.199640X1.501140*%
%ADD11O,1.501140X2.199640*%
%ADD12R,1.700000X1.700000*%
%ADD13C,2.100000*%
%ADD14R,2.100000X2.100000*%
%ADD15C,1.524000*%
%ADD16R,1.524000X1.524000*%
%ADD17C,0.100000*%
%ADD18C,2.000000*%
%ADD19R,2.000000X2.000000*%
%ADD20O,1.700000X1.700000*%
%ADD21R,4.000000X4.000000*%
%ADD22C,0.800000*%
%ADD23C,0.250000*%
%ADD24C,0.400000*%
%ADD25C,0.254000*%
G04 APERTURE END LIST*
D10*
X129032000Y-49022000D03*
X129032000Y-51562000D03*
X129032000Y-54102000D03*
X129032000Y-56642000D03*
X129032000Y-59182000D03*
X129032000Y-61722000D03*
X129032000Y-64262000D03*
X129032000Y-66802000D03*
X129032000Y-69342000D03*
X129032000Y-71882000D03*
X129032000Y-74422000D03*
X129032000Y-76962000D03*
X144272000Y-76962000D03*
X144272000Y-74422000D03*
X144272000Y-71882000D03*
X144272000Y-69342000D03*
X144272000Y-66802000D03*
X144272000Y-64262000D03*
X144272000Y-61722000D03*
X144272000Y-59182000D03*
X144272000Y-56642000D03*
X144272000Y-54102000D03*
X144272000Y-51562000D03*
X144272000Y-49022000D03*
X141732000Y-60452000D03*
X141732000Y-57912000D03*
D11*
X141732000Y-76962000D03*
X139192000Y-76962000D03*
X136652000Y-76962000D03*
D12*
X126238000Y-69342000D03*
D13*
X142748000Y-41148000D03*
D14*
X145288000Y-41148000D03*
D15*
X148082000Y-77470000D03*
X150622000Y-77470000D03*
X153162000Y-77470000D03*
X155702000Y-77470000D03*
X158242000Y-77470000D03*
D16*
X160782000Y-77470000D03*
D12*
X126238000Y-66802000D03*
X126238000Y-64262000D03*
X126238000Y-49022000D03*
X126238000Y-51562000D03*
G04 #@! TA.AperFunction,SMDPad,CuDef*
D17*
G36*
X149111642Y-45275174D02*
G01*
X149135303Y-45278684D01*
X149158507Y-45284496D01*
X149181029Y-45292554D01*
X149202653Y-45302782D01*
X149223170Y-45315079D01*
X149242383Y-45329329D01*
X149260107Y-45345393D01*
X149276171Y-45363117D01*
X149290421Y-45382330D01*
X149302718Y-45402847D01*
X149312946Y-45424471D01*
X149321004Y-45446993D01*
X149326816Y-45470197D01*
X149330326Y-45493858D01*
X149331500Y-45517750D01*
X149331500Y-46430250D01*
X149330326Y-46454142D01*
X149326816Y-46477803D01*
X149321004Y-46501007D01*
X149312946Y-46523529D01*
X149302718Y-46545153D01*
X149290421Y-46565670D01*
X149276171Y-46584883D01*
X149260107Y-46602607D01*
X149242383Y-46618671D01*
X149223170Y-46632921D01*
X149202653Y-46645218D01*
X149181029Y-46655446D01*
X149158507Y-46663504D01*
X149135303Y-46669316D01*
X149111642Y-46672826D01*
X149087750Y-46674000D01*
X148600250Y-46674000D01*
X148576358Y-46672826D01*
X148552697Y-46669316D01*
X148529493Y-46663504D01*
X148506971Y-46655446D01*
X148485347Y-46645218D01*
X148464830Y-46632921D01*
X148445617Y-46618671D01*
X148427893Y-46602607D01*
X148411829Y-46584883D01*
X148397579Y-46565670D01*
X148385282Y-46545153D01*
X148375054Y-46523529D01*
X148366996Y-46501007D01*
X148361184Y-46477803D01*
X148357674Y-46454142D01*
X148356500Y-46430250D01*
X148356500Y-45517750D01*
X148357674Y-45493858D01*
X148361184Y-45470197D01*
X148366996Y-45446993D01*
X148375054Y-45424471D01*
X148385282Y-45402847D01*
X148397579Y-45382330D01*
X148411829Y-45363117D01*
X148427893Y-45345393D01*
X148445617Y-45329329D01*
X148464830Y-45315079D01*
X148485347Y-45302782D01*
X148506971Y-45292554D01*
X148529493Y-45284496D01*
X148552697Y-45278684D01*
X148576358Y-45275174D01*
X148600250Y-45274000D01*
X149087750Y-45274000D01*
X149111642Y-45275174D01*
G37*
G04 #@! TD.AperFunction*
G04 #@! TA.AperFunction,SMDPad,CuDef*
G36*
X150986642Y-45275174D02*
G01*
X151010303Y-45278684D01*
X151033507Y-45284496D01*
X151056029Y-45292554D01*
X151077653Y-45302782D01*
X151098170Y-45315079D01*
X151117383Y-45329329D01*
X151135107Y-45345393D01*
X151151171Y-45363117D01*
X151165421Y-45382330D01*
X151177718Y-45402847D01*
X151187946Y-45424471D01*
X151196004Y-45446993D01*
X151201816Y-45470197D01*
X151205326Y-45493858D01*
X151206500Y-45517750D01*
X151206500Y-46430250D01*
X151205326Y-46454142D01*
X151201816Y-46477803D01*
X151196004Y-46501007D01*
X151187946Y-46523529D01*
X151177718Y-46545153D01*
X151165421Y-46565670D01*
X151151171Y-46584883D01*
X151135107Y-46602607D01*
X151117383Y-46618671D01*
X151098170Y-46632921D01*
X151077653Y-46645218D01*
X151056029Y-46655446D01*
X151033507Y-46663504D01*
X151010303Y-46669316D01*
X150986642Y-46672826D01*
X150962750Y-46674000D01*
X150475250Y-46674000D01*
X150451358Y-46672826D01*
X150427697Y-46669316D01*
X150404493Y-46663504D01*
X150381971Y-46655446D01*
X150360347Y-46645218D01*
X150339830Y-46632921D01*
X150320617Y-46618671D01*
X150302893Y-46602607D01*
X150286829Y-46584883D01*
X150272579Y-46565670D01*
X150260282Y-46545153D01*
X150250054Y-46523529D01*
X150241996Y-46501007D01*
X150236184Y-46477803D01*
X150232674Y-46454142D01*
X150231500Y-46430250D01*
X150231500Y-45517750D01*
X150232674Y-45493858D01*
X150236184Y-45470197D01*
X150241996Y-45446993D01*
X150250054Y-45424471D01*
X150260282Y-45402847D01*
X150272579Y-45382330D01*
X150286829Y-45363117D01*
X150302893Y-45345393D01*
X150320617Y-45329329D01*
X150339830Y-45315079D01*
X150360347Y-45302782D01*
X150381971Y-45292554D01*
X150404493Y-45284496D01*
X150427697Y-45278684D01*
X150451358Y-45275174D01*
X150475250Y-45274000D01*
X150962750Y-45274000D01*
X150986642Y-45275174D01*
G37*
G04 #@! TD.AperFunction*
G04 #@! TA.AperFunction,SMDPad,CuDef*
G36*
X152667642Y-45275174D02*
G01*
X152691303Y-45278684D01*
X152714507Y-45284496D01*
X152737029Y-45292554D01*
X152758653Y-45302782D01*
X152779170Y-45315079D01*
X152798383Y-45329329D01*
X152816107Y-45345393D01*
X152832171Y-45363117D01*
X152846421Y-45382330D01*
X152858718Y-45402847D01*
X152868946Y-45424471D01*
X152877004Y-45446993D01*
X152882816Y-45470197D01*
X152886326Y-45493858D01*
X152887500Y-45517750D01*
X152887500Y-46430250D01*
X152886326Y-46454142D01*
X152882816Y-46477803D01*
X152877004Y-46501007D01*
X152868946Y-46523529D01*
X152858718Y-46545153D01*
X152846421Y-46565670D01*
X152832171Y-46584883D01*
X152816107Y-46602607D01*
X152798383Y-46618671D01*
X152779170Y-46632921D01*
X152758653Y-46645218D01*
X152737029Y-46655446D01*
X152714507Y-46663504D01*
X152691303Y-46669316D01*
X152667642Y-46672826D01*
X152643750Y-46674000D01*
X152156250Y-46674000D01*
X152132358Y-46672826D01*
X152108697Y-46669316D01*
X152085493Y-46663504D01*
X152062971Y-46655446D01*
X152041347Y-46645218D01*
X152020830Y-46632921D01*
X152001617Y-46618671D01*
X151983893Y-46602607D01*
X151967829Y-46584883D01*
X151953579Y-46565670D01*
X151941282Y-46545153D01*
X151931054Y-46523529D01*
X151922996Y-46501007D01*
X151917184Y-46477803D01*
X151913674Y-46454142D01*
X151912500Y-46430250D01*
X151912500Y-45517750D01*
X151913674Y-45493858D01*
X151917184Y-45470197D01*
X151922996Y-45446993D01*
X151931054Y-45424471D01*
X151941282Y-45402847D01*
X151953579Y-45382330D01*
X151967829Y-45363117D01*
X151983893Y-45345393D01*
X152001617Y-45329329D01*
X152020830Y-45315079D01*
X152041347Y-45302782D01*
X152062971Y-45292554D01*
X152085493Y-45284496D01*
X152108697Y-45278684D01*
X152132358Y-45275174D01*
X152156250Y-45274000D01*
X152643750Y-45274000D01*
X152667642Y-45275174D01*
G37*
G04 #@! TD.AperFunction*
G04 #@! TA.AperFunction,SMDPad,CuDef*
G36*
X154542642Y-45275174D02*
G01*
X154566303Y-45278684D01*
X154589507Y-45284496D01*
X154612029Y-45292554D01*
X154633653Y-45302782D01*
X154654170Y-45315079D01*
X154673383Y-45329329D01*
X154691107Y-45345393D01*
X154707171Y-45363117D01*
X154721421Y-45382330D01*
X154733718Y-45402847D01*
X154743946Y-45424471D01*
X154752004Y-45446993D01*
X154757816Y-45470197D01*
X154761326Y-45493858D01*
X154762500Y-45517750D01*
X154762500Y-46430250D01*
X154761326Y-46454142D01*
X154757816Y-46477803D01*
X154752004Y-46501007D01*
X154743946Y-46523529D01*
X154733718Y-46545153D01*
X154721421Y-46565670D01*
X154707171Y-46584883D01*
X154691107Y-46602607D01*
X154673383Y-46618671D01*
X154654170Y-46632921D01*
X154633653Y-46645218D01*
X154612029Y-46655446D01*
X154589507Y-46663504D01*
X154566303Y-46669316D01*
X154542642Y-46672826D01*
X154518750Y-46674000D01*
X154031250Y-46674000D01*
X154007358Y-46672826D01*
X153983697Y-46669316D01*
X153960493Y-46663504D01*
X153937971Y-46655446D01*
X153916347Y-46645218D01*
X153895830Y-46632921D01*
X153876617Y-46618671D01*
X153858893Y-46602607D01*
X153842829Y-46584883D01*
X153828579Y-46565670D01*
X153816282Y-46545153D01*
X153806054Y-46523529D01*
X153797996Y-46501007D01*
X153792184Y-46477803D01*
X153788674Y-46454142D01*
X153787500Y-46430250D01*
X153787500Y-45517750D01*
X153788674Y-45493858D01*
X153792184Y-45470197D01*
X153797996Y-45446993D01*
X153806054Y-45424471D01*
X153816282Y-45402847D01*
X153828579Y-45382330D01*
X153842829Y-45363117D01*
X153858893Y-45345393D01*
X153876617Y-45329329D01*
X153895830Y-45315079D01*
X153916347Y-45302782D01*
X153937971Y-45292554D01*
X153960493Y-45284496D01*
X153983697Y-45278684D01*
X154007358Y-45275174D01*
X154031250Y-45274000D01*
X154518750Y-45274000D01*
X154542642Y-45275174D01*
G37*
G04 #@! TD.AperFunction*
D18*
X136652000Y-73132000D03*
D19*
X136652000Y-65532000D03*
D20*
X150368000Y-41148000D03*
D12*
X152908000Y-41148000D03*
D13*
X135382000Y-41148000D03*
D14*
X137922000Y-41148000D03*
D20*
X156210000Y-90424000D03*
X158750000Y-90424000D03*
D12*
X161290000Y-90424000D03*
D20*
X156210000Y-86106000D03*
X158750000Y-86106000D03*
D12*
X161290000Y-86106000D03*
D20*
X156210000Y-81788000D03*
X158750000Y-81788000D03*
D12*
X161290000Y-81788000D03*
D15*
X126746000Y-93218000D03*
X126746000Y-90678000D03*
X126746000Y-88138000D03*
X126746000Y-85598000D03*
X126746000Y-83058000D03*
D16*
X126746000Y-80518000D03*
D15*
X139192000Y-98298000D03*
X139192000Y-95758000D03*
X139192000Y-93218000D03*
X139192000Y-90678000D03*
X139192000Y-88138000D03*
X139192000Y-85598000D03*
X139192000Y-83058000D03*
D16*
X139192000Y-80518000D03*
D21*
X149274000Y-70324000D03*
X160274000Y-70324000D03*
X149274000Y-52324000D03*
X160274000Y-52324000D03*
D22*
X138303000Y-49403000D03*
X134493000Y-49403000D03*
X130556000Y-80264000D03*
X134112000Y-80264000D03*
X141478000Y-55118000D03*
X146088000Y-46228000D03*
D23*
X126746000Y-85598000D02*
X139192000Y-85598000D01*
X139192000Y-88138000D02*
X126746000Y-88138000D01*
D24*
X143837999Y-39697999D02*
X145288000Y-41148000D01*
X137922000Y-41148000D02*
X139372001Y-39697999D01*
X139372001Y-39697999D02*
X143837999Y-39697999D01*
X146738000Y-41148000D02*
X150368000Y-41148000D01*
X145288000Y-41148000D02*
X146738000Y-41148000D01*
X144272000Y-49022000D02*
X145288000Y-48006000D01*
X145288000Y-48006000D02*
X145288000Y-41148000D01*
X150368000Y-39945919D02*
X150943919Y-39370000D01*
X150368000Y-41148000D02*
X150368000Y-39945919D01*
X150943919Y-39370000D02*
X154940000Y-39370000D01*
X154940000Y-39370000D02*
X160274000Y-44704000D01*
X160274000Y-44704000D02*
X160274000Y-52324000D01*
D23*
X134112000Y-80264000D02*
X130556000Y-80264000D01*
X143002000Y-56642000D02*
X144272000Y-56642000D01*
X141478000Y-55118000D02*
X143002000Y-56642000D01*
X152400001Y-76708001D02*
X153162000Y-77470000D01*
X152074999Y-76382999D02*
X152400001Y-76708001D01*
X145621820Y-71256822D02*
X150747997Y-76382999D01*
X145621820Y-70342570D02*
X145621820Y-71256822D01*
X150747997Y-76382999D02*
X152074999Y-76382999D01*
X144621250Y-69342000D02*
X145621820Y-70342570D01*
X144272000Y-69342000D02*
X144621250Y-69342000D01*
X150209250Y-77470000D02*
X150622000Y-77470000D01*
X144621250Y-71882000D02*
X150209250Y-77470000D01*
X144272000Y-71882000D02*
X144621250Y-71882000D01*
X144272000Y-77962570D02*
X144272000Y-76962000D01*
X144866431Y-78557001D02*
X144272000Y-77962570D01*
X157154999Y-78557001D02*
X144866431Y-78557001D01*
X158242000Y-77470000D02*
X157154999Y-78557001D01*
D24*
X159599999Y-80938001D02*
X158750000Y-81788000D01*
X161944001Y-78593999D02*
X159599999Y-80938001D01*
X161944001Y-74394001D02*
X161944001Y-78593999D01*
X160274000Y-72724000D02*
X161944001Y-74394001D01*
X160274000Y-70324000D02*
X160274000Y-72724000D01*
X158750000Y-82990081D02*
X158750000Y-86106000D01*
X158750000Y-81788000D02*
X158750000Y-82990081D01*
X158750000Y-87308081D02*
X158750000Y-90424000D01*
X158750000Y-86106000D02*
X158750000Y-87308081D01*
D23*
X144272000Y-66802000D02*
X138176000Y-66802000D01*
X136906000Y-65532000D02*
X136652000Y-65532000D01*
X138176000Y-66802000D02*
X136906000Y-65532000D01*
X152400000Y-45974000D02*
X150719000Y-45974000D01*
X146342000Y-45974000D02*
X146088000Y-46228000D01*
X148844000Y-45974000D02*
X146342000Y-45974000D01*
D25*
G36*
X163682000Y-101198000D02*
G01*
X124862000Y-101198000D01*
X124862000Y-97849282D01*
X126039000Y-97849282D01*
X126039000Y-98238718D01*
X126114975Y-98620670D01*
X126264005Y-98980461D01*
X126480364Y-99304264D01*
X126755736Y-99579636D01*
X127079539Y-99795995D01*
X127439330Y-99945025D01*
X127821282Y-100021000D01*
X128210718Y-100021000D01*
X128592670Y-99945025D01*
X128952461Y-99795995D01*
X129276264Y-99579636D01*
X129551636Y-99304264D01*
X129767995Y-98980461D01*
X129917025Y-98620670D01*
X129993000Y-98238718D01*
X129993000Y-98185818D01*
X138053000Y-98185818D01*
X138053000Y-98410182D01*
X138096771Y-98630234D01*
X138182631Y-98837519D01*
X138307281Y-99024070D01*
X138465930Y-99182719D01*
X138652481Y-99307369D01*
X138859766Y-99393229D01*
X139079818Y-99437000D01*
X139304182Y-99437000D01*
X139524234Y-99393229D01*
X139731519Y-99307369D01*
X139918070Y-99182719D01*
X140076719Y-99024070D01*
X140201369Y-98837519D01*
X140287229Y-98630234D01*
X140331000Y-98410182D01*
X140331000Y-98185818D01*
X140287229Y-97965766D01*
X140238980Y-97849282D01*
X158551000Y-97849282D01*
X158551000Y-98238718D01*
X158626975Y-98620670D01*
X158776005Y-98980461D01*
X158992364Y-99304264D01*
X159267736Y-99579636D01*
X159591539Y-99795995D01*
X159951330Y-99945025D01*
X160333282Y-100021000D01*
X160722718Y-100021000D01*
X161104670Y-99945025D01*
X161464461Y-99795995D01*
X161788264Y-99579636D01*
X162063636Y-99304264D01*
X162279995Y-98980461D01*
X162429025Y-98620670D01*
X162505000Y-98238718D01*
X162505000Y-97849282D01*
X162429025Y-97467330D01*
X162279995Y-97107539D01*
X162063636Y-96783736D01*
X161788264Y-96508364D01*
X161464461Y-96292005D01*
X161104670Y-96142975D01*
X160722718Y-96067000D01*
X160333282Y-96067000D01*
X159951330Y-96142975D01*
X159591539Y-96292005D01*
X159267736Y-96508364D01*
X158992364Y-96783736D01*
X158776005Y-97107539D01*
X158626975Y-97467330D01*
X158551000Y-97849282D01*
X140238980Y-97849282D01*
X140201369Y-97758481D01*
X140076719Y-97571930D01*
X139918070Y-97413281D01*
X139731519Y-97288631D01*
X139524234Y-97202771D01*
X139304182Y-97159000D01*
X139079818Y-97159000D01*
X138859766Y-97202771D01*
X138652481Y-97288631D01*
X138465930Y-97413281D01*
X138307281Y-97571930D01*
X138182631Y-97758481D01*
X138096771Y-97965766D01*
X138053000Y-98185818D01*
X129993000Y-98185818D01*
X129993000Y-97849282D01*
X129917025Y-97467330D01*
X129767995Y-97107539D01*
X129551636Y-96783736D01*
X129276264Y-96508364D01*
X128952461Y-96292005D01*
X128592670Y-96142975D01*
X128210718Y-96067000D01*
X127821282Y-96067000D01*
X127439330Y-96142975D01*
X127079539Y-96292005D01*
X126755736Y-96508364D01*
X126480364Y-96783736D01*
X126264005Y-97107539D01*
X126114975Y-97467330D01*
X126039000Y-97849282D01*
X124862000Y-97849282D01*
X124862000Y-95645818D01*
X138053000Y-95645818D01*
X138053000Y-95870182D01*
X138096771Y-96090234D01*
X138182631Y-96297519D01*
X138307281Y-96484070D01*
X138465930Y-96642719D01*
X138652481Y-96767369D01*
X138859766Y-96853229D01*
X139079818Y-96897000D01*
X139304182Y-96897000D01*
X139524234Y-96853229D01*
X139731519Y-96767369D01*
X139918070Y-96642719D01*
X140076719Y-96484070D01*
X140201369Y-96297519D01*
X140287229Y-96090234D01*
X140331000Y-95870182D01*
X140331000Y-95645818D01*
X140287229Y-95425766D01*
X140201369Y-95218481D01*
X140076719Y-95031930D01*
X139918070Y-94873281D01*
X139731519Y-94748631D01*
X139524234Y-94662771D01*
X139304182Y-94619000D01*
X139079818Y-94619000D01*
X138859766Y-94662771D01*
X138652481Y-94748631D01*
X138465930Y-94873281D01*
X138307281Y-95031930D01*
X138182631Y-95218481D01*
X138096771Y-95425766D01*
X138053000Y-95645818D01*
X124862000Y-95645818D01*
X124862000Y-93105818D01*
X125607000Y-93105818D01*
X125607000Y-93330182D01*
X125650771Y-93550234D01*
X125736631Y-93757519D01*
X125861281Y-93944070D01*
X126019930Y-94102719D01*
X126206481Y-94227369D01*
X126413766Y-94313229D01*
X126633818Y-94357000D01*
X126858182Y-94357000D01*
X127078234Y-94313229D01*
X127285519Y-94227369D01*
X127472070Y-94102719D01*
X127630719Y-93944070D01*
X127755369Y-93757519D01*
X127841229Y-93550234D01*
X127885000Y-93330182D01*
X127885000Y-93105818D01*
X138053000Y-93105818D01*
X138053000Y-93330182D01*
X138096771Y-93550234D01*
X138182631Y-93757519D01*
X138307281Y-93944070D01*
X138465930Y-94102719D01*
X138652481Y-94227369D01*
X138859766Y-94313229D01*
X139079818Y-94357000D01*
X139304182Y-94357000D01*
X139524234Y-94313229D01*
X139731519Y-94227369D01*
X139918070Y-94102719D01*
X140076719Y-93944070D01*
X140201369Y-93757519D01*
X140287229Y-93550234D01*
X140331000Y-93330182D01*
X140331000Y-93105818D01*
X140287229Y-92885766D01*
X140201369Y-92678481D01*
X140076719Y-92491930D01*
X139918070Y-92333281D01*
X139731519Y-92208631D01*
X139524234Y-92122771D01*
X139304182Y-92079000D01*
X139079818Y-92079000D01*
X138859766Y-92122771D01*
X138652481Y-92208631D01*
X138465930Y-92333281D01*
X138307281Y-92491930D01*
X138182631Y-92678481D01*
X138096771Y-92885766D01*
X138053000Y-93105818D01*
X127885000Y-93105818D01*
X127841229Y-92885766D01*
X127755369Y-92678481D01*
X127630719Y-92491930D01*
X127472070Y-92333281D01*
X127285519Y-92208631D01*
X127078234Y-92122771D01*
X126858182Y-92079000D01*
X126633818Y-92079000D01*
X126413766Y-92122771D01*
X126206481Y-92208631D01*
X126019930Y-92333281D01*
X125861281Y-92491930D01*
X125736631Y-92678481D01*
X125650771Y-92885766D01*
X125607000Y-93105818D01*
X124862000Y-93105818D01*
X124862000Y-90565818D01*
X125607000Y-90565818D01*
X125607000Y-90790182D01*
X125650771Y-91010234D01*
X125736631Y-91217519D01*
X125861281Y-91404070D01*
X126019930Y-91562719D01*
X126206481Y-91687369D01*
X126413766Y-91773229D01*
X126633818Y-91817000D01*
X126858182Y-91817000D01*
X127078234Y-91773229D01*
X127285519Y-91687369D01*
X127472070Y-91562719D01*
X127630719Y-91404070D01*
X127755369Y-91217519D01*
X127841229Y-91010234D01*
X127885000Y-90790182D01*
X127885000Y-90565818D01*
X138053000Y-90565818D01*
X138053000Y-90790182D01*
X138096771Y-91010234D01*
X138182631Y-91217519D01*
X138307281Y-91404070D01*
X138465930Y-91562719D01*
X138652481Y-91687369D01*
X138859766Y-91773229D01*
X139079818Y-91817000D01*
X139304182Y-91817000D01*
X139524234Y-91773229D01*
X139731519Y-91687369D01*
X139918070Y-91562719D01*
X140076719Y-91404070D01*
X140201369Y-91217519D01*
X140287229Y-91010234D01*
X140331000Y-90790182D01*
X140331000Y-90565818D01*
X140287229Y-90345766D01*
X140269578Y-90303151D01*
X154983000Y-90303151D01*
X154983000Y-90544849D01*
X155030153Y-90781903D01*
X155122647Y-91005202D01*
X155256927Y-91206167D01*
X155427833Y-91377073D01*
X155628798Y-91511353D01*
X155852097Y-91603847D01*
X156089151Y-91651000D01*
X156330849Y-91651000D01*
X156567903Y-91603847D01*
X156791202Y-91511353D01*
X156992167Y-91377073D01*
X157163073Y-91206167D01*
X157297353Y-91005202D01*
X157389847Y-90781903D01*
X157437000Y-90544849D01*
X157437000Y-90303151D01*
X157389847Y-90066097D01*
X157297353Y-89842798D01*
X157163073Y-89641833D01*
X156992167Y-89470927D01*
X156791202Y-89336647D01*
X156567903Y-89244153D01*
X156330849Y-89197000D01*
X156089151Y-89197000D01*
X155852097Y-89244153D01*
X155628798Y-89336647D01*
X155427833Y-89470927D01*
X155256927Y-89641833D01*
X155122647Y-89842798D01*
X155030153Y-90066097D01*
X154983000Y-90303151D01*
X140269578Y-90303151D01*
X140201369Y-90138481D01*
X140076719Y-89951930D01*
X139918070Y-89793281D01*
X139731519Y-89668631D01*
X139524234Y-89582771D01*
X139304182Y-89539000D01*
X139079818Y-89539000D01*
X138859766Y-89582771D01*
X138652481Y-89668631D01*
X138465930Y-89793281D01*
X138307281Y-89951930D01*
X138182631Y-90138481D01*
X138096771Y-90345766D01*
X138053000Y-90565818D01*
X127885000Y-90565818D01*
X127841229Y-90345766D01*
X127755369Y-90138481D01*
X127630719Y-89951930D01*
X127472070Y-89793281D01*
X127285519Y-89668631D01*
X127078234Y-89582771D01*
X126858182Y-89539000D01*
X126633818Y-89539000D01*
X126413766Y-89582771D01*
X126206481Y-89668631D01*
X126019930Y-89793281D01*
X125861281Y-89951930D01*
X125736631Y-90138481D01*
X125650771Y-90345766D01*
X125607000Y-90565818D01*
X124862000Y-90565818D01*
X124862000Y-88025818D01*
X125607000Y-88025818D01*
X125607000Y-88250182D01*
X125650771Y-88470234D01*
X125736631Y-88677519D01*
X125861281Y-88864070D01*
X126019930Y-89022719D01*
X126206481Y-89147369D01*
X126413766Y-89233229D01*
X126633818Y-89277000D01*
X126858182Y-89277000D01*
X127078234Y-89233229D01*
X127285519Y-89147369D01*
X127472070Y-89022719D01*
X127630719Y-88864070D01*
X127755369Y-88677519D01*
X127770910Y-88640000D01*
X138167090Y-88640000D01*
X138182631Y-88677519D01*
X138307281Y-88864070D01*
X138465930Y-89022719D01*
X138652481Y-89147369D01*
X138859766Y-89233229D01*
X139079818Y-89277000D01*
X139304182Y-89277000D01*
X139524234Y-89233229D01*
X139731519Y-89147369D01*
X139918070Y-89022719D01*
X140076719Y-88864070D01*
X140201369Y-88677519D01*
X140287229Y-88470234D01*
X140331000Y-88250182D01*
X140331000Y-88025818D01*
X140287229Y-87805766D01*
X140201369Y-87598481D01*
X140076719Y-87411930D01*
X139918070Y-87253281D01*
X139731519Y-87128631D01*
X139524234Y-87042771D01*
X139304182Y-86999000D01*
X139079818Y-86999000D01*
X138859766Y-87042771D01*
X138652481Y-87128631D01*
X138465930Y-87253281D01*
X138307281Y-87411930D01*
X138182631Y-87598481D01*
X138167090Y-87636000D01*
X127770910Y-87636000D01*
X127755369Y-87598481D01*
X127630719Y-87411930D01*
X127472070Y-87253281D01*
X127285519Y-87128631D01*
X127078234Y-87042771D01*
X126858182Y-86999000D01*
X126633818Y-86999000D01*
X126413766Y-87042771D01*
X126206481Y-87128631D01*
X126019930Y-87253281D01*
X125861281Y-87411930D01*
X125736631Y-87598481D01*
X125650771Y-87805766D01*
X125607000Y-88025818D01*
X124862000Y-88025818D01*
X124862000Y-85485818D01*
X125607000Y-85485818D01*
X125607000Y-85710182D01*
X125650771Y-85930234D01*
X125736631Y-86137519D01*
X125861281Y-86324070D01*
X126019930Y-86482719D01*
X126206481Y-86607369D01*
X126413766Y-86693229D01*
X126633818Y-86737000D01*
X126858182Y-86737000D01*
X127078234Y-86693229D01*
X127285519Y-86607369D01*
X127472070Y-86482719D01*
X127630719Y-86324070D01*
X127755369Y-86137519D01*
X127770910Y-86100000D01*
X138167090Y-86100000D01*
X138182631Y-86137519D01*
X138307281Y-86324070D01*
X138465930Y-86482719D01*
X138652481Y-86607369D01*
X138859766Y-86693229D01*
X139079818Y-86737000D01*
X139304182Y-86737000D01*
X139524234Y-86693229D01*
X139731519Y-86607369D01*
X139918070Y-86482719D01*
X140076719Y-86324070D01*
X140201369Y-86137519D01*
X140264481Y-85985151D01*
X154983000Y-85985151D01*
X154983000Y-86226849D01*
X155030153Y-86463903D01*
X155122647Y-86687202D01*
X155256927Y-86888167D01*
X155427833Y-87059073D01*
X155628798Y-87193353D01*
X155852097Y-87285847D01*
X156089151Y-87333000D01*
X156330849Y-87333000D01*
X156567903Y-87285847D01*
X156791202Y-87193353D01*
X156992167Y-87059073D01*
X157163073Y-86888167D01*
X157297353Y-86687202D01*
X157389847Y-86463903D01*
X157437000Y-86226849D01*
X157437000Y-85985151D01*
X157389847Y-85748097D01*
X157297353Y-85524798D01*
X157163073Y-85323833D01*
X156992167Y-85152927D01*
X156791202Y-85018647D01*
X156567903Y-84926153D01*
X156330849Y-84879000D01*
X156089151Y-84879000D01*
X155852097Y-84926153D01*
X155628798Y-85018647D01*
X155427833Y-85152927D01*
X155256927Y-85323833D01*
X155122647Y-85524798D01*
X155030153Y-85748097D01*
X154983000Y-85985151D01*
X140264481Y-85985151D01*
X140287229Y-85930234D01*
X140331000Y-85710182D01*
X140331000Y-85485818D01*
X140287229Y-85265766D01*
X140201369Y-85058481D01*
X140076719Y-84871930D01*
X139918070Y-84713281D01*
X139731519Y-84588631D01*
X139524234Y-84502771D01*
X139304182Y-84459000D01*
X139270058Y-84459000D01*
X139536133Y-84418922D01*
X139795023Y-84325636D01*
X139910980Y-84263656D01*
X139977960Y-84023565D01*
X139192000Y-83237605D01*
X138406040Y-84023565D01*
X138473020Y-84263656D01*
X138722048Y-84380756D01*
X138989135Y-84447023D01*
X139244607Y-84459000D01*
X139079818Y-84459000D01*
X138859766Y-84502771D01*
X138652481Y-84588631D01*
X138465930Y-84713281D01*
X138307281Y-84871930D01*
X138182631Y-85058481D01*
X138167090Y-85096000D01*
X127770910Y-85096000D01*
X127755369Y-85058481D01*
X127630719Y-84871930D01*
X127472070Y-84713281D01*
X127285519Y-84588631D01*
X127078234Y-84502771D01*
X126858182Y-84459000D01*
X126824058Y-84459000D01*
X127090133Y-84418922D01*
X127349023Y-84325636D01*
X127464980Y-84263656D01*
X127531960Y-84023565D01*
X126746000Y-83237605D01*
X125960040Y-84023565D01*
X126027020Y-84263656D01*
X126276048Y-84380756D01*
X126543135Y-84447023D01*
X126798607Y-84459000D01*
X126633818Y-84459000D01*
X126413766Y-84502771D01*
X126206481Y-84588631D01*
X126019930Y-84713281D01*
X125861281Y-84871930D01*
X125736631Y-85058481D01*
X125650771Y-85265766D01*
X125607000Y-85485818D01*
X124862000Y-85485818D01*
X124862000Y-83130017D01*
X125344090Y-83130017D01*
X125385078Y-83402133D01*
X125478364Y-83661023D01*
X125540344Y-83776980D01*
X125780435Y-83843960D01*
X126566395Y-83058000D01*
X126925605Y-83058000D01*
X127711565Y-83843960D01*
X127951656Y-83776980D01*
X128068756Y-83527952D01*
X128135023Y-83260865D01*
X128141157Y-83130017D01*
X137790090Y-83130017D01*
X137831078Y-83402133D01*
X137924364Y-83661023D01*
X137986344Y-83776980D01*
X138226435Y-83843960D01*
X139012395Y-83058000D01*
X139371605Y-83058000D01*
X140157565Y-83843960D01*
X140397656Y-83776980D01*
X140514756Y-83527952D01*
X140581023Y-83260865D01*
X140593910Y-82985983D01*
X140552922Y-82713867D01*
X140459636Y-82454977D01*
X140397656Y-82339020D01*
X140157565Y-82272040D01*
X139371605Y-83058000D01*
X139012395Y-83058000D01*
X138226435Y-82272040D01*
X137986344Y-82339020D01*
X137869244Y-82588048D01*
X137802977Y-82855135D01*
X137790090Y-83130017D01*
X128141157Y-83130017D01*
X128147910Y-82985983D01*
X128106922Y-82713867D01*
X128013636Y-82454977D01*
X127951656Y-82339020D01*
X127711565Y-82272040D01*
X126925605Y-83058000D01*
X126566395Y-83058000D01*
X125780435Y-82272040D01*
X125540344Y-82339020D01*
X125423244Y-82588048D01*
X125356977Y-82855135D01*
X125344090Y-83130017D01*
X124862000Y-83130017D01*
X124862000Y-79756000D01*
X125605176Y-79756000D01*
X125605176Y-81280000D01*
X125612455Y-81353905D01*
X125634012Y-81424970D01*
X125669019Y-81490463D01*
X125716131Y-81547869D01*
X125773537Y-81594981D01*
X125839030Y-81629988D01*
X125910095Y-81651545D01*
X125984000Y-81658824D01*
X126655832Y-81658824D01*
X126401867Y-81697078D01*
X126142977Y-81790364D01*
X126027020Y-81852344D01*
X125960040Y-82092435D01*
X126746000Y-82878395D01*
X127531960Y-82092435D01*
X127464980Y-81852344D01*
X127215952Y-81735244D01*
X126948865Y-81668977D01*
X126732300Y-81658824D01*
X127508000Y-81658824D01*
X127581905Y-81651545D01*
X127652970Y-81629988D01*
X127718463Y-81594981D01*
X127775869Y-81547869D01*
X127822981Y-81490463D01*
X127857988Y-81424970D01*
X127879545Y-81353905D01*
X127886824Y-81280000D01*
X127886824Y-80187472D01*
X129779000Y-80187472D01*
X129779000Y-80340528D01*
X129808859Y-80490643D01*
X129867431Y-80632048D01*
X129952464Y-80759309D01*
X130060691Y-80867536D01*
X130187952Y-80952569D01*
X130329357Y-81011141D01*
X130479472Y-81041000D01*
X130632528Y-81041000D01*
X130782643Y-81011141D01*
X130924048Y-80952569D01*
X131051309Y-80867536D01*
X131152845Y-80766000D01*
X133515155Y-80766000D01*
X133616691Y-80867536D01*
X133743952Y-80952569D01*
X133885357Y-81011141D01*
X134035472Y-81041000D01*
X134188528Y-81041000D01*
X134338643Y-81011141D01*
X134480048Y-80952569D01*
X134607309Y-80867536D01*
X134715536Y-80759309D01*
X134800569Y-80632048D01*
X134859141Y-80490643D01*
X134889000Y-80340528D01*
X134889000Y-80187472D01*
X134859141Y-80037357D01*
X134800569Y-79895952D01*
X134715536Y-79768691D01*
X134702845Y-79756000D01*
X138051176Y-79756000D01*
X138051176Y-81280000D01*
X138058455Y-81353905D01*
X138080012Y-81424970D01*
X138115019Y-81490463D01*
X138162131Y-81547869D01*
X138219537Y-81594981D01*
X138285030Y-81629988D01*
X138356095Y-81651545D01*
X138430000Y-81658824D01*
X139101832Y-81658824D01*
X138847867Y-81697078D01*
X138588977Y-81790364D01*
X138473020Y-81852344D01*
X138406040Y-82092435D01*
X139192000Y-82878395D01*
X139977960Y-82092435D01*
X139910980Y-81852344D01*
X139661952Y-81735244D01*
X139394865Y-81668977D01*
X139355917Y-81667151D01*
X154983000Y-81667151D01*
X154983000Y-81908849D01*
X155030153Y-82145903D01*
X155122647Y-82369202D01*
X155256927Y-82570167D01*
X155427833Y-82741073D01*
X155628798Y-82875353D01*
X155852097Y-82967847D01*
X156089151Y-83015000D01*
X156330849Y-83015000D01*
X156567903Y-82967847D01*
X156791202Y-82875353D01*
X156992167Y-82741073D01*
X157163073Y-82570167D01*
X157297353Y-82369202D01*
X157389847Y-82145903D01*
X157437000Y-81908849D01*
X157437000Y-81667151D01*
X157523000Y-81667151D01*
X157523000Y-81908849D01*
X157570153Y-82145903D01*
X157662647Y-82369202D01*
X157796927Y-82570167D01*
X157967833Y-82741073D01*
X158168798Y-82875353D01*
X158173001Y-82877094D01*
X158173001Y-82961736D01*
X158173000Y-82961746D01*
X158173001Y-85016906D01*
X158168798Y-85018647D01*
X157967833Y-85152927D01*
X157796927Y-85323833D01*
X157662647Y-85524798D01*
X157570153Y-85748097D01*
X157523000Y-85985151D01*
X157523000Y-86226849D01*
X157570153Y-86463903D01*
X157662647Y-86687202D01*
X157796927Y-86888167D01*
X157967833Y-87059073D01*
X158168798Y-87193353D01*
X158173001Y-87195094D01*
X158173001Y-87279736D01*
X158173000Y-87279746D01*
X158173001Y-89334906D01*
X158168798Y-89336647D01*
X157967833Y-89470927D01*
X157796927Y-89641833D01*
X157662647Y-89842798D01*
X157570153Y-90066097D01*
X157523000Y-90303151D01*
X157523000Y-90544849D01*
X157570153Y-90781903D01*
X157662647Y-91005202D01*
X157796927Y-91206167D01*
X157967833Y-91377073D01*
X158168798Y-91511353D01*
X158392097Y-91603847D01*
X158629151Y-91651000D01*
X158870849Y-91651000D01*
X159107903Y-91603847D01*
X159331202Y-91511353D01*
X159532167Y-91377073D01*
X159703073Y-91206167D01*
X159803112Y-91056447D01*
X159801928Y-91274000D01*
X159814188Y-91398482D01*
X159850498Y-91518180D01*
X159909463Y-91628494D01*
X159988815Y-91725185D01*
X160085506Y-91804537D01*
X160195820Y-91863502D01*
X160315518Y-91899812D01*
X160440000Y-91912072D01*
X161004250Y-91909000D01*
X161163000Y-91750250D01*
X161163000Y-90551000D01*
X161417000Y-90551000D01*
X161417000Y-91750250D01*
X161575750Y-91909000D01*
X162140000Y-91912072D01*
X162264482Y-91899812D01*
X162384180Y-91863502D01*
X162494494Y-91804537D01*
X162591185Y-91725185D01*
X162670537Y-91628494D01*
X162729502Y-91518180D01*
X162765812Y-91398482D01*
X162778072Y-91274000D01*
X162775000Y-90709750D01*
X162616250Y-90551000D01*
X161417000Y-90551000D01*
X161163000Y-90551000D01*
X161143000Y-90551000D01*
X161143000Y-90297000D01*
X161163000Y-90297000D01*
X161163000Y-89097750D01*
X161417000Y-89097750D01*
X161417000Y-90297000D01*
X162616250Y-90297000D01*
X162775000Y-90138250D01*
X162778072Y-89574000D01*
X162765812Y-89449518D01*
X162729502Y-89329820D01*
X162670537Y-89219506D01*
X162591185Y-89122815D01*
X162494494Y-89043463D01*
X162384180Y-88984498D01*
X162264482Y-88948188D01*
X162140000Y-88935928D01*
X161575750Y-88939000D01*
X161417000Y-89097750D01*
X161163000Y-89097750D01*
X161004250Y-88939000D01*
X160440000Y-88935928D01*
X160315518Y-88948188D01*
X160195820Y-88984498D01*
X160085506Y-89043463D01*
X159988815Y-89122815D01*
X159909463Y-89219506D01*
X159850498Y-89329820D01*
X159814188Y-89449518D01*
X159801928Y-89574000D01*
X159803112Y-89791553D01*
X159703073Y-89641833D01*
X159532167Y-89470927D01*
X159331202Y-89336647D01*
X159327000Y-89334906D01*
X159327000Y-87195094D01*
X159331202Y-87193353D01*
X159532167Y-87059073D01*
X159703073Y-86888167D01*
X159803112Y-86738447D01*
X159801928Y-86956000D01*
X159814188Y-87080482D01*
X159850498Y-87200180D01*
X159909463Y-87310494D01*
X159988815Y-87407185D01*
X160085506Y-87486537D01*
X160195820Y-87545502D01*
X160315518Y-87581812D01*
X160440000Y-87594072D01*
X161004250Y-87591000D01*
X161163000Y-87432250D01*
X161163000Y-86233000D01*
X161417000Y-86233000D01*
X161417000Y-87432250D01*
X161575750Y-87591000D01*
X162140000Y-87594072D01*
X162264482Y-87581812D01*
X162384180Y-87545502D01*
X162494494Y-87486537D01*
X162591185Y-87407185D01*
X162670537Y-87310494D01*
X162729502Y-87200180D01*
X162765812Y-87080482D01*
X162778072Y-86956000D01*
X162775000Y-86391750D01*
X162616250Y-86233000D01*
X161417000Y-86233000D01*
X161163000Y-86233000D01*
X161143000Y-86233000D01*
X161143000Y-85979000D01*
X161163000Y-85979000D01*
X161163000Y-84779750D01*
X161417000Y-84779750D01*
X161417000Y-85979000D01*
X162616250Y-85979000D01*
X162775000Y-85820250D01*
X162778072Y-85256000D01*
X162765812Y-85131518D01*
X162729502Y-85011820D01*
X162670537Y-84901506D01*
X162591185Y-84804815D01*
X162494494Y-84725463D01*
X162384180Y-84666498D01*
X162264482Y-84630188D01*
X162140000Y-84617928D01*
X161575750Y-84621000D01*
X161417000Y-84779750D01*
X161163000Y-84779750D01*
X161004250Y-84621000D01*
X160440000Y-84617928D01*
X160315518Y-84630188D01*
X160195820Y-84666498D01*
X160085506Y-84725463D01*
X159988815Y-84804815D01*
X159909463Y-84901506D01*
X159850498Y-85011820D01*
X159814188Y-85131518D01*
X159801928Y-85256000D01*
X159803112Y-85473553D01*
X159703073Y-85323833D01*
X159532167Y-85152927D01*
X159331202Y-85018647D01*
X159327000Y-85016906D01*
X159327000Y-82877094D01*
X159331202Y-82875353D01*
X159532167Y-82741073D01*
X159703073Y-82570167D01*
X159803112Y-82420447D01*
X159801928Y-82638000D01*
X159814188Y-82762482D01*
X159850498Y-82882180D01*
X159909463Y-82992494D01*
X159988815Y-83089185D01*
X160085506Y-83168537D01*
X160195820Y-83227502D01*
X160315518Y-83263812D01*
X160440000Y-83276072D01*
X161004250Y-83273000D01*
X161163000Y-83114250D01*
X161163000Y-81915000D01*
X161417000Y-81915000D01*
X161417000Y-83114250D01*
X161575750Y-83273000D01*
X162140000Y-83276072D01*
X162264482Y-83263812D01*
X162384180Y-83227502D01*
X162494494Y-83168537D01*
X162591185Y-83089185D01*
X162670537Y-82992494D01*
X162729502Y-82882180D01*
X162765812Y-82762482D01*
X162778072Y-82638000D01*
X162775000Y-82073750D01*
X162616250Y-81915000D01*
X161417000Y-81915000D01*
X161163000Y-81915000D01*
X161143000Y-81915000D01*
X161143000Y-81661000D01*
X161163000Y-81661000D01*
X161163000Y-80461750D01*
X161417000Y-80461750D01*
X161417000Y-81661000D01*
X162616250Y-81661000D01*
X162775000Y-81502250D01*
X162778072Y-80938000D01*
X162765812Y-80813518D01*
X162729502Y-80693820D01*
X162670537Y-80583506D01*
X162591185Y-80486815D01*
X162494494Y-80407463D01*
X162384180Y-80348498D01*
X162264482Y-80312188D01*
X162140000Y-80299928D01*
X161575750Y-80303000D01*
X161417000Y-80461750D01*
X161163000Y-80461750D01*
X161027626Y-80326376D01*
X162331963Y-79022038D01*
X162353975Y-79003973D01*
X162426080Y-78916114D01*
X162479658Y-78815875D01*
X162512651Y-78707111D01*
X162521001Y-78622335D01*
X162521001Y-78622329D01*
X162523791Y-78594000D01*
X162521001Y-78565671D01*
X162521001Y-74422329D01*
X162523791Y-74394000D01*
X162521001Y-74365671D01*
X162521001Y-74365665D01*
X162512651Y-74280889D01*
X162479658Y-74172125D01*
X162426080Y-74071886D01*
X162353975Y-73984027D01*
X162331969Y-73965967D01*
X161068825Y-72702824D01*
X162274000Y-72702824D01*
X162347905Y-72695545D01*
X162418970Y-72673988D01*
X162484463Y-72638981D01*
X162541869Y-72591869D01*
X162588981Y-72534463D01*
X162623988Y-72468970D01*
X162645545Y-72397905D01*
X162652824Y-72324000D01*
X162652824Y-68324000D01*
X162645545Y-68250095D01*
X162623988Y-68179030D01*
X162588981Y-68113537D01*
X162541869Y-68056131D01*
X162484463Y-68009019D01*
X162418970Y-67974012D01*
X162347905Y-67952455D01*
X162274000Y-67945176D01*
X158274000Y-67945176D01*
X158200095Y-67952455D01*
X158129030Y-67974012D01*
X158063537Y-68009019D01*
X158006131Y-68056131D01*
X157959019Y-68113537D01*
X157924012Y-68179030D01*
X157902455Y-68250095D01*
X157895176Y-68324000D01*
X157895176Y-72324000D01*
X157902455Y-72397905D01*
X157924012Y-72468970D01*
X157959019Y-72534463D01*
X158006131Y-72591869D01*
X158063537Y-72638981D01*
X158129030Y-72673988D01*
X158200095Y-72695545D01*
X158274000Y-72702824D01*
X159696295Y-72702824D01*
X159694210Y-72724000D01*
X159705349Y-72837111D01*
X159738344Y-72945876D01*
X159791922Y-73046115D01*
X159811036Y-73069405D01*
X159845963Y-73111964D01*
X159845966Y-73111967D01*
X159864027Y-73133974D01*
X159886033Y-73152034D01*
X161367001Y-74633003D01*
X161367001Y-76329176D01*
X160020000Y-76329176D01*
X159946095Y-76336455D01*
X159875030Y-76358012D01*
X159809537Y-76393019D01*
X159752131Y-76440131D01*
X159705019Y-76497537D01*
X159670012Y-76563030D01*
X159648455Y-76634095D01*
X159641176Y-76708000D01*
X159641176Y-78232000D01*
X159648455Y-78305905D01*
X159670012Y-78376970D01*
X159705019Y-78442463D01*
X159752131Y-78499869D01*
X159809537Y-78546981D01*
X159875030Y-78581988D01*
X159946095Y-78603545D01*
X160020000Y-78610824D01*
X161111175Y-78610824D01*
X159212040Y-80509959D01*
X159212034Y-80509964D01*
X159112105Y-80609893D01*
X159107903Y-80608153D01*
X158870849Y-80561000D01*
X158629151Y-80561000D01*
X158392097Y-80608153D01*
X158168798Y-80700647D01*
X157967833Y-80834927D01*
X157796927Y-81005833D01*
X157662647Y-81206798D01*
X157570153Y-81430097D01*
X157523000Y-81667151D01*
X157437000Y-81667151D01*
X157389847Y-81430097D01*
X157297353Y-81206798D01*
X157163073Y-81005833D01*
X156992167Y-80834927D01*
X156791202Y-80700647D01*
X156567903Y-80608153D01*
X156330849Y-80561000D01*
X156089151Y-80561000D01*
X155852097Y-80608153D01*
X155628798Y-80700647D01*
X155427833Y-80834927D01*
X155256927Y-81005833D01*
X155122647Y-81206798D01*
X155030153Y-81430097D01*
X154983000Y-81667151D01*
X139355917Y-81667151D01*
X139178300Y-81658824D01*
X139954000Y-81658824D01*
X140027905Y-81651545D01*
X140098970Y-81629988D01*
X140164463Y-81594981D01*
X140221869Y-81547869D01*
X140268981Y-81490463D01*
X140303988Y-81424970D01*
X140325545Y-81353905D01*
X140332824Y-81280000D01*
X140332824Y-79756000D01*
X140325545Y-79682095D01*
X140303988Y-79611030D01*
X140268981Y-79545537D01*
X140221869Y-79488131D01*
X140164463Y-79441019D01*
X140098970Y-79406012D01*
X140027905Y-79384455D01*
X139954000Y-79377176D01*
X138430000Y-79377176D01*
X138356095Y-79384455D01*
X138285030Y-79406012D01*
X138219537Y-79441019D01*
X138162131Y-79488131D01*
X138115019Y-79545537D01*
X138080012Y-79611030D01*
X138058455Y-79682095D01*
X138051176Y-79756000D01*
X134702845Y-79756000D01*
X134607309Y-79660464D01*
X134480048Y-79575431D01*
X134338643Y-79516859D01*
X134188528Y-79487000D01*
X134035472Y-79487000D01*
X133885357Y-79516859D01*
X133743952Y-79575431D01*
X133616691Y-79660464D01*
X133515155Y-79762000D01*
X131152845Y-79762000D01*
X131051309Y-79660464D01*
X130924048Y-79575431D01*
X130782643Y-79516859D01*
X130632528Y-79487000D01*
X130479472Y-79487000D01*
X130329357Y-79516859D01*
X130187952Y-79575431D01*
X130060691Y-79660464D01*
X129952464Y-79768691D01*
X129867431Y-79895952D01*
X129808859Y-80037357D01*
X129779000Y-80187472D01*
X127886824Y-80187472D01*
X127886824Y-79756000D01*
X127879545Y-79682095D01*
X127857988Y-79611030D01*
X127822981Y-79545537D01*
X127775869Y-79488131D01*
X127718463Y-79441019D01*
X127652970Y-79406012D01*
X127581905Y-79384455D01*
X127508000Y-79377176D01*
X125984000Y-79377176D01*
X125910095Y-79384455D01*
X125839030Y-79406012D01*
X125773537Y-79441019D01*
X125716131Y-79488131D01*
X125669019Y-79545537D01*
X125634012Y-79611030D01*
X125612455Y-79682095D01*
X125605176Y-79756000D01*
X124862000Y-79756000D01*
X124862000Y-76962000D01*
X127549725Y-76962000D01*
X127571496Y-77183042D01*
X127635971Y-77395590D01*
X127740674Y-77591475D01*
X127881580Y-77763170D01*
X128053275Y-77904076D01*
X128249160Y-78008779D01*
X128461708Y-78073254D01*
X128627365Y-78089570D01*
X129436635Y-78089570D01*
X129602292Y-78073254D01*
X129814840Y-78008779D01*
X130010725Y-77904076D01*
X130182420Y-77763170D01*
X130323326Y-77591475D01*
X130428029Y-77395590D01*
X130492504Y-77183042D01*
X130501766Y-77089000D01*
X135266430Y-77089000D01*
X135266430Y-77438250D01*
X135317830Y-77706121D01*
X135420501Y-77958817D01*
X135570498Y-78186628D01*
X135762057Y-78380798D01*
X135987815Y-78533866D01*
X136239098Y-78639950D01*
X136310725Y-78654133D01*
X136525000Y-78531479D01*
X136525000Y-77089000D01*
X136779000Y-77089000D01*
X136779000Y-78531479D01*
X136993275Y-78654133D01*
X137064902Y-78639950D01*
X137316185Y-78533866D01*
X137541943Y-78380798D01*
X137733502Y-78186628D01*
X137883499Y-77958817D01*
X137986170Y-77706121D01*
X138037570Y-77438250D01*
X138037570Y-77089000D01*
X136779000Y-77089000D01*
X136525000Y-77089000D01*
X135266430Y-77089000D01*
X130501766Y-77089000D01*
X130514275Y-76962000D01*
X130492504Y-76740958D01*
X130428029Y-76528410D01*
X130405227Y-76485750D01*
X135266430Y-76485750D01*
X135266430Y-76835000D01*
X136525000Y-76835000D01*
X136525000Y-75392521D01*
X136779000Y-75392521D01*
X136779000Y-76835000D01*
X138037570Y-76835000D01*
X138037570Y-76557365D01*
X138064430Y-76557365D01*
X138064430Y-77366634D01*
X138080746Y-77532291D01*
X138145221Y-77744839D01*
X138249924Y-77940725D01*
X138390830Y-78112420D01*
X138562525Y-78253326D01*
X138758410Y-78358029D01*
X138970958Y-78422504D01*
X139192000Y-78444275D01*
X139413041Y-78422504D01*
X139625589Y-78358029D01*
X139821475Y-78253326D01*
X139993170Y-78112420D01*
X140134076Y-77940725D01*
X140238779Y-77744840D01*
X140303254Y-77532292D01*
X140319570Y-77366635D01*
X140319570Y-76557366D01*
X140319570Y-76557365D01*
X140604430Y-76557365D01*
X140604430Y-77366634D01*
X140620746Y-77532291D01*
X140685221Y-77744839D01*
X140789924Y-77940725D01*
X140930830Y-78112420D01*
X141102525Y-78253326D01*
X141298410Y-78358029D01*
X141510958Y-78422504D01*
X141732000Y-78444275D01*
X141953041Y-78422504D01*
X142165589Y-78358029D01*
X142361475Y-78253326D01*
X142533170Y-78112420D01*
X142674076Y-77940725D01*
X142778779Y-77744840D01*
X142843254Y-77532292D01*
X142859570Y-77366635D01*
X142859570Y-77341523D01*
X142875971Y-77395590D01*
X142980674Y-77591475D01*
X143121580Y-77763170D01*
X143293275Y-77904076D01*
X143489160Y-78008779D01*
X143701708Y-78073254D01*
X143783430Y-78081303D01*
X143805969Y-78155605D01*
X143852583Y-78242815D01*
X143915316Y-78319254D01*
X143934467Y-78334971D01*
X144494034Y-78894539D01*
X144509747Y-78913685D01*
X144586186Y-78976418D01*
X144673395Y-79023032D01*
X144768022Y-79051737D01*
X144841778Y-79059001D01*
X144841787Y-79059001D01*
X144866430Y-79061428D01*
X144891073Y-79059001D01*
X157130356Y-79059001D01*
X157154999Y-79061428D01*
X157179642Y-79059001D01*
X157179652Y-79059001D01*
X157253408Y-79051737D01*
X157348035Y-79023032D01*
X157435244Y-78976418D01*
X157511683Y-78913685D01*
X157527400Y-78894534D01*
X157872246Y-78549688D01*
X157909766Y-78565229D01*
X158129818Y-78609000D01*
X158354182Y-78609000D01*
X158574234Y-78565229D01*
X158781519Y-78479369D01*
X158968070Y-78354719D01*
X159126719Y-78196070D01*
X159251369Y-78009519D01*
X159337229Y-77802234D01*
X159381000Y-77582182D01*
X159381000Y-77357818D01*
X159337229Y-77137766D01*
X159251369Y-76930481D01*
X159126719Y-76743930D01*
X158968070Y-76585281D01*
X158781519Y-76460631D01*
X158574234Y-76374771D01*
X158354182Y-76331000D01*
X158129818Y-76331000D01*
X157909766Y-76374771D01*
X157702481Y-76460631D01*
X157515930Y-76585281D01*
X157357281Y-76743930D01*
X157232631Y-76930481D01*
X157146771Y-77137766D01*
X157103000Y-77357818D01*
X157103000Y-77582182D01*
X157146771Y-77802234D01*
X157162312Y-77839754D01*
X156947065Y-78055001D01*
X156680979Y-78055001D01*
X156711369Y-78009519D01*
X156797229Y-77802234D01*
X156841000Y-77582182D01*
X156841000Y-77357818D01*
X156797229Y-77137766D01*
X156711369Y-76930481D01*
X156586719Y-76743930D01*
X156428070Y-76585281D01*
X156241519Y-76460631D01*
X156034234Y-76374771D01*
X155814182Y-76331000D01*
X155589818Y-76331000D01*
X155369766Y-76374771D01*
X155162481Y-76460631D01*
X154975930Y-76585281D01*
X154817281Y-76743930D01*
X154692631Y-76930481D01*
X154606771Y-77137766D01*
X154563000Y-77357818D01*
X154563000Y-77582182D01*
X154606771Y-77802234D01*
X154692631Y-78009519D01*
X154723021Y-78055001D01*
X154140979Y-78055001D01*
X154171369Y-78009519D01*
X154257229Y-77802234D01*
X154301000Y-77582182D01*
X154301000Y-77357818D01*
X154257229Y-77137766D01*
X154171369Y-76930481D01*
X154046719Y-76743930D01*
X153888070Y-76585281D01*
X153701519Y-76460631D01*
X153494234Y-76374771D01*
X153274182Y-76331000D01*
X153049818Y-76331000D01*
X152829766Y-76374771D01*
X152792246Y-76390312D01*
X152447401Y-76045467D01*
X152431683Y-76026315D01*
X152355244Y-75963582D01*
X152268035Y-75916968D01*
X152173408Y-75888263D01*
X152099652Y-75880999D01*
X152099642Y-75880999D01*
X152074999Y-75878572D01*
X152050356Y-75880999D01*
X150955932Y-75880999D01*
X148035640Y-72960707D01*
X148988250Y-72959000D01*
X149147000Y-72800250D01*
X149147000Y-70451000D01*
X149401000Y-70451000D01*
X149401000Y-72800250D01*
X149559750Y-72959000D01*
X151274000Y-72962072D01*
X151398482Y-72949812D01*
X151518180Y-72913502D01*
X151628494Y-72854537D01*
X151725185Y-72775185D01*
X151804537Y-72678494D01*
X151863502Y-72568180D01*
X151899812Y-72448482D01*
X151912072Y-72324000D01*
X151909000Y-70609750D01*
X151750250Y-70451000D01*
X149401000Y-70451000D01*
X149147000Y-70451000D01*
X146797750Y-70451000D01*
X146639000Y-70609750D01*
X146637293Y-71562361D01*
X146123820Y-71048888D01*
X146123820Y-70367213D01*
X146126247Y-70342570D01*
X146123820Y-70317927D01*
X146123820Y-70317917D01*
X146116556Y-70244161D01*
X146087851Y-70149534D01*
X146066152Y-70108938D01*
X146041237Y-70062324D01*
X145994220Y-70005034D01*
X145994212Y-70005026D01*
X145978504Y-69985886D01*
X145959363Y-69970177D01*
X145690546Y-69701361D01*
X145732504Y-69563042D01*
X145754275Y-69342000D01*
X145732504Y-69120958D01*
X145668029Y-68908410D01*
X145563326Y-68712525D01*
X145422420Y-68540830D01*
X145250725Y-68399924D01*
X145108682Y-68324000D01*
X146635928Y-68324000D01*
X146639000Y-70038250D01*
X146797750Y-70197000D01*
X149147000Y-70197000D01*
X149147000Y-67847750D01*
X149401000Y-67847750D01*
X149401000Y-70197000D01*
X151750250Y-70197000D01*
X151909000Y-70038250D01*
X151912072Y-68324000D01*
X151899812Y-68199518D01*
X151863502Y-68079820D01*
X151804537Y-67969506D01*
X151725185Y-67872815D01*
X151628494Y-67793463D01*
X151518180Y-67734498D01*
X151398482Y-67698188D01*
X151274000Y-67685928D01*
X149559750Y-67689000D01*
X149401000Y-67847750D01*
X149147000Y-67847750D01*
X148988250Y-67689000D01*
X147274000Y-67685928D01*
X147149518Y-67698188D01*
X147029820Y-67734498D01*
X146919506Y-67793463D01*
X146822815Y-67872815D01*
X146743463Y-67969506D01*
X146684498Y-68079820D01*
X146648188Y-68199518D01*
X146635928Y-68324000D01*
X145108682Y-68324000D01*
X145054840Y-68295221D01*
X144842292Y-68230746D01*
X144676635Y-68214430D01*
X143867365Y-68214430D01*
X143701708Y-68230746D01*
X143489160Y-68295221D01*
X143293275Y-68399924D01*
X143121580Y-68540830D01*
X142980674Y-68712525D01*
X142875971Y-68908410D01*
X142811496Y-69120958D01*
X142789725Y-69342000D01*
X142811496Y-69563042D01*
X142875971Y-69775590D01*
X142980674Y-69971475D01*
X143121580Y-70143170D01*
X143293275Y-70284076D01*
X143489160Y-70388779D01*
X143701708Y-70453254D01*
X143867365Y-70469570D01*
X144676635Y-70469570D01*
X144842292Y-70453254D01*
X144980611Y-70411296D01*
X145119820Y-70550506D01*
X145119821Y-70869954D01*
X145054840Y-70835221D01*
X144842292Y-70770746D01*
X144676635Y-70754430D01*
X143867365Y-70754430D01*
X143701708Y-70770746D01*
X143489160Y-70835221D01*
X143293275Y-70939924D01*
X143121580Y-71080830D01*
X142980674Y-71252525D01*
X142875971Y-71448410D01*
X142811496Y-71660958D01*
X142789725Y-71882000D01*
X142811496Y-72103042D01*
X142875971Y-72315590D01*
X142980674Y-72511475D01*
X143121580Y-72683170D01*
X143293275Y-72824076D01*
X143489160Y-72928779D01*
X143701708Y-72993254D01*
X143867365Y-73009570D01*
X144676635Y-73009570D01*
X144842292Y-72993254D01*
X144980612Y-72951296D01*
X148101705Y-76072390D01*
X148009983Y-76068090D01*
X147737867Y-76109078D01*
X147478977Y-76202364D01*
X147363020Y-76264344D01*
X147296040Y-76504435D01*
X148082000Y-77290395D01*
X148096143Y-77276253D01*
X148275748Y-77455858D01*
X148261605Y-77470000D01*
X148275748Y-77484143D01*
X148096143Y-77663748D01*
X148082000Y-77649605D01*
X148067858Y-77663748D01*
X147888253Y-77484143D01*
X147902395Y-77470000D01*
X147116435Y-76684040D01*
X146876344Y-76751020D01*
X146759244Y-77000048D01*
X146692977Y-77267135D01*
X146680090Y-77542017D01*
X146721078Y-77814133D01*
X146807870Y-78055001D01*
X145074366Y-78055001D01*
X145034357Y-78014992D01*
X145054840Y-78008779D01*
X145250725Y-77904076D01*
X145422420Y-77763170D01*
X145563326Y-77591475D01*
X145668029Y-77395590D01*
X145732504Y-77183042D01*
X145754275Y-76962000D01*
X145732504Y-76740958D01*
X145668029Y-76528410D01*
X145563326Y-76332525D01*
X145422420Y-76160830D01*
X145250725Y-76019924D01*
X145054840Y-75915221D01*
X144842292Y-75850746D01*
X144676635Y-75834430D01*
X143867365Y-75834430D01*
X143701708Y-75850746D01*
X143489160Y-75915221D01*
X143293275Y-76019924D01*
X143121580Y-76160830D01*
X142980674Y-76332525D01*
X142875971Y-76528410D01*
X142859570Y-76582477D01*
X142859570Y-76557366D01*
X142843254Y-76391709D01*
X142778779Y-76179160D01*
X142674076Y-75983275D01*
X142533170Y-75811580D01*
X142361475Y-75670674D01*
X142165590Y-75565971D01*
X141953042Y-75501496D01*
X141732000Y-75479725D01*
X141510959Y-75501496D01*
X141298411Y-75565971D01*
X141102526Y-75670674D01*
X140930831Y-75811580D01*
X140789925Y-75983275D01*
X140685222Y-76179160D01*
X140620746Y-76391708D01*
X140604430Y-76557365D01*
X140319570Y-76557365D01*
X140303254Y-76391709D01*
X140238779Y-76179160D01*
X140134076Y-75983275D01*
X139993170Y-75811580D01*
X139821475Y-75670674D01*
X139625590Y-75565971D01*
X139413042Y-75501496D01*
X139192000Y-75479725D01*
X138970959Y-75501496D01*
X138758411Y-75565971D01*
X138562526Y-75670674D01*
X138390831Y-75811580D01*
X138249925Y-75983275D01*
X138145222Y-76179160D01*
X138080746Y-76391708D01*
X138064430Y-76557365D01*
X138037570Y-76557365D01*
X138037570Y-76485750D01*
X137986170Y-76217879D01*
X137883499Y-75965183D01*
X137733502Y-75737372D01*
X137541943Y-75543202D01*
X137316185Y-75390134D01*
X137064902Y-75284050D01*
X136993275Y-75269867D01*
X136779000Y-75392521D01*
X136525000Y-75392521D01*
X136310725Y-75269867D01*
X136239098Y-75284050D01*
X135987815Y-75390134D01*
X135762057Y-75543202D01*
X135570498Y-75737372D01*
X135420501Y-75965183D01*
X135317830Y-76217879D01*
X135266430Y-76485750D01*
X130405227Y-76485750D01*
X130323326Y-76332525D01*
X130182420Y-76160830D01*
X130010725Y-76019924D01*
X129814840Y-75915221D01*
X129602292Y-75850746D01*
X129436635Y-75834430D01*
X128627365Y-75834430D01*
X128461708Y-75850746D01*
X128249160Y-75915221D01*
X128053275Y-76019924D01*
X127881580Y-76160830D01*
X127740674Y-76332525D01*
X127635971Y-76528410D01*
X127571496Y-76740958D01*
X127549725Y-76962000D01*
X124862000Y-76962000D01*
X124862000Y-74422000D01*
X127549725Y-74422000D01*
X127571496Y-74643042D01*
X127635971Y-74855590D01*
X127740674Y-75051475D01*
X127881580Y-75223170D01*
X128053275Y-75364076D01*
X128249160Y-75468779D01*
X128461708Y-75533254D01*
X128627365Y-75549570D01*
X129436635Y-75549570D01*
X129602292Y-75533254D01*
X129814840Y-75468779D01*
X130010725Y-75364076D01*
X130182420Y-75223170D01*
X130323326Y-75051475D01*
X130428029Y-74855590D01*
X130492504Y-74643042D01*
X130514275Y-74422000D01*
X130499050Y-74267413D01*
X135696192Y-74267413D01*
X135791956Y-74531814D01*
X136081571Y-74672704D01*
X136393108Y-74754384D01*
X136714595Y-74773718D01*
X137033675Y-74729961D01*
X137338088Y-74624795D01*
X137512044Y-74531814D01*
X137551817Y-74422000D01*
X142789725Y-74422000D01*
X142811496Y-74643042D01*
X142875971Y-74855590D01*
X142980674Y-75051475D01*
X143121580Y-75223170D01*
X143293275Y-75364076D01*
X143489160Y-75468779D01*
X143701708Y-75533254D01*
X143867365Y-75549570D01*
X144676635Y-75549570D01*
X144842292Y-75533254D01*
X145054840Y-75468779D01*
X145250725Y-75364076D01*
X145422420Y-75223170D01*
X145563326Y-75051475D01*
X145668029Y-74855590D01*
X145732504Y-74643042D01*
X145754275Y-74422000D01*
X145732504Y-74200958D01*
X145668029Y-73988410D01*
X145563326Y-73792525D01*
X145422420Y-73620830D01*
X145250725Y-73479924D01*
X145054840Y-73375221D01*
X144842292Y-73310746D01*
X144676635Y-73294430D01*
X143867365Y-73294430D01*
X143701708Y-73310746D01*
X143489160Y-73375221D01*
X143293275Y-73479924D01*
X143121580Y-73620830D01*
X142980674Y-73792525D01*
X142875971Y-73988410D01*
X142811496Y-74200958D01*
X142789725Y-74422000D01*
X137551817Y-74422000D01*
X137607808Y-74267413D01*
X136652000Y-73311605D01*
X135696192Y-74267413D01*
X130499050Y-74267413D01*
X130492504Y-74200958D01*
X130428029Y-73988410D01*
X130323326Y-73792525D01*
X130182420Y-73620830D01*
X130010725Y-73479924D01*
X129814840Y-73375221D01*
X129602292Y-73310746D01*
X129436635Y-73294430D01*
X128627365Y-73294430D01*
X128461708Y-73310746D01*
X128249160Y-73375221D01*
X128053275Y-73479924D01*
X127881580Y-73620830D01*
X127740674Y-73792525D01*
X127635971Y-73988410D01*
X127571496Y-74200958D01*
X127549725Y-74422000D01*
X124862000Y-74422000D01*
X124862000Y-73194595D01*
X135010282Y-73194595D01*
X135054039Y-73513675D01*
X135159205Y-73818088D01*
X135252186Y-73992044D01*
X135516587Y-74087808D01*
X136472395Y-73132000D01*
X136831605Y-73132000D01*
X137787413Y-74087808D01*
X138051814Y-73992044D01*
X138192704Y-73702429D01*
X138274384Y-73390892D01*
X138293718Y-73069405D01*
X138249961Y-72750325D01*
X138144795Y-72445912D01*
X138051814Y-72271956D01*
X137787413Y-72176192D01*
X136831605Y-73132000D01*
X136472395Y-73132000D01*
X135516587Y-72176192D01*
X135252186Y-72271956D01*
X135111296Y-72561571D01*
X135029616Y-72873108D01*
X135010282Y-73194595D01*
X124862000Y-73194595D01*
X124862000Y-71882000D01*
X127549725Y-71882000D01*
X127571496Y-72103042D01*
X127635971Y-72315590D01*
X127740674Y-72511475D01*
X127881580Y-72683170D01*
X128053275Y-72824076D01*
X128249160Y-72928779D01*
X128461708Y-72993254D01*
X128627365Y-73009570D01*
X129436635Y-73009570D01*
X129602292Y-72993254D01*
X129814840Y-72928779D01*
X130010725Y-72824076D01*
X130182420Y-72683170D01*
X130323326Y-72511475D01*
X130428029Y-72315590D01*
X130492504Y-72103042D01*
X130502989Y-71996587D01*
X135696192Y-71996587D01*
X136652000Y-72952395D01*
X137607808Y-71996587D01*
X137512044Y-71732186D01*
X137222429Y-71591296D01*
X136910892Y-71509616D01*
X136589405Y-71490282D01*
X136270325Y-71534039D01*
X135965912Y-71639205D01*
X135791956Y-71732186D01*
X135696192Y-71996587D01*
X130502989Y-71996587D01*
X130514275Y-71882000D01*
X130492504Y-71660958D01*
X130428029Y-71448410D01*
X130323326Y-71252525D01*
X130182420Y-71080830D01*
X130010725Y-70939924D01*
X129814840Y-70835221D01*
X129602292Y-70770746D01*
X129436635Y-70754430D01*
X128627365Y-70754430D01*
X128461708Y-70770746D01*
X128249160Y-70835221D01*
X128053275Y-70939924D01*
X127881580Y-71080830D01*
X127740674Y-71252525D01*
X127635971Y-71448410D01*
X127571496Y-71660958D01*
X127549725Y-71882000D01*
X124862000Y-71882000D01*
X124862000Y-68492000D01*
X125009176Y-68492000D01*
X125009176Y-70192000D01*
X125016455Y-70265905D01*
X125038012Y-70336970D01*
X125073019Y-70402463D01*
X125120131Y-70459869D01*
X125177537Y-70506981D01*
X125243030Y-70541988D01*
X125314095Y-70563545D01*
X125388000Y-70570824D01*
X127088000Y-70570824D01*
X127161905Y-70563545D01*
X127232970Y-70541988D01*
X127298463Y-70506981D01*
X127355869Y-70459869D01*
X127402981Y-70402463D01*
X127437988Y-70336970D01*
X127459545Y-70265905D01*
X127466824Y-70192000D01*
X127466824Y-69342000D01*
X127549725Y-69342000D01*
X127571496Y-69563042D01*
X127635971Y-69775590D01*
X127740674Y-69971475D01*
X127881580Y-70143170D01*
X128053275Y-70284076D01*
X128249160Y-70388779D01*
X128461708Y-70453254D01*
X128627365Y-70469570D01*
X129436635Y-70469570D01*
X129602292Y-70453254D01*
X129814840Y-70388779D01*
X130010725Y-70284076D01*
X130182420Y-70143170D01*
X130323326Y-69971475D01*
X130428029Y-69775590D01*
X130492504Y-69563042D01*
X130514275Y-69342000D01*
X130492504Y-69120958D01*
X130428029Y-68908410D01*
X130323326Y-68712525D01*
X130182420Y-68540830D01*
X130010725Y-68399924D01*
X129814840Y-68295221D01*
X129602292Y-68230746D01*
X129436635Y-68214430D01*
X128627365Y-68214430D01*
X128461708Y-68230746D01*
X128249160Y-68295221D01*
X128053275Y-68399924D01*
X127881580Y-68540830D01*
X127740674Y-68712525D01*
X127635971Y-68908410D01*
X127571496Y-69120958D01*
X127549725Y-69342000D01*
X127466824Y-69342000D01*
X127466824Y-68492000D01*
X127459545Y-68418095D01*
X127437988Y-68347030D01*
X127402981Y-68281537D01*
X127355869Y-68224131D01*
X127298463Y-68177019D01*
X127232970Y-68142012D01*
X127161905Y-68120455D01*
X127088000Y-68113176D01*
X125388000Y-68113176D01*
X125314095Y-68120455D01*
X125243030Y-68142012D01*
X125177537Y-68177019D01*
X125120131Y-68224131D01*
X125073019Y-68281537D01*
X125038012Y-68347030D01*
X125016455Y-68418095D01*
X125009176Y-68492000D01*
X124862000Y-68492000D01*
X124862000Y-65952000D01*
X125009176Y-65952000D01*
X125009176Y-67652000D01*
X125016455Y-67725905D01*
X125038012Y-67796970D01*
X125073019Y-67862463D01*
X125120131Y-67919869D01*
X125177537Y-67966981D01*
X125243030Y-68001988D01*
X125314095Y-68023545D01*
X125388000Y-68030824D01*
X127088000Y-68030824D01*
X127161905Y-68023545D01*
X127232970Y-68001988D01*
X127298463Y-67966981D01*
X127355869Y-67919869D01*
X127402981Y-67862463D01*
X127437988Y-67796970D01*
X127459545Y-67725905D01*
X127466824Y-67652000D01*
X127466824Y-66802000D01*
X127549725Y-66802000D01*
X127571496Y-67023042D01*
X127635971Y-67235590D01*
X127740674Y-67431475D01*
X127881580Y-67603170D01*
X128053275Y-67744076D01*
X128249160Y-67848779D01*
X128461708Y-67913254D01*
X128627365Y-67929570D01*
X129436635Y-67929570D01*
X129602292Y-67913254D01*
X129814840Y-67848779D01*
X130010725Y-67744076D01*
X130182420Y-67603170D01*
X130323326Y-67431475D01*
X130428029Y-67235590D01*
X130492504Y-67023042D01*
X130514275Y-66802000D01*
X130492504Y-66580958D01*
X130428029Y-66368410D01*
X130323326Y-66172525D01*
X130182420Y-66000830D01*
X130010725Y-65859924D01*
X129814840Y-65755221D01*
X129602292Y-65690746D01*
X129436635Y-65674430D01*
X128627365Y-65674430D01*
X128461708Y-65690746D01*
X128249160Y-65755221D01*
X128053275Y-65859924D01*
X127881580Y-66000830D01*
X127740674Y-66172525D01*
X127635971Y-66368410D01*
X127571496Y-66580958D01*
X127549725Y-66802000D01*
X127466824Y-66802000D01*
X127466824Y-65952000D01*
X127459545Y-65878095D01*
X127437988Y-65807030D01*
X127402981Y-65741537D01*
X127355869Y-65684131D01*
X127298463Y-65637019D01*
X127232970Y-65602012D01*
X127161905Y-65580455D01*
X127088000Y-65573176D01*
X125388000Y-65573176D01*
X125314095Y-65580455D01*
X125243030Y-65602012D01*
X125177537Y-65637019D01*
X125120131Y-65684131D01*
X125073019Y-65741537D01*
X125038012Y-65807030D01*
X125016455Y-65878095D01*
X125009176Y-65952000D01*
X124862000Y-65952000D01*
X124862000Y-63412000D01*
X125009176Y-63412000D01*
X125009176Y-65112000D01*
X125016455Y-65185905D01*
X125038012Y-65256970D01*
X125073019Y-65322463D01*
X125120131Y-65379869D01*
X125177537Y-65426981D01*
X125243030Y-65461988D01*
X125314095Y-65483545D01*
X125388000Y-65490824D01*
X127088000Y-65490824D01*
X127161905Y-65483545D01*
X127232970Y-65461988D01*
X127298463Y-65426981D01*
X127355869Y-65379869D01*
X127402981Y-65322463D01*
X127437988Y-65256970D01*
X127459545Y-65185905D01*
X127466824Y-65112000D01*
X127466824Y-64262000D01*
X127549725Y-64262000D01*
X127571496Y-64483042D01*
X127635971Y-64695590D01*
X127740674Y-64891475D01*
X127881580Y-65063170D01*
X128053275Y-65204076D01*
X128249160Y-65308779D01*
X128461708Y-65373254D01*
X128627365Y-65389570D01*
X129436635Y-65389570D01*
X129602292Y-65373254D01*
X129814840Y-65308779D01*
X130010725Y-65204076D01*
X130182420Y-65063170D01*
X130323326Y-64891475D01*
X130428029Y-64695590D01*
X130477652Y-64532000D01*
X135273176Y-64532000D01*
X135273176Y-66532000D01*
X135280455Y-66605905D01*
X135302012Y-66676970D01*
X135337019Y-66742463D01*
X135384131Y-66799869D01*
X135441537Y-66846981D01*
X135507030Y-66881988D01*
X135578095Y-66903545D01*
X135652000Y-66910824D01*
X137574889Y-66910824D01*
X137803603Y-67139538D01*
X137819316Y-67158684D01*
X137895755Y-67221417D01*
X137982964Y-67268031D01*
X138077591Y-67296736D01*
X138151347Y-67304000D01*
X138151356Y-67304000D01*
X138175999Y-67306427D01*
X138200642Y-67304000D01*
X142912537Y-67304000D01*
X142980674Y-67431475D01*
X143121580Y-67603170D01*
X143293275Y-67744076D01*
X143489160Y-67848779D01*
X143701708Y-67913254D01*
X143867365Y-67929570D01*
X144676635Y-67929570D01*
X144842292Y-67913254D01*
X145054840Y-67848779D01*
X145250725Y-67744076D01*
X145422420Y-67603170D01*
X145563326Y-67431475D01*
X145668029Y-67235590D01*
X145732504Y-67023042D01*
X145754275Y-66802000D01*
X145732504Y-66580958D01*
X145668029Y-66368410D01*
X145563326Y-66172525D01*
X145422420Y-66000830D01*
X145250725Y-65859924D01*
X145054840Y-65755221D01*
X144842292Y-65690746D01*
X144676635Y-65674430D01*
X143867365Y-65674430D01*
X143701708Y-65690746D01*
X143489160Y-65755221D01*
X143293275Y-65859924D01*
X143121580Y-66000830D01*
X142980674Y-66172525D01*
X142912537Y-66300000D01*
X138383935Y-66300000D01*
X138030824Y-65946889D01*
X138030824Y-64532000D01*
X138023545Y-64458095D01*
X138001988Y-64387030D01*
X137966981Y-64321537D01*
X137919869Y-64264131D01*
X137917273Y-64262000D01*
X142789725Y-64262000D01*
X142811496Y-64483042D01*
X142875971Y-64695590D01*
X142980674Y-64891475D01*
X143121580Y-65063170D01*
X143293275Y-65204076D01*
X143489160Y-65308779D01*
X143701708Y-65373254D01*
X143867365Y-65389570D01*
X144676635Y-65389570D01*
X144842292Y-65373254D01*
X145054840Y-65308779D01*
X145250725Y-65204076D01*
X145422420Y-65063170D01*
X145563326Y-64891475D01*
X145668029Y-64695590D01*
X145732504Y-64483042D01*
X145754275Y-64262000D01*
X145732504Y-64040958D01*
X145668029Y-63828410D01*
X145563326Y-63632525D01*
X145422420Y-63460830D01*
X145250725Y-63319924D01*
X145054840Y-63215221D01*
X144842292Y-63150746D01*
X144676635Y-63134430D01*
X143867365Y-63134430D01*
X143701708Y-63150746D01*
X143489160Y-63215221D01*
X143293275Y-63319924D01*
X143121580Y-63460830D01*
X142980674Y-63632525D01*
X142875971Y-63828410D01*
X142811496Y-64040958D01*
X142789725Y-64262000D01*
X137917273Y-64262000D01*
X137862463Y-64217019D01*
X137796970Y-64182012D01*
X137725905Y-64160455D01*
X137652000Y-64153176D01*
X135652000Y-64153176D01*
X135578095Y-64160455D01*
X135507030Y-64182012D01*
X135441537Y-64217019D01*
X135384131Y-64264131D01*
X135337019Y-64321537D01*
X135302012Y-64387030D01*
X135280455Y-64458095D01*
X135273176Y-64532000D01*
X130477652Y-64532000D01*
X130492504Y-64483042D01*
X130514275Y-64262000D01*
X130492504Y-64040958D01*
X130428029Y-63828410D01*
X130323326Y-63632525D01*
X130182420Y-63460830D01*
X130010725Y-63319924D01*
X129814840Y-63215221D01*
X129602292Y-63150746D01*
X129436635Y-63134430D01*
X128627365Y-63134430D01*
X128461708Y-63150746D01*
X128249160Y-63215221D01*
X128053275Y-63319924D01*
X127881580Y-63460830D01*
X127740674Y-63632525D01*
X127635971Y-63828410D01*
X127571496Y-64040958D01*
X127549725Y-64262000D01*
X127466824Y-64262000D01*
X127466824Y-63412000D01*
X127459545Y-63338095D01*
X127437988Y-63267030D01*
X127402981Y-63201537D01*
X127355869Y-63144131D01*
X127298463Y-63097019D01*
X127232970Y-63062012D01*
X127161905Y-63040455D01*
X127088000Y-63033176D01*
X125388000Y-63033176D01*
X125314095Y-63040455D01*
X125243030Y-63062012D01*
X125177537Y-63097019D01*
X125120131Y-63144131D01*
X125073019Y-63201537D01*
X125038012Y-63267030D01*
X125016455Y-63338095D01*
X125009176Y-63412000D01*
X124862000Y-63412000D01*
X124862000Y-61722000D01*
X127549725Y-61722000D01*
X127571496Y-61943042D01*
X127635971Y-62155590D01*
X127740674Y-62351475D01*
X127881580Y-62523170D01*
X128053275Y-62664076D01*
X128249160Y-62768779D01*
X128461708Y-62833254D01*
X128627365Y-62849570D01*
X129436635Y-62849570D01*
X129602292Y-62833254D01*
X129814840Y-62768779D01*
X130010725Y-62664076D01*
X130182420Y-62523170D01*
X130323326Y-62351475D01*
X130428029Y-62155590D01*
X130492504Y-61943042D01*
X130514275Y-61722000D01*
X130492504Y-61500958D01*
X130428029Y-61288410D01*
X130323326Y-61092525D01*
X130182420Y-60920830D01*
X130010725Y-60779924D01*
X129814840Y-60675221D01*
X129602292Y-60610746D01*
X129436635Y-60594430D01*
X128627365Y-60594430D01*
X128461708Y-60610746D01*
X128249160Y-60675221D01*
X128053275Y-60779924D01*
X127881580Y-60920830D01*
X127740674Y-61092525D01*
X127635971Y-61288410D01*
X127571496Y-61500958D01*
X127549725Y-61722000D01*
X124862000Y-61722000D01*
X124862000Y-59182000D01*
X127549725Y-59182000D01*
X127571496Y-59403042D01*
X127635971Y-59615590D01*
X127740674Y-59811475D01*
X127881580Y-59983170D01*
X128053275Y-60124076D01*
X128249160Y-60228779D01*
X128461708Y-60293254D01*
X128627365Y-60309570D01*
X129436635Y-60309570D01*
X129602292Y-60293254D01*
X129814840Y-60228779D01*
X130010725Y-60124076D01*
X130182420Y-59983170D01*
X130323326Y-59811475D01*
X130428029Y-59615590D01*
X130492504Y-59403042D01*
X130514275Y-59182000D01*
X130492504Y-58960958D01*
X130428029Y-58748410D01*
X130323326Y-58552525D01*
X130182420Y-58380830D01*
X130010725Y-58239924D01*
X129814840Y-58135221D01*
X129602292Y-58070746D01*
X129436635Y-58054430D01*
X128627365Y-58054430D01*
X128461708Y-58070746D01*
X128249160Y-58135221D01*
X128053275Y-58239924D01*
X127881580Y-58380830D01*
X127740674Y-58552525D01*
X127635971Y-58748410D01*
X127571496Y-58960958D01*
X127549725Y-59182000D01*
X124862000Y-59182000D01*
X124862000Y-56983275D01*
X127339867Y-56983275D01*
X127354050Y-57054902D01*
X127460134Y-57306185D01*
X127613202Y-57531943D01*
X127807372Y-57723502D01*
X128035183Y-57873499D01*
X128287879Y-57976170D01*
X128555750Y-58027570D01*
X128905000Y-58027570D01*
X128905000Y-56769000D01*
X129159000Y-56769000D01*
X129159000Y-58027570D01*
X129508250Y-58027570D01*
X129776121Y-57976170D01*
X129934057Y-57912000D01*
X140249725Y-57912000D01*
X140271496Y-58133042D01*
X140335971Y-58345590D01*
X140440674Y-58541475D01*
X140581580Y-58713170D01*
X140753275Y-58854076D01*
X140949160Y-58958779D01*
X141161708Y-59023254D01*
X141327365Y-59039570D01*
X142136635Y-59039570D01*
X142302292Y-59023254D01*
X142514840Y-58958779D01*
X142710725Y-58854076D01*
X142882420Y-58713170D01*
X142917945Y-58669883D01*
X142875971Y-58748410D01*
X142811496Y-58960958D01*
X142789725Y-59182000D01*
X142811496Y-59403042D01*
X142875971Y-59615590D01*
X142917945Y-59694117D01*
X142882420Y-59650830D01*
X142710725Y-59509924D01*
X142514840Y-59405221D01*
X142302292Y-59340746D01*
X142136635Y-59324430D01*
X141327365Y-59324430D01*
X141161708Y-59340746D01*
X140949160Y-59405221D01*
X140753275Y-59509924D01*
X140581580Y-59650830D01*
X140440674Y-59822525D01*
X140335971Y-60018410D01*
X140271496Y-60230958D01*
X140249725Y-60452000D01*
X140271496Y-60673042D01*
X140335971Y-60885590D01*
X140440674Y-61081475D01*
X140581580Y-61253170D01*
X140753275Y-61394076D01*
X140949160Y-61498779D01*
X141161708Y-61563254D01*
X141327365Y-61579570D01*
X142136635Y-61579570D01*
X142302292Y-61563254D01*
X142514840Y-61498779D01*
X142710725Y-61394076D01*
X142882420Y-61253170D01*
X142917945Y-61209883D01*
X142875971Y-61288410D01*
X142811496Y-61500958D01*
X142789725Y-61722000D01*
X142811496Y-61943042D01*
X142875971Y-62155590D01*
X142980674Y-62351475D01*
X143121580Y-62523170D01*
X143293275Y-62664076D01*
X143489160Y-62768779D01*
X143701708Y-62833254D01*
X143867365Y-62849570D01*
X144676635Y-62849570D01*
X144842292Y-62833254D01*
X145054840Y-62768779D01*
X145250725Y-62664076D01*
X145422420Y-62523170D01*
X145563326Y-62351475D01*
X145668029Y-62155590D01*
X145732504Y-61943042D01*
X145754275Y-61722000D01*
X145732504Y-61500958D01*
X145668029Y-61288410D01*
X145563326Y-61092525D01*
X145422420Y-60920830D01*
X145250725Y-60779924D01*
X145054840Y-60675221D01*
X144842292Y-60610746D01*
X144676635Y-60594430D01*
X143867365Y-60594430D01*
X143701708Y-60610746D01*
X143489160Y-60675221D01*
X143293275Y-60779924D01*
X143121580Y-60920830D01*
X143086055Y-60964117D01*
X143128029Y-60885590D01*
X143192504Y-60673042D01*
X143214275Y-60452000D01*
X143192504Y-60230958D01*
X143128029Y-60018410D01*
X143086055Y-59939883D01*
X143121580Y-59983170D01*
X143293275Y-60124076D01*
X143489160Y-60228779D01*
X143701708Y-60293254D01*
X143867365Y-60309570D01*
X144676635Y-60309570D01*
X144842292Y-60293254D01*
X145054840Y-60228779D01*
X145250725Y-60124076D01*
X145422420Y-59983170D01*
X145563326Y-59811475D01*
X145668029Y-59615590D01*
X145732504Y-59403042D01*
X145754275Y-59182000D01*
X145732504Y-58960958D01*
X145668029Y-58748410D01*
X145563326Y-58552525D01*
X145422420Y-58380830D01*
X145250725Y-58239924D01*
X145054840Y-58135221D01*
X144842292Y-58070746D01*
X144676635Y-58054430D01*
X143867365Y-58054430D01*
X143701708Y-58070746D01*
X143489160Y-58135221D01*
X143293275Y-58239924D01*
X143121580Y-58380830D01*
X143086055Y-58424117D01*
X143128029Y-58345590D01*
X143192504Y-58133042D01*
X143214275Y-57912000D01*
X143192504Y-57690958D01*
X143128029Y-57478410D01*
X143086055Y-57399883D01*
X143121580Y-57443170D01*
X143293275Y-57584076D01*
X143489160Y-57688779D01*
X143701708Y-57753254D01*
X143867365Y-57769570D01*
X144676635Y-57769570D01*
X144842292Y-57753254D01*
X145054840Y-57688779D01*
X145250725Y-57584076D01*
X145422420Y-57443170D01*
X145563326Y-57271475D01*
X145668029Y-57075590D01*
X145732504Y-56863042D01*
X145754275Y-56642000D01*
X145732504Y-56420958D01*
X145668029Y-56208410D01*
X145563326Y-56012525D01*
X145422420Y-55840830D01*
X145250725Y-55699924D01*
X145054840Y-55595221D01*
X144842292Y-55530746D01*
X144676635Y-55514430D01*
X143867365Y-55514430D01*
X143701708Y-55530746D01*
X143489160Y-55595221D01*
X143293275Y-55699924D01*
X143121580Y-55840830D01*
X143026554Y-55956620D01*
X142255000Y-55185066D01*
X142255000Y-55041472D01*
X142225141Y-54891357D01*
X142166569Y-54749952D01*
X142081536Y-54622691D01*
X141973309Y-54514464D01*
X141846048Y-54429431D01*
X141704643Y-54370859D01*
X141554528Y-54341000D01*
X141401472Y-54341000D01*
X141251357Y-54370859D01*
X141109952Y-54429431D01*
X140982691Y-54514464D01*
X140874464Y-54622691D01*
X140789431Y-54749952D01*
X140730859Y-54891357D01*
X140701000Y-55041472D01*
X140701000Y-55194528D01*
X140730859Y-55344643D01*
X140789431Y-55486048D01*
X140874464Y-55613309D01*
X140982691Y-55721536D01*
X141109952Y-55806569D01*
X141251357Y-55865141D01*
X141401472Y-55895000D01*
X141545066Y-55895000D01*
X142515798Y-56865733D01*
X142514840Y-56865221D01*
X142302292Y-56800746D01*
X142136635Y-56784430D01*
X141327365Y-56784430D01*
X141161708Y-56800746D01*
X140949160Y-56865221D01*
X140753275Y-56969924D01*
X140581580Y-57110830D01*
X140440674Y-57282525D01*
X140335971Y-57478410D01*
X140271496Y-57690958D01*
X140249725Y-57912000D01*
X129934057Y-57912000D01*
X130028817Y-57873499D01*
X130256628Y-57723502D01*
X130450798Y-57531943D01*
X130603866Y-57306185D01*
X130709950Y-57054902D01*
X130724133Y-56983275D01*
X130601479Y-56769000D01*
X129159000Y-56769000D01*
X128905000Y-56769000D01*
X127462521Y-56769000D01*
X127339867Y-56983275D01*
X124862000Y-56983275D01*
X124862000Y-56300725D01*
X127339867Y-56300725D01*
X127462521Y-56515000D01*
X128905000Y-56515000D01*
X128905000Y-55256430D01*
X129159000Y-55256430D01*
X129159000Y-56515000D01*
X130601479Y-56515000D01*
X130724133Y-56300725D01*
X130709950Y-56229098D01*
X130603866Y-55977815D01*
X130450798Y-55752057D01*
X130256628Y-55560498D01*
X130028817Y-55410501D01*
X129776121Y-55307830D01*
X129508250Y-55256430D01*
X129159000Y-55256430D01*
X128905000Y-55256430D01*
X128555750Y-55256430D01*
X128287879Y-55307830D01*
X128035183Y-55410501D01*
X127807372Y-55560498D01*
X127613202Y-55752057D01*
X127460134Y-55977815D01*
X127354050Y-56229098D01*
X127339867Y-56300725D01*
X124862000Y-56300725D01*
X124862000Y-54102000D01*
X127549725Y-54102000D01*
X127571496Y-54323042D01*
X127635971Y-54535590D01*
X127740674Y-54731475D01*
X127881580Y-54903170D01*
X128053275Y-55044076D01*
X128249160Y-55148779D01*
X128461708Y-55213254D01*
X128627365Y-55229570D01*
X129436635Y-55229570D01*
X129602292Y-55213254D01*
X129814840Y-55148779D01*
X130010725Y-55044076D01*
X130182420Y-54903170D01*
X130323326Y-54731475D01*
X130428029Y-54535590D01*
X130492504Y-54323042D01*
X130514275Y-54102000D01*
X142789725Y-54102000D01*
X142811496Y-54323042D01*
X142875971Y-54535590D01*
X142980674Y-54731475D01*
X143121580Y-54903170D01*
X143293275Y-55044076D01*
X143489160Y-55148779D01*
X143701708Y-55213254D01*
X143867365Y-55229570D01*
X144676635Y-55229570D01*
X144842292Y-55213254D01*
X145054840Y-55148779D01*
X145250725Y-55044076D01*
X145422420Y-54903170D01*
X145563326Y-54731475D01*
X145668029Y-54535590D01*
X145732213Y-54324000D01*
X146635928Y-54324000D01*
X146648188Y-54448482D01*
X146684498Y-54568180D01*
X146743463Y-54678494D01*
X146822815Y-54775185D01*
X146919506Y-54854537D01*
X147029820Y-54913502D01*
X147149518Y-54949812D01*
X147274000Y-54962072D01*
X148988250Y-54959000D01*
X149147000Y-54800250D01*
X149147000Y-52451000D01*
X149401000Y-52451000D01*
X149401000Y-54800250D01*
X149559750Y-54959000D01*
X151274000Y-54962072D01*
X151398482Y-54949812D01*
X151518180Y-54913502D01*
X151628494Y-54854537D01*
X151725185Y-54775185D01*
X151804537Y-54678494D01*
X151863502Y-54568180D01*
X151899812Y-54448482D01*
X151912072Y-54324000D01*
X151909000Y-52609750D01*
X151750250Y-52451000D01*
X149401000Y-52451000D01*
X149147000Y-52451000D01*
X146797750Y-52451000D01*
X146639000Y-52609750D01*
X146635928Y-54324000D01*
X145732213Y-54324000D01*
X145732504Y-54323042D01*
X145754275Y-54102000D01*
X145732504Y-53880958D01*
X145668029Y-53668410D01*
X145563326Y-53472525D01*
X145422420Y-53300830D01*
X145250725Y-53159924D01*
X145054840Y-53055221D01*
X144842292Y-52990746D01*
X144676635Y-52974430D01*
X143867365Y-52974430D01*
X143701708Y-52990746D01*
X143489160Y-53055221D01*
X143293275Y-53159924D01*
X143121580Y-53300830D01*
X142980674Y-53472525D01*
X142875971Y-53668410D01*
X142811496Y-53880958D01*
X142789725Y-54102000D01*
X130514275Y-54102000D01*
X130492504Y-53880958D01*
X130428029Y-53668410D01*
X130323326Y-53472525D01*
X130182420Y-53300830D01*
X130010725Y-53159924D01*
X129814840Y-53055221D01*
X129602292Y-52990746D01*
X129436635Y-52974430D01*
X128627365Y-52974430D01*
X128461708Y-52990746D01*
X128249160Y-53055221D01*
X128053275Y-53159924D01*
X127881580Y-53300830D01*
X127740674Y-53472525D01*
X127635971Y-53668410D01*
X127571496Y-53880958D01*
X127549725Y-54102000D01*
X124862000Y-54102000D01*
X124862000Y-50712000D01*
X125009176Y-50712000D01*
X125009176Y-52412000D01*
X125016455Y-52485905D01*
X125038012Y-52556970D01*
X125073019Y-52622463D01*
X125120131Y-52679869D01*
X125177537Y-52726981D01*
X125243030Y-52761988D01*
X125314095Y-52783545D01*
X125388000Y-52790824D01*
X127088000Y-52790824D01*
X127161905Y-52783545D01*
X127232970Y-52761988D01*
X127298463Y-52726981D01*
X127355869Y-52679869D01*
X127402981Y-52622463D01*
X127437988Y-52556970D01*
X127459545Y-52485905D01*
X127466824Y-52412000D01*
X127466824Y-51562000D01*
X127549725Y-51562000D01*
X127571496Y-51783042D01*
X127635971Y-51995590D01*
X127740674Y-52191475D01*
X127881580Y-52363170D01*
X128053275Y-52504076D01*
X128249160Y-52608779D01*
X128461708Y-52673254D01*
X128627365Y-52689570D01*
X129436635Y-52689570D01*
X129602292Y-52673254D01*
X129814840Y-52608779D01*
X130010725Y-52504076D01*
X130182420Y-52363170D01*
X130323326Y-52191475D01*
X130428029Y-51995590D01*
X130456032Y-51903275D01*
X142579867Y-51903275D01*
X142594050Y-51974902D01*
X142700134Y-52226185D01*
X142853202Y-52451943D01*
X143047372Y-52643502D01*
X143275183Y-52793499D01*
X143527879Y-52896170D01*
X143795750Y-52947570D01*
X144145000Y-52947570D01*
X144145000Y-51689000D01*
X144399000Y-51689000D01*
X144399000Y-52947570D01*
X144748250Y-52947570D01*
X145016121Y-52896170D01*
X145268817Y-52793499D01*
X145496628Y-52643502D01*
X145690798Y-52451943D01*
X145843866Y-52226185D01*
X145949950Y-51974902D01*
X145964133Y-51903275D01*
X145841479Y-51689000D01*
X144399000Y-51689000D01*
X144145000Y-51689000D01*
X142702521Y-51689000D01*
X142579867Y-51903275D01*
X130456032Y-51903275D01*
X130492504Y-51783042D01*
X130514275Y-51562000D01*
X130492504Y-51340958D01*
X130456033Y-51220725D01*
X142579867Y-51220725D01*
X142702521Y-51435000D01*
X144145000Y-51435000D01*
X144145000Y-50176430D01*
X144399000Y-50176430D01*
X144399000Y-51435000D01*
X145841479Y-51435000D01*
X145964133Y-51220725D01*
X145949950Y-51149098D01*
X145843866Y-50897815D01*
X145690798Y-50672057D01*
X145496628Y-50480498D01*
X145268817Y-50330501D01*
X145252817Y-50324000D01*
X146635928Y-50324000D01*
X146639000Y-52038250D01*
X146797750Y-52197000D01*
X149147000Y-52197000D01*
X149147000Y-49847750D01*
X149401000Y-49847750D01*
X149401000Y-52197000D01*
X151750250Y-52197000D01*
X151909000Y-52038250D01*
X151912072Y-50324000D01*
X151899812Y-50199518D01*
X151863502Y-50079820D01*
X151804537Y-49969506D01*
X151725185Y-49872815D01*
X151628494Y-49793463D01*
X151518180Y-49734498D01*
X151398482Y-49698188D01*
X151274000Y-49685928D01*
X149559750Y-49689000D01*
X149401000Y-49847750D01*
X149147000Y-49847750D01*
X148988250Y-49689000D01*
X147274000Y-49685928D01*
X147149518Y-49698188D01*
X147029820Y-49734498D01*
X146919506Y-49793463D01*
X146822815Y-49872815D01*
X146743463Y-49969506D01*
X146684498Y-50079820D01*
X146648188Y-50199518D01*
X146635928Y-50324000D01*
X145252817Y-50324000D01*
X145016121Y-50227830D01*
X144748250Y-50176430D01*
X144399000Y-50176430D01*
X144145000Y-50176430D01*
X143795750Y-50176430D01*
X143527879Y-50227830D01*
X143275183Y-50330501D01*
X143047372Y-50480498D01*
X142853202Y-50672057D01*
X142700134Y-50897815D01*
X142594050Y-51149098D01*
X142579867Y-51220725D01*
X130456033Y-51220725D01*
X130428029Y-51128410D01*
X130323326Y-50932525D01*
X130182420Y-50760830D01*
X130010725Y-50619924D01*
X129814840Y-50515221D01*
X129602292Y-50450746D01*
X129436635Y-50434430D01*
X128627365Y-50434430D01*
X128461708Y-50450746D01*
X128249160Y-50515221D01*
X128053275Y-50619924D01*
X127881580Y-50760830D01*
X127740674Y-50932525D01*
X127635971Y-51128410D01*
X127571496Y-51340958D01*
X127549725Y-51562000D01*
X127466824Y-51562000D01*
X127466824Y-50712000D01*
X127459545Y-50638095D01*
X127437988Y-50567030D01*
X127402981Y-50501537D01*
X127355869Y-50444131D01*
X127298463Y-50397019D01*
X127232970Y-50362012D01*
X127161905Y-50340455D01*
X127088000Y-50333176D01*
X125388000Y-50333176D01*
X125314095Y-50340455D01*
X125243030Y-50362012D01*
X125177537Y-50397019D01*
X125120131Y-50444131D01*
X125073019Y-50501537D01*
X125038012Y-50567030D01*
X125016455Y-50638095D01*
X125009176Y-50712000D01*
X124862000Y-50712000D01*
X124862000Y-48172000D01*
X125009176Y-48172000D01*
X125009176Y-49872000D01*
X125016455Y-49945905D01*
X125038012Y-50016970D01*
X125073019Y-50082463D01*
X125120131Y-50139869D01*
X125177537Y-50186981D01*
X125243030Y-50221988D01*
X125314095Y-50243545D01*
X125388000Y-50250824D01*
X127088000Y-50250824D01*
X127161905Y-50243545D01*
X127232970Y-50221988D01*
X127298463Y-50186981D01*
X127355869Y-50139869D01*
X127402981Y-50082463D01*
X127437988Y-50016970D01*
X127459545Y-49945905D01*
X127466824Y-49872000D01*
X127466824Y-49022000D01*
X127549725Y-49022000D01*
X127571496Y-49243042D01*
X127635971Y-49455590D01*
X127740674Y-49651475D01*
X127881580Y-49823170D01*
X128053275Y-49964076D01*
X128249160Y-50068779D01*
X128461708Y-50133254D01*
X128627365Y-50149570D01*
X129436635Y-50149570D01*
X129602292Y-50133254D01*
X129814840Y-50068779D01*
X130010725Y-49964076D01*
X130182420Y-49823170D01*
X130323326Y-49651475D01*
X130428029Y-49455590D01*
X130492504Y-49243042D01*
X130514275Y-49022000D01*
X130492504Y-48800958D01*
X130428029Y-48588410D01*
X130323326Y-48392525D01*
X130182420Y-48220830D01*
X130010725Y-48079924D01*
X129814840Y-47975221D01*
X129602292Y-47910746D01*
X129436635Y-47894430D01*
X128627365Y-47894430D01*
X128461708Y-47910746D01*
X128249160Y-47975221D01*
X128053275Y-48079924D01*
X127881580Y-48220830D01*
X127740674Y-48392525D01*
X127635971Y-48588410D01*
X127571496Y-48800958D01*
X127549725Y-49022000D01*
X127466824Y-49022000D01*
X127466824Y-48172000D01*
X127459545Y-48098095D01*
X127437988Y-48027030D01*
X127402981Y-47961537D01*
X127355869Y-47904131D01*
X127298463Y-47857019D01*
X127232970Y-47822012D01*
X127161905Y-47800455D01*
X127088000Y-47793176D01*
X125388000Y-47793176D01*
X125314095Y-47800455D01*
X125243030Y-47822012D01*
X125177537Y-47857019D01*
X125120131Y-47904131D01*
X125073019Y-47961537D01*
X125038012Y-48027030D01*
X125016455Y-48098095D01*
X125009176Y-48172000D01*
X124862000Y-48172000D01*
X124862000Y-39937282D01*
X126039000Y-39937282D01*
X126039000Y-40326718D01*
X126114975Y-40708670D01*
X126264005Y-41068461D01*
X126480364Y-41392264D01*
X126755736Y-41667636D01*
X127079539Y-41883995D01*
X127439330Y-42033025D01*
X127821282Y-42109000D01*
X128210718Y-42109000D01*
X128592670Y-42033025D01*
X128952461Y-41883995D01*
X129276264Y-41667636D01*
X129551636Y-41392264D01*
X129767995Y-41068461D01*
X129793265Y-41007453D01*
X133955000Y-41007453D01*
X133955000Y-41288547D01*
X134009838Y-41564241D01*
X134117409Y-41823938D01*
X134273576Y-42057660D01*
X134472340Y-42256424D01*
X134706062Y-42412591D01*
X134965759Y-42520162D01*
X135241453Y-42575000D01*
X135522547Y-42575000D01*
X135798241Y-42520162D01*
X136057938Y-42412591D01*
X136291660Y-42256424D01*
X136490424Y-42057660D01*
X136493176Y-42053541D01*
X136493176Y-42198000D01*
X136500455Y-42271905D01*
X136522012Y-42342970D01*
X136557019Y-42408463D01*
X136604131Y-42465869D01*
X136661537Y-42512981D01*
X136727030Y-42547988D01*
X136798095Y-42569545D01*
X136872000Y-42576824D01*
X138972000Y-42576824D01*
X139045905Y-42569545D01*
X139116970Y-42547988D01*
X139182463Y-42512981D01*
X139239869Y-42465869D01*
X139286981Y-42408463D01*
X139321988Y-42342970D01*
X139343545Y-42271905D01*
X139350824Y-42198000D01*
X139350824Y-40535178D01*
X139611003Y-40274999D01*
X141615081Y-40274999D01*
X141483409Y-40472062D01*
X141375838Y-40731759D01*
X141321000Y-41007453D01*
X141321000Y-41288547D01*
X141375838Y-41564241D01*
X141483409Y-41823938D01*
X141639576Y-42057660D01*
X141838340Y-42256424D01*
X142072062Y-42412591D01*
X142331759Y-42520162D01*
X142607453Y-42575000D01*
X142888547Y-42575000D01*
X143164241Y-42520162D01*
X143423938Y-42412591D01*
X143657660Y-42256424D01*
X143856424Y-42057660D01*
X143859176Y-42053541D01*
X143859176Y-42198000D01*
X143866455Y-42271905D01*
X143888012Y-42342970D01*
X143923019Y-42408463D01*
X143970131Y-42465869D01*
X144027537Y-42512981D01*
X144093030Y-42547988D01*
X144164095Y-42569545D01*
X144238000Y-42576824D01*
X144711001Y-42576824D01*
X144711000Y-47766998D01*
X144583568Y-47894430D01*
X143867365Y-47894430D01*
X143701708Y-47910746D01*
X143489160Y-47975221D01*
X143293275Y-48079924D01*
X143121580Y-48220830D01*
X142980674Y-48392525D01*
X142875971Y-48588410D01*
X142811496Y-48800958D01*
X142789725Y-49022000D01*
X142811496Y-49243042D01*
X142875971Y-49455590D01*
X142980674Y-49651475D01*
X143121580Y-49823170D01*
X143293275Y-49964076D01*
X143489160Y-50068779D01*
X143701708Y-50133254D01*
X143867365Y-50149570D01*
X144676635Y-50149570D01*
X144842292Y-50133254D01*
X145054840Y-50068779D01*
X145250725Y-49964076D01*
X145422420Y-49823170D01*
X145563326Y-49651475D01*
X145668029Y-49455590D01*
X145732504Y-49243042D01*
X145754275Y-49022000D01*
X145732504Y-48800958D01*
X145668029Y-48588410D01*
X145617021Y-48492981D01*
X145675968Y-48434034D01*
X145697974Y-48415974D01*
X145717219Y-48392525D01*
X145726448Y-48381278D01*
X145770079Y-48328115D01*
X145823657Y-48227876D01*
X145840607Y-48172000D01*
X145856651Y-48119112D01*
X145867790Y-48006000D01*
X145865000Y-47977669D01*
X145865000Y-46975866D01*
X146011472Y-47005000D01*
X146164528Y-47005000D01*
X146314643Y-46975141D01*
X146456048Y-46916569D01*
X146583309Y-46831536D01*
X146691536Y-46723309D01*
X146776569Y-46596048D01*
X146826295Y-46476000D01*
X147982182Y-46476000D01*
X147989639Y-46551708D01*
X148025067Y-46668499D01*
X148082599Y-46776134D01*
X148160024Y-46870476D01*
X148254366Y-46947901D01*
X148362001Y-47005433D01*
X148478792Y-47040861D01*
X148600250Y-47052824D01*
X149087750Y-47052824D01*
X149209208Y-47040861D01*
X149325999Y-47005433D01*
X149433634Y-46947901D01*
X149527976Y-46870476D01*
X149605401Y-46776134D01*
X149662933Y-46668499D01*
X149698361Y-46551708D01*
X149710324Y-46430250D01*
X149710324Y-45517750D01*
X149852676Y-45517750D01*
X149852676Y-46430250D01*
X149864639Y-46551708D01*
X149900067Y-46668499D01*
X149957599Y-46776134D01*
X150035024Y-46870476D01*
X150129366Y-46947901D01*
X150237001Y-47005433D01*
X150353792Y-47040861D01*
X150475250Y-47052824D01*
X150962750Y-47052824D01*
X151084208Y-47040861D01*
X151200999Y-47005433D01*
X151308634Y-46947901D01*
X151402976Y-46870476D01*
X151480401Y-46776134D01*
X151537933Y-46668499D01*
X151559500Y-46597402D01*
X151581067Y-46668499D01*
X151638599Y-46776134D01*
X151716024Y-46870476D01*
X151810366Y-46947901D01*
X151918001Y-47005433D01*
X152034792Y-47040861D01*
X152156250Y-47052824D01*
X152643750Y-47052824D01*
X152765208Y-47040861D01*
X152881999Y-47005433D01*
X152989634Y-46947901D01*
X153083976Y-46870476D01*
X153159692Y-46778216D01*
X153161688Y-46798482D01*
X153197998Y-46918180D01*
X153256963Y-47028494D01*
X153336315Y-47125185D01*
X153433006Y-47204537D01*
X153543320Y-47263502D01*
X153663018Y-47299812D01*
X153787500Y-47312072D01*
X153989250Y-47309000D01*
X154148000Y-47150250D01*
X154148000Y-46101000D01*
X154402000Y-46101000D01*
X154402000Y-47150250D01*
X154560750Y-47309000D01*
X154762500Y-47312072D01*
X154886982Y-47299812D01*
X155006680Y-47263502D01*
X155116994Y-47204537D01*
X155213685Y-47125185D01*
X155293037Y-47028494D01*
X155352002Y-46918180D01*
X155388312Y-46798482D01*
X155400572Y-46674000D01*
X155397500Y-46259750D01*
X155238750Y-46101000D01*
X154402000Y-46101000D01*
X154148000Y-46101000D01*
X154128000Y-46101000D01*
X154128000Y-45847000D01*
X154148000Y-45847000D01*
X154148000Y-44797750D01*
X154402000Y-44797750D01*
X154402000Y-45847000D01*
X155238750Y-45847000D01*
X155397500Y-45688250D01*
X155400572Y-45274000D01*
X155388312Y-45149518D01*
X155352002Y-45029820D01*
X155293037Y-44919506D01*
X155213685Y-44822815D01*
X155116994Y-44743463D01*
X155006680Y-44684498D01*
X154886982Y-44648188D01*
X154762500Y-44635928D01*
X154560750Y-44639000D01*
X154402000Y-44797750D01*
X154148000Y-44797750D01*
X153989250Y-44639000D01*
X153787500Y-44635928D01*
X153663018Y-44648188D01*
X153543320Y-44684498D01*
X153433006Y-44743463D01*
X153336315Y-44822815D01*
X153256963Y-44919506D01*
X153197998Y-45029820D01*
X153161688Y-45149518D01*
X153159692Y-45169784D01*
X153083976Y-45077524D01*
X152989634Y-45000099D01*
X152881999Y-44942567D01*
X152765208Y-44907139D01*
X152643750Y-44895176D01*
X152156250Y-44895176D01*
X152034792Y-44907139D01*
X151918001Y-44942567D01*
X151810366Y-45000099D01*
X151716024Y-45077524D01*
X151638599Y-45171866D01*
X151581067Y-45279501D01*
X151559500Y-45350598D01*
X151537933Y-45279501D01*
X151480401Y-45171866D01*
X151402976Y-45077524D01*
X151308634Y-45000099D01*
X151200999Y-44942567D01*
X151084208Y-44907139D01*
X150962750Y-44895176D01*
X150475250Y-44895176D01*
X150353792Y-44907139D01*
X150237001Y-44942567D01*
X150129366Y-45000099D01*
X150035024Y-45077524D01*
X149957599Y-45171866D01*
X149900067Y-45279501D01*
X149864639Y-45396292D01*
X149852676Y-45517750D01*
X149710324Y-45517750D01*
X149698361Y-45396292D01*
X149662933Y-45279501D01*
X149605401Y-45171866D01*
X149527976Y-45077524D01*
X149433634Y-45000099D01*
X149325999Y-44942567D01*
X149209208Y-44907139D01*
X149087750Y-44895176D01*
X148600250Y-44895176D01*
X148478792Y-44907139D01*
X148362001Y-44942567D01*
X148254366Y-45000099D01*
X148160024Y-45077524D01*
X148082599Y-45171866D01*
X148025067Y-45279501D01*
X147989639Y-45396292D01*
X147982182Y-45472000D01*
X146366642Y-45472000D01*
X146341999Y-45469573D01*
X146317356Y-45472000D01*
X146317347Y-45472000D01*
X146285750Y-45475112D01*
X146164528Y-45451000D01*
X146011472Y-45451000D01*
X145865000Y-45480134D01*
X145865000Y-42576824D01*
X146338000Y-42576824D01*
X146411905Y-42569545D01*
X146482970Y-42547988D01*
X146548463Y-42512981D01*
X146605869Y-42465869D01*
X146652981Y-42408463D01*
X146687988Y-42342970D01*
X146709545Y-42271905D01*
X146716824Y-42198000D01*
X146716824Y-41725000D01*
X149278906Y-41725000D01*
X149280647Y-41729202D01*
X149414927Y-41930167D01*
X149585833Y-42101073D01*
X149786798Y-42235353D01*
X150010097Y-42327847D01*
X150247151Y-42375000D01*
X150488849Y-42375000D01*
X150725903Y-42327847D01*
X150949202Y-42235353D01*
X151150167Y-42101073D01*
X151321073Y-41930167D01*
X151421112Y-41780447D01*
X151419928Y-41998000D01*
X151432188Y-42122482D01*
X151468498Y-42242180D01*
X151527463Y-42352494D01*
X151606815Y-42449185D01*
X151703506Y-42528537D01*
X151813820Y-42587502D01*
X151933518Y-42623812D01*
X152058000Y-42636072D01*
X152622250Y-42633000D01*
X152781000Y-42474250D01*
X152781000Y-41275000D01*
X153035000Y-41275000D01*
X153035000Y-42474250D01*
X153193750Y-42633000D01*
X153758000Y-42636072D01*
X153882482Y-42623812D01*
X154002180Y-42587502D01*
X154112494Y-42528537D01*
X154209185Y-42449185D01*
X154288537Y-42352494D01*
X154347502Y-42242180D01*
X154383812Y-42122482D01*
X154396072Y-41998000D01*
X154393000Y-41433750D01*
X154234250Y-41275000D01*
X153035000Y-41275000D01*
X152781000Y-41275000D01*
X152761000Y-41275000D01*
X152761000Y-41021000D01*
X152781000Y-41021000D01*
X152781000Y-41001000D01*
X153035000Y-41001000D01*
X153035000Y-41021000D01*
X154234250Y-41021000D01*
X154393000Y-40862250D01*
X154396072Y-40298000D01*
X154383812Y-40173518D01*
X154347502Y-40053820D01*
X154290405Y-39947000D01*
X154700999Y-39947000D01*
X159697000Y-44943002D01*
X159697001Y-49945176D01*
X158274000Y-49945176D01*
X158200095Y-49952455D01*
X158129030Y-49974012D01*
X158063537Y-50009019D01*
X158006131Y-50056131D01*
X157959019Y-50113537D01*
X157924012Y-50179030D01*
X157902455Y-50250095D01*
X157895176Y-50324000D01*
X157895176Y-54324000D01*
X157902455Y-54397905D01*
X157924012Y-54468970D01*
X157959019Y-54534463D01*
X158006131Y-54591869D01*
X158063537Y-54638981D01*
X158129030Y-54673988D01*
X158200095Y-54695545D01*
X158274000Y-54702824D01*
X162274000Y-54702824D01*
X162347905Y-54695545D01*
X162418970Y-54673988D01*
X162484463Y-54638981D01*
X162541869Y-54591869D01*
X162588981Y-54534463D01*
X162623988Y-54468970D01*
X162645545Y-54397905D01*
X162652824Y-54324000D01*
X162652824Y-50324000D01*
X162645545Y-50250095D01*
X162623988Y-50179030D01*
X162588981Y-50113537D01*
X162541869Y-50056131D01*
X162484463Y-50009019D01*
X162418970Y-49974012D01*
X162347905Y-49952455D01*
X162274000Y-49945176D01*
X160851000Y-49945176D01*
X160851000Y-44732328D01*
X160853790Y-44703999D01*
X160851000Y-44675670D01*
X160851000Y-44675664D01*
X160842650Y-44590888D01*
X160809657Y-44482124D01*
X160756079Y-44381885D01*
X160683974Y-44294026D01*
X160661969Y-44275967D01*
X156323284Y-39937282D01*
X158551000Y-39937282D01*
X158551000Y-40326718D01*
X158626975Y-40708670D01*
X158776005Y-41068461D01*
X158992364Y-41392264D01*
X159267736Y-41667636D01*
X159591539Y-41883995D01*
X159951330Y-42033025D01*
X160333282Y-42109000D01*
X160722718Y-42109000D01*
X161104670Y-42033025D01*
X161464461Y-41883995D01*
X161788264Y-41667636D01*
X162063636Y-41392264D01*
X162279995Y-41068461D01*
X162429025Y-40708670D01*
X162505000Y-40326718D01*
X162505000Y-39937282D01*
X162429025Y-39555330D01*
X162279995Y-39195539D01*
X162063636Y-38871736D01*
X161788264Y-38596364D01*
X161464461Y-38380005D01*
X161104670Y-38230975D01*
X160722718Y-38155000D01*
X160333282Y-38155000D01*
X159951330Y-38230975D01*
X159591539Y-38380005D01*
X159267736Y-38596364D01*
X158992364Y-38871736D01*
X158776005Y-39195539D01*
X158626975Y-39555330D01*
X158551000Y-39937282D01*
X156323284Y-39937282D01*
X155368039Y-38982038D01*
X155349974Y-38960026D01*
X155262115Y-38887921D01*
X155161876Y-38834343D01*
X155097770Y-38814897D01*
X155053111Y-38801349D01*
X154998045Y-38795926D01*
X154968336Y-38793000D01*
X154968331Y-38793000D01*
X154940000Y-38790210D01*
X154911669Y-38793000D01*
X150972247Y-38793000D01*
X150943918Y-38790210D01*
X150915589Y-38793000D01*
X150915583Y-38793000D01*
X150830807Y-38801350D01*
X150722043Y-38834343D01*
X150621804Y-38887921D01*
X150533945Y-38960026D01*
X150515880Y-38982038D01*
X149980034Y-39517884D01*
X149958027Y-39535945D01*
X149939966Y-39557952D01*
X149939963Y-39557955D01*
X149917861Y-39584887D01*
X149885922Y-39623804D01*
X149832344Y-39724043D01*
X149799349Y-39832808D01*
X149788210Y-39945919D01*
X149791001Y-39974260D01*
X149791001Y-40058906D01*
X149786798Y-40060647D01*
X149585833Y-40194927D01*
X149414927Y-40365833D01*
X149280647Y-40566798D01*
X149278906Y-40571000D01*
X146716824Y-40571000D01*
X146716824Y-40098000D01*
X146709545Y-40024095D01*
X146687988Y-39953030D01*
X146652981Y-39887537D01*
X146605869Y-39830131D01*
X146548463Y-39783019D01*
X146482970Y-39748012D01*
X146411905Y-39726455D01*
X146338000Y-39719176D01*
X144675177Y-39719176D01*
X144266038Y-39310037D01*
X144247973Y-39288025D01*
X144160114Y-39215920D01*
X144059875Y-39162342D01*
X143995769Y-39142896D01*
X143951110Y-39129348D01*
X143896044Y-39123925D01*
X143866335Y-39120999D01*
X143866330Y-39120999D01*
X143837999Y-39118209D01*
X143809668Y-39120999D01*
X139400329Y-39120999D01*
X139372000Y-39118209D01*
X139343671Y-39120999D01*
X139343665Y-39120999D01*
X139258889Y-39129349D01*
X139150125Y-39162342D01*
X139049886Y-39215920D01*
X139003981Y-39253594D01*
X138984036Y-39269962D01*
X138984034Y-39269964D01*
X138962027Y-39288025D01*
X138943966Y-39310032D01*
X138534822Y-39719176D01*
X136872000Y-39719176D01*
X136798095Y-39726455D01*
X136727030Y-39748012D01*
X136661537Y-39783019D01*
X136604131Y-39830131D01*
X136557019Y-39887537D01*
X136522012Y-39953030D01*
X136500455Y-40024095D01*
X136493176Y-40098000D01*
X136493176Y-40242459D01*
X136490424Y-40238340D01*
X136291660Y-40039576D01*
X136057938Y-39883409D01*
X135798241Y-39775838D01*
X135522547Y-39721000D01*
X135241453Y-39721000D01*
X134965759Y-39775838D01*
X134706062Y-39883409D01*
X134472340Y-40039576D01*
X134273576Y-40238340D01*
X134117409Y-40472062D01*
X134009838Y-40731759D01*
X133955000Y-41007453D01*
X129793265Y-41007453D01*
X129917025Y-40708670D01*
X129993000Y-40326718D01*
X129993000Y-39937282D01*
X129917025Y-39555330D01*
X129767995Y-39195539D01*
X129551636Y-38871736D01*
X129276264Y-38596364D01*
X128952461Y-38380005D01*
X128592670Y-38230975D01*
X128210718Y-38155000D01*
X127821282Y-38155000D01*
X127439330Y-38230975D01*
X127079539Y-38380005D01*
X126755736Y-38596364D01*
X126480364Y-38871736D01*
X126264005Y-39195539D01*
X126114975Y-39555330D01*
X126039000Y-39937282D01*
X124862000Y-39937282D01*
X124862000Y-36978000D01*
X163682001Y-36978000D01*
X163682000Y-101198000D01*
G37*
X163682000Y-101198000D02*
X124862000Y-101198000D01*
X124862000Y-97849282D01*
X126039000Y-97849282D01*
X126039000Y-98238718D01*
X126114975Y-98620670D01*
X126264005Y-98980461D01*
X126480364Y-99304264D01*
X126755736Y-99579636D01*
X127079539Y-99795995D01*
X127439330Y-99945025D01*
X127821282Y-100021000D01*
X128210718Y-100021000D01*
X128592670Y-99945025D01*
X128952461Y-99795995D01*
X129276264Y-99579636D01*
X129551636Y-99304264D01*
X129767995Y-98980461D01*
X129917025Y-98620670D01*
X129993000Y-98238718D01*
X129993000Y-98185818D01*
X138053000Y-98185818D01*
X138053000Y-98410182D01*
X138096771Y-98630234D01*
X138182631Y-98837519D01*
X138307281Y-99024070D01*
X138465930Y-99182719D01*
X138652481Y-99307369D01*
X138859766Y-99393229D01*
X139079818Y-99437000D01*
X139304182Y-99437000D01*
X139524234Y-99393229D01*
X139731519Y-99307369D01*
X139918070Y-99182719D01*
X140076719Y-99024070D01*
X140201369Y-98837519D01*
X140287229Y-98630234D01*
X140331000Y-98410182D01*
X140331000Y-98185818D01*
X140287229Y-97965766D01*
X140238980Y-97849282D01*
X158551000Y-97849282D01*
X158551000Y-98238718D01*
X158626975Y-98620670D01*
X158776005Y-98980461D01*
X158992364Y-99304264D01*
X159267736Y-99579636D01*
X159591539Y-99795995D01*
X159951330Y-99945025D01*
X160333282Y-100021000D01*
X160722718Y-100021000D01*
X161104670Y-99945025D01*
X161464461Y-99795995D01*
X161788264Y-99579636D01*
X162063636Y-99304264D01*
X162279995Y-98980461D01*
X162429025Y-98620670D01*
X162505000Y-98238718D01*
X162505000Y-97849282D01*
X162429025Y-97467330D01*
X162279995Y-97107539D01*
X162063636Y-96783736D01*
X161788264Y-96508364D01*
X161464461Y-96292005D01*
X161104670Y-96142975D01*
X160722718Y-96067000D01*
X160333282Y-96067000D01*
X159951330Y-96142975D01*
X159591539Y-96292005D01*
X159267736Y-96508364D01*
X158992364Y-96783736D01*
X158776005Y-97107539D01*
X158626975Y-97467330D01*
X158551000Y-97849282D01*
X140238980Y-97849282D01*
X140201369Y-97758481D01*
X140076719Y-97571930D01*
X139918070Y-97413281D01*
X139731519Y-97288631D01*
X139524234Y-97202771D01*
X139304182Y-97159000D01*
X139079818Y-97159000D01*
X138859766Y-97202771D01*
X138652481Y-97288631D01*
X138465930Y-97413281D01*
X138307281Y-97571930D01*
X138182631Y-97758481D01*
X138096771Y-97965766D01*
X138053000Y-98185818D01*
X129993000Y-98185818D01*
X129993000Y-97849282D01*
X129917025Y-97467330D01*
X129767995Y-97107539D01*
X129551636Y-96783736D01*
X129276264Y-96508364D01*
X128952461Y-96292005D01*
X128592670Y-96142975D01*
X128210718Y-96067000D01*
X127821282Y-96067000D01*
X127439330Y-96142975D01*
X127079539Y-96292005D01*
X126755736Y-96508364D01*
X126480364Y-96783736D01*
X126264005Y-97107539D01*
X126114975Y-97467330D01*
X126039000Y-97849282D01*
X124862000Y-97849282D01*
X124862000Y-95645818D01*
X138053000Y-95645818D01*
X138053000Y-95870182D01*
X138096771Y-96090234D01*
X138182631Y-96297519D01*
X138307281Y-96484070D01*
X138465930Y-96642719D01*
X138652481Y-96767369D01*
X138859766Y-96853229D01*
X139079818Y-96897000D01*
X139304182Y-96897000D01*
X139524234Y-96853229D01*
X139731519Y-96767369D01*
X139918070Y-96642719D01*
X140076719Y-96484070D01*
X140201369Y-96297519D01*
X140287229Y-96090234D01*
X140331000Y-95870182D01*
X140331000Y-95645818D01*
X140287229Y-95425766D01*
X140201369Y-95218481D01*
X140076719Y-95031930D01*
X139918070Y-94873281D01*
X139731519Y-94748631D01*
X139524234Y-94662771D01*
X139304182Y-94619000D01*
X139079818Y-94619000D01*
X138859766Y-94662771D01*
X138652481Y-94748631D01*
X138465930Y-94873281D01*
X138307281Y-95031930D01*
X138182631Y-95218481D01*
X138096771Y-95425766D01*
X138053000Y-95645818D01*
X124862000Y-95645818D01*
X124862000Y-93105818D01*
X125607000Y-93105818D01*
X125607000Y-93330182D01*
X125650771Y-93550234D01*
X125736631Y-93757519D01*
X125861281Y-93944070D01*
X126019930Y-94102719D01*
X126206481Y-94227369D01*
X126413766Y-94313229D01*
X126633818Y-94357000D01*
X126858182Y-94357000D01*
X127078234Y-94313229D01*
X127285519Y-94227369D01*
X127472070Y-94102719D01*
X127630719Y-93944070D01*
X127755369Y-93757519D01*
X127841229Y-93550234D01*
X127885000Y-93330182D01*
X127885000Y-93105818D01*
X138053000Y-93105818D01*
X138053000Y-93330182D01*
X138096771Y-93550234D01*
X138182631Y-93757519D01*
X138307281Y-93944070D01*
X138465930Y-94102719D01*
X138652481Y-94227369D01*
X138859766Y-94313229D01*
X139079818Y-94357000D01*
X139304182Y-94357000D01*
X139524234Y-94313229D01*
X139731519Y-94227369D01*
X139918070Y-94102719D01*
X140076719Y-93944070D01*
X140201369Y-93757519D01*
X140287229Y-93550234D01*
X140331000Y-93330182D01*
X140331000Y-93105818D01*
X140287229Y-92885766D01*
X140201369Y-92678481D01*
X140076719Y-92491930D01*
X139918070Y-92333281D01*
X139731519Y-92208631D01*
X139524234Y-92122771D01*
X139304182Y-92079000D01*
X139079818Y-92079000D01*
X138859766Y-92122771D01*
X138652481Y-92208631D01*
X138465930Y-92333281D01*
X138307281Y-92491930D01*
X138182631Y-92678481D01*
X138096771Y-92885766D01*
X138053000Y-93105818D01*
X127885000Y-93105818D01*
X127841229Y-92885766D01*
X127755369Y-92678481D01*
X127630719Y-92491930D01*
X127472070Y-92333281D01*
X127285519Y-92208631D01*
X127078234Y-92122771D01*
X126858182Y-92079000D01*
X126633818Y-92079000D01*
X126413766Y-92122771D01*
X126206481Y-92208631D01*
X126019930Y-92333281D01*
X125861281Y-92491930D01*
X125736631Y-92678481D01*
X125650771Y-92885766D01*
X125607000Y-93105818D01*
X124862000Y-93105818D01*
X124862000Y-90565818D01*
X125607000Y-90565818D01*
X125607000Y-90790182D01*
X125650771Y-91010234D01*
X125736631Y-91217519D01*
X125861281Y-91404070D01*
X126019930Y-91562719D01*
X126206481Y-91687369D01*
X126413766Y-91773229D01*
X126633818Y-91817000D01*
X126858182Y-91817000D01*
X127078234Y-91773229D01*
X127285519Y-91687369D01*
X127472070Y-91562719D01*
X127630719Y-91404070D01*
X127755369Y-91217519D01*
X127841229Y-91010234D01*
X127885000Y-90790182D01*
X127885000Y-90565818D01*
X138053000Y-90565818D01*
X138053000Y-90790182D01*
X138096771Y-91010234D01*
X138182631Y-91217519D01*
X138307281Y-91404070D01*
X138465930Y-91562719D01*
X138652481Y-91687369D01*
X138859766Y-91773229D01*
X139079818Y-91817000D01*
X139304182Y-91817000D01*
X139524234Y-91773229D01*
X139731519Y-91687369D01*
X139918070Y-91562719D01*
X140076719Y-91404070D01*
X140201369Y-91217519D01*
X140287229Y-91010234D01*
X140331000Y-90790182D01*
X140331000Y-90565818D01*
X140287229Y-90345766D01*
X140269578Y-90303151D01*
X154983000Y-90303151D01*
X154983000Y-90544849D01*
X155030153Y-90781903D01*
X155122647Y-91005202D01*
X155256927Y-91206167D01*
X155427833Y-91377073D01*
X155628798Y-91511353D01*
X155852097Y-91603847D01*
X156089151Y-91651000D01*
X156330849Y-91651000D01*
X156567903Y-91603847D01*
X156791202Y-91511353D01*
X156992167Y-91377073D01*
X157163073Y-91206167D01*
X157297353Y-91005202D01*
X157389847Y-90781903D01*
X157437000Y-90544849D01*
X157437000Y-90303151D01*
X157389847Y-90066097D01*
X157297353Y-89842798D01*
X157163073Y-89641833D01*
X156992167Y-89470927D01*
X156791202Y-89336647D01*
X156567903Y-89244153D01*
X156330849Y-89197000D01*
X156089151Y-89197000D01*
X155852097Y-89244153D01*
X155628798Y-89336647D01*
X155427833Y-89470927D01*
X155256927Y-89641833D01*
X155122647Y-89842798D01*
X155030153Y-90066097D01*
X154983000Y-90303151D01*
X140269578Y-90303151D01*
X140201369Y-90138481D01*
X140076719Y-89951930D01*
X139918070Y-89793281D01*
X139731519Y-89668631D01*
X139524234Y-89582771D01*
X139304182Y-89539000D01*
X139079818Y-89539000D01*
X138859766Y-89582771D01*
X138652481Y-89668631D01*
X138465930Y-89793281D01*
X138307281Y-89951930D01*
X138182631Y-90138481D01*
X138096771Y-90345766D01*
X138053000Y-90565818D01*
X127885000Y-90565818D01*
X127841229Y-90345766D01*
X127755369Y-90138481D01*
X127630719Y-89951930D01*
X127472070Y-89793281D01*
X127285519Y-89668631D01*
X127078234Y-89582771D01*
X126858182Y-89539000D01*
X126633818Y-89539000D01*
X126413766Y-89582771D01*
X126206481Y-89668631D01*
X126019930Y-89793281D01*
X125861281Y-89951930D01*
X125736631Y-90138481D01*
X125650771Y-90345766D01*
X125607000Y-90565818D01*
X124862000Y-90565818D01*
X124862000Y-88025818D01*
X125607000Y-88025818D01*
X125607000Y-88250182D01*
X125650771Y-88470234D01*
X125736631Y-88677519D01*
X125861281Y-88864070D01*
X126019930Y-89022719D01*
X126206481Y-89147369D01*
X126413766Y-89233229D01*
X126633818Y-89277000D01*
X126858182Y-89277000D01*
X127078234Y-89233229D01*
X127285519Y-89147369D01*
X127472070Y-89022719D01*
X127630719Y-88864070D01*
X127755369Y-88677519D01*
X127770910Y-88640000D01*
X138167090Y-88640000D01*
X138182631Y-88677519D01*
X138307281Y-88864070D01*
X138465930Y-89022719D01*
X138652481Y-89147369D01*
X138859766Y-89233229D01*
X139079818Y-89277000D01*
X139304182Y-89277000D01*
X139524234Y-89233229D01*
X139731519Y-89147369D01*
X139918070Y-89022719D01*
X140076719Y-88864070D01*
X140201369Y-88677519D01*
X140287229Y-88470234D01*
X140331000Y-88250182D01*
X140331000Y-88025818D01*
X140287229Y-87805766D01*
X140201369Y-87598481D01*
X140076719Y-87411930D01*
X139918070Y-87253281D01*
X139731519Y-87128631D01*
X139524234Y-87042771D01*
X139304182Y-86999000D01*
X139079818Y-86999000D01*
X138859766Y-87042771D01*
X138652481Y-87128631D01*
X138465930Y-87253281D01*
X138307281Y-87411930D01*
X138182631Y-87598481D01*
X138167090Y-87636000D01*
X127770910Y-87636000D01*
X127755369Y-87598481D01*
X127630719Y-87411930D01*
X127472070Y-87253281D01*
X127285519Y-87128631D01*
X127078234Y-87042771D01*
X126858182Y-86999000D01*
X126633818Y-86999000D01*
X126413766Y-87042771D01*
X126206481Y-87128631D01*
X126019930Y-87253281D01*
X125861281Y-87411930D01*
X125736631Y-87598481D01*
X125650771Y-87805766D01*
X125607000Y-88025818D01*
X124862000Y-88025818D01*
X124862000Y-85485818D01*
X125607000Y-85485818D01*
X125607000Y-85710182D01*
X125650771Y-85930234D01*
X125736631Y-86137519D01*
X125861281Y-86324070D01*
X126019930Y-86482719D01*
X126206481Y-86607369D01*
X126413766Y-86693229D01*
X126633818Y-86737000D01*
X126858182Y-86737000D01*
X127078234Y-86693229D01*
X127285519Y-86607369D01*
X127472070Y-86482719D01*
X127630719Y-86324070D01*
X127755369Y-86137519D01*
X127770910Y-86100000D01*
X138167090Y-86100000D01*
X138182631Y-86137519D01*
X138307281Y-86324070D01*
X138465930Y-86482719D01*
X138652481Y-86607369D01*
X138859766Y-86693229D01*
X139079818Y-86737000D01*
X139304182Y-86737000D01*
X139524234Y-86693229D01*
X139731519Y-86607369D01*
X139918070Y-86482719D01*
X140076719Y-86324070D01*
X140201369Y-86137519D01*
X140264481Y-85985151D01*
X154983000Y-85985151D01*
X154983000Y-86226849D01*
X155030153Y-86463903D01*
X155122647Y-86687202D01*
X155256927Y-86888167D01*
X155427833Y-87059073D01*
X155628798Y-87193353D01*
X155852097Y-87285847D01*
X156089151Y-87333000D01*
X156330849Y-87333000D01*
X156567903Y-87285847D01*
X156791202Y-87193353D01*
X156992167Y-87059073D01*
X157163073Y-86888167D01*
X157297353Y-86687202D01*
X157389847Y-86463903D01*
X157437000Y-86226849D01*
X157437000Y-85985151D01*
X157389847Y-85748097D01*
X157297353Y-85524798D01*
X157163073Y-85323833D01*
X156992167Y-85152927D01*
X156791202Y-85018647D01*
X156567903Y-84926153D01*
X156330849Y-84879000D01*
X156089151Y-84879000D01*
X155852097Y-84926153D01*
X155628798Y-85018647D01*
X155427833Y-85152927D01*
X155256927Y-85323833D01*
X155122647Y-85524798D01*
X155030153Y-85748097D01*
X154983000Y-85985151D01*
X140264481Y-85985151D01*
X140287229Y-85930234D01*
X140331000Y-85710182D01*
X140331000Y-85485818D01*
X140287229Y-85265766D01*
X140201369Y-85058481D01*
X140076719Y-84871930D01*
X139918070Y-84713281D01*
X139731519Y-84588631D01*
X139524234Y-84502771D01*
X139304182Y-84459000D01*
X139270058Y-84459000D01*
X139536133Y-84418922D01*
X139795023Y-84325636D01*
X139910980Y-84263656D01*
X139977960Y-84023565D01*
X139192000Y-83237605D01*
X138406040Y-84023565D01*
X138473020Y-84263656D01*
X138722048Y-84380756D01*
X138989135Y-84447023D01*
X139244607Y-84459000D01*
X139079818Y-84459000D01*
X138859766Y-84502771D01*
X138652481Y-84588631D01*
X138465930Y-84713281D01*
X138307281Y-84871930D01*
X138182631Y-85058481D01*
X138167090Y-85096000D01*
X127770910Y-85096000D01*
X127755369Y-85058481D01*
X127630719Y-84871930D01*
X127472070Y-84713281D01*
X127285519Y-84588631D01*
X127078234Y-84502771D01*
X126858182Y-84459000D01*
X126824058Y-84459000D01*
X127090133Y-84418922D01*
X127349023Y-84325636D01*
X127464980Y-84263656D01*
X127531960Y-84023565D01*
X126746000Y-83237605D01*
X125960040Y-84023565D01*
X126027020Y-84263656D01*
X126276048Y-84380756D01*
X126543135Y-84447023D01*
X126798607Y-84459000D01*
X126633818Y-84459000D01*
X126413766Y-84502771D01*
X126206481Y-84588631D01*
X126019930Y-84713281D01*
X125861281Y-84871930D01*
X125736631Y-85058481D01*
X125650771Y-85265766D01*
X125607000Y-85485818D01*
X124862000Y-85485818D01*
X124862000Y-83130017D01*
X125344090Y-83130017D01*
X125385078Y-83402133D01*
X125478364Y-83661023D01*
X125540344Y-83776980D01*
X125780435Y-83843960D01*
X126566395Y-83058000D01*
X126925605Y-83058000D01*
X127711565Y-83843960D01*
X127951656Y-83776980D01*
X128068756Y-83527952D01*
X128135023Y-83260865D01*
X128141157Y-83130017D01*
X137790090Y-83130017D01*
X137831078Y-83402133D01*
X137924364Y-83661023D01*
X137986344Y-83776980D01*
X138226435Y-83843960D01*
X139012395Y-83058000D01*
X139371605Y-83058000D01*
X140157565Y-83843960D01*
X140397656Y-83776980D01*
X140514756Y-83527952D01*
X140581023Y-83260865D01*
X140593910Y-82985983D01*
X140552922Y-82713867D01*
X140459636Y-82454977D01*
X140397656Y-82339020D01*
X140157565Y-82272040D01*
X139371605Y-83058000D01*
X139012395Y-83058000D01*
X138226435Y-82272040D01*
X137986344Y-82339020D01*
X137869244Y-82588048D01*
X137802977Y-82855135D01*
X137790090Y-83130017D01*
X128141157Y-83130017D01*
X128147910Y-82985983D01*
X128106922Y-82713867D01*
X128013636Y-82454977D01*
X127951656Y-82339020D01*
X127711565Y-82272040D01*
X126925605Y-83058000D01*
X126566395Y-83058000D01*
X125780435Y-82272040D01*
X125540344Y-82339020D01*
X125423244Y-82588048D01*
X125356977Y-82855135D01*
X125344090Y-83130017D01*
X124862000Y-83130017D01*
X124862000Y-79756000D01*
X125605176Y-79756000D01*
X125605176Y-81280000D01*
X125612455Y-81353905D01*
X125634012Y-81424970D01*
X125669019Y-81490463D01*
X125716131Y-81547869D01*
X125773537Y-81594981D01*
X125839030Y-81629988D01*
X125910095Y-81651545D01*
X125984000Y-81658824D01*
X126655832Y-81658824D01*
X126401867Y-81697078D01*
X126142977Y-81790364D01*
X126027020Y-81852344D01*
X125960040Y-82092435D01*
X126746000Y-82878395D01*
X127531960Y-82092435D01*
X127464980Y-81852344D01*
X127215952Y-81735244D01*
X126948865Y-81668977D01*
X126732300Y-81658824D01*
X127508000Y-81658824D01*
X127581905Y-81651545D01*
X127652970Y-81629988D01*
X127718463Y-81594981D01*
X127775869Y-81547869D01*
X127822981Y-81490463D01*
X127857988Y-81424970D01*
X127879545Y-81353905D01*
X127886824Y-81280000D01*
X127886824Y-80187472D01*
X129779000Y-80187472D01*
X129779000Y-80340528D01*
X129808859Y-80490643D01*
X129867431Y-80632048D01*
X129952464Y-80759309D01*
X130060691Y-80867536D01*
X130187952Y-80952569D01*
X130329357Y-81011141D01*
X130479472Y-81041000D01*
X130632528Y-81041000D01*
X130782643Y-81011141D01*
X130924048Y-80952569D01*
X131051309Y-80867536D01*
X131152845Y-80766000D01*
X133515155Y-80766000D01*
X133616691Y-80867536D01*
X133743952Y-80952569D01*
X133885357Y-81011141D01*
X134035472Y-81041000D01*
X134188528Y-81041000D01*
X134338643Y-81011141D01*
X134480048Y-80952569D01*
X134607309Y-80867536D01*
X134715536Y-80759309D01*
X134800569Y-80632048D01*
X134859141Y-80490643D01*
X134889000Y-80340528D01*
X134889000Y-80187472D01*
X134859141Y-80037357D01*
X134800569Y-79895952D01*
X134715536Y-79768691D01*
X134702845Y-79756000D01*
X138051176Y-79756000D01*
X138051176Y-81280000D01*
X138058455Y-81353905D01*
X138080012Y-81424970D01*
X138115019Y-81490463D01*
X138162131Y-81547869D01*
X138219537Y-81594981D01*
X138285030Y-81629988D01*
X138356095Y-81651545D01*
X138430000Y-81658824D01*
X139101832Y-81658824D01*
X138847867Y-81697078D01*
X138588977Y-81790364D01*
X138473020Y-81852344D01*
X138406040Y-82092435D01*
X139192000Y-82878395D01*
X139977960Y-82092435D01*
X139910980Y-81852344D01*
X139661952Y-81735244D01*
X139394865Y-81668977D01*
X139355917Y-81667151D01*
X154983000Y-81667151D01*
X154983000Y-81908849D01*
X155030153Y-82145903D01*
X155122647Y-82369202D01*
X155256927Y-82570167D01*
X155427833Y-82741073D01*
X155628798Y-82875353D01*
X155852097Y-82967847D01*
X156089151Y-83015000D01*
X156330849Y-83015000D01*
X156567903Y-82967847D01*
X156791202Y-82875353D01*
X156992167Y-82741073D01*
X157163073Y-82570167D01*
X157297353Y-82369202D01*
X157389847Y-82145903D01*
X157437000Y-81908849D01*
X157437000Y-81667151D01*
X157523000Y-81667151D01*
X157523000Y-81908849D01*
X157570153Y-82145903D01*
X157662647Y-82369202D01*
X157796927Y-82570167D01*
X157967833Y-82741073D01*
X158168798Y-82875353D01*
X158173001Y-82877094D01*
X158173001Y-82961736D01*
X158173000Y-82961746D01*
X158173001Y-85016906D01*
X158168798Y-85018647D01*
X157967833Y-85152927D01*
X157796927Y-85323833D01*
X157662647Y-85524798D01*
X157570153Y-85748097D01*
X157523000Y-85985151D01*
X157523000Y-86226849D01*
X157570153Y-86463903D01*
X157662647Y-86687202D01*
X157796927Y-86888167D01*
X157967833Y-87059073D01*
X158168798Y-87193353D01*
X158173001Y-87195094D01*
X158173001Y-87279736D01*
X158173000Y-87279746D01*
X158173001Y-89334906D01*
X158168798Y-89336647D01*
X157967833Y-89470927D01*
X157796927Y-89641833D01*
X157662647Y-89842798D01*
X157570153Y-90066097D01*
X157523000Y-90303151D01*
X157523000Y-90544849D01*
X157570153Y-90781903D01*
X157662647Y-91005202D01*
X157796927Y-91206167D01*
X157967833Y-91377073D01*
X158168798Y-91511353D01*
X158392097Y-91603847D01*
X158629151Y-91651000D01*
X158870849Y-91651000D01*
X159107903Y-91603847D01*
X159331202Y-91511353D01*
X159532167Y-91377073D01*
X159703073Y-91206167D01*
X159803112Y-91056447D01*
X159801928Y-91274000D01*
X159814188Y-91398482D01*
X159850498Y-91518180D01*
X159909463Y-91628494D01*
X159988815Y-91725185D01*
X160085506Y-91804537D01*
X160195820Y-91863502D01*
X160315518Y-91899812D01*
X160440000Y-91912072D01*
X161004250Y-91909000D01*
X161163000Y-91750250D01*
X161163000Y-90551000D01*
X161417000Y-90551000D01*
X161417000Y-91750250D01*
X161575750Y-91909000D01*
X162140000Y-91912072D01*
X162264482Y-91899812D01*
X162384180Y-91863502D01*
X162494494Y-91804537D01*
X162591185Y-91725185D01*
X162670537Y-91628494D01*
X162729502Y-91518180D01*
X162765812Y-91398482D01*
X162778072Y-91274000D01*
X162775000Y-90709750D01*
X162616250Y-90551000D01*
X161417000Y-90551000D01*
X161163000Y-90551000D01*
X161143000Y-90551000D01*
X161143000Y-90297000D01*
X161163000Y-90297000D01*
X161163000Y-89097750D01*
X161417000Y-89097750D01*
X161417000Y-90297000D01*
X162616250Y-90297000D01*
X162775000Y-90138250D01*
X162778072Y-89574000D01*
X162765812Y-89449518D01*
X162729502Y-89329820D01*
X162670537Y-89219506D01*
X162591185Y-89122815D01*
X162494494Y-89043463D01*
X162384180Y-88984498D01*
X162264482Y-88948188D01*
X162140000Y-88935928D01*
X161575750Y-88939000D01*
X161417000Y-89097750D01*
X161163000Y-89097750D01*
X161004250Y-88939000D01*
X160440000Y-88935928D01*
X160315518Y-88948188D01*
X160195820Y-88984498D01*
X160085506Y-89043463D01*
X159988815Y-89122815D01*
X159909463Y-89219506D01*
X159850498Y-89329820D01*
X159814188Y-89449518D01*
X159801928Y-89574000D01*
X159803112Y-89791553D01*
X159703073Y-89641833D01*
X159532167Y-89470927D01*
X159331202Y-89336647D01*
X159327000Y-89334906D01*
X159327000Y-87195094D01*
X159331202Y-87193353D01*
X159532167Y-87059073D01*
X159703073Y-86888167D01*
X159803112Y-86738447D01*
X159801928Y-86956000D01*
X159814188Y-87080482D01*
X159850498Y-87200180D01*
X159909463Y-87310494D01*
X159988815Y-87407185D01*
X160085506Y-87486537D01*
X160195820Y-87545502D01*
X160315518Y-87581812D01*
X160440000Y-87594072D01*
X161004250Y-87591000D01*
X161163000Y-87432250D01*
X161163000Y-86233000D01*
X161417000Y-86233000D01*
X161417000Y-87432250D01*
X161575750Y-87591000D01*
X162140000Y-87594072D01*
X162264482Y-87581812D01*
X162384180Y-87545502D01*
X162494494Y-87486537D01*
X162591185Y-87407185D01*
X162670537Y-87310494D01*
X162729502Y-87200180D01*
X162765812Y-87080482D01*
X162778072Y-86956000D01*
X162775000Y-86391750D01*
X162616250Y-86233000D01*
X161417000Y-86233000D01*
X161163000Y-86233000D01*
X161143000Y-86233000D01*
X161143000Y-85979000D01*
X161163000Y-85979000D01*
X161163000Y-84779750D01*
X161417000Y-84779750D01*
X161417000Y-85979000D01*
X162616250Y-85979000D01*
X162775000Y-85820250D01*
X162778072Y-85256000D01*
X162765812Y-85131518D01*
X162729502Y-85011820D01*
X162670537Y-84901506D01*
X162591185Y-84804815D01*
X162494494Y-84725463D01*
X162384180Y-84666498D01*
X162264482Y-84630188D01*
X162140000Y-84617928D01*
X161575750Y-84621000D01*
X161417000Y-84779750D01*
X161163000Y-84779750D01*
X161004250Y-84621000D01*
X160440000Y-84617928D01*
X160315518Y-84630188D01*
X160195820Y-84666498D01*
X160085506Y-84725463D01*
X159988815Y-84804815D01*
X159909463Y-84901506D01*
X159850498Y-85011820D01*
X159814188Y-85131518D01*
X159801928Y-85256000D01*
X159803112Y-85473553D01*
X159703073Y-85323833D01*
X159532167Y-85152927D01*
X159331202Y-85018647D01*
X159327000Y-85016906D01*
X159327000Y-82877094D01*
X159331202Y-82875353D01*
X159532167Y-82741073D01*
X159703073Y-82570167D01*
X159803112Y-82420447D01*
X159801928Y-82638000D01*
X159814188Y-82762482D01*
X159850498Y-82882180D01*
X159909463Y-82992494D01*
X159988815Y-83089185D01*
X160085506Y-83168537D01*
X160195820Y-83227502D01*
X160315518Y-83263812D01*
X160440000Y-83276072D01*
X161004250Y-83273000D01*
X161163000Y-83114250D01*
X161163000Y-81915000D01*
X161417000Y-81915000D01*
X161417000Y-83114250D01*
X161575750Y-83273000D01*
X162140000Y-83276072D01*
X162264482Y-83263812D01*
X162384180Y-83227502D01*
X162494494Y-83168537D01*
X162591185Y-83089185D01*
X162670537Y-82992494D01*
X162729502Y-82882180D01*
X162765812Y-82762482D01*
X162778072Y-82638000D01*
X162775000Y-82073750D01*
X162616250Y-81915000D01*
X161417000Y-81915000D01*
X161163000Y-81915000D01*
X161143000Y-81915000D01*
X161143000Y-81661000D01*
X161163000Y-81661000D01*
X161163000Y-80461750D01*
X161417000Y-80461750D01*
X161417000Y-81661000D01*
X162616250Y-81661000D01*
X162775000Y-81502250D01*
X162778072Y-80938000D01*
X162765812Y-80813518D01*
X162729502Y-80693820D01*
X162670537Y-80583506D01*
X162591185Y-80486815D01*
X162494494Y-80407463D01*
X162384180Y-80348498D01*
X162264482Y-80312188D01*
X162140000Y-80299928D01*
X161575750Y-80303000D01*
X161417000Y-80461750D01*
X161163000Y-80461750D01*
X161027626Y-80326376D01*
X162331963Y-79022038D01*
X162353975Y-79003973D01*
X162426080Y-78916114D01*
X162479658Y-78815875D01*
X162512651Y-78707111D01*
X162521001Y-78622335D01*
X162521001Y-78622329D01*
X162523791Y-78594000D01*
X162521001Y-78565671D01*
X162521001Y-74422329D01*
X162523791Y-74394000D01*
X162521001Y-74365671D01*
X162521001Y-74365665D01*
X162512651Y-74280889D01*
X162479658Y-74172125D01*
X162426080Y-74071886D01*
X162353975Y-73984027D01*
X162331969Y-73965967D01*
X161068825Y-72702824D01*
X162274000Y-72702824D01*
X162347905Y-72695545D01*
X162418970Y-72673988D01*
X162484463Y-72638981D01*
X162541869Y-72591869D01*
X162588981Y-72534463D01*
X162623988Y-72468970D01*
X162645545Y-72397905D01*
X162652824Y-72324000D01*
X162652824Y-68324000D01*
X162645545Y-68250095D01*
X162623988Y-68179030D01*
X162588981Y-68113537D01*
X162541869Y-68056131D01*
X162484463Y-68009019D01*
X162418970Y-67974012D01*
X162347905Y-67952455D01*
X162274000Y-67945176D01*
X158274000Y-67945176D01*
X158200095Y-67952455D01*
X158129030Y-67974012D01*
X158063537Y-68009019D01*
X158006131Y-68056131D01*
X157959019Y-68113537D01*
X157924012Y-68179030D01*
X157902455Y-68250095D01*
X157895176Y-68324000D01*
X157895176Y-72324000D01*
X157902455Y-72397905D01*
X157924012Y-72468970D01*
X157959019Y-72534463D01*
X158006131Y-72591869D01*
X158063537Y-72638981D01*
X158129030Y-72673988D01*
X158200095Y-72695545D01*
X158274000Y-72702824D01*
X159696295Y-72702824D01*
X159694210Y-72724000D01*
X159705349Y-72837111D01*
X159738344Y-72945876D01*
X159791922Y-73046115D01*
X159811036Y-73069405D01*
X159845963Y-73111964D01*
X159845966Y-73111967D01*
X159864027Y-73133974D01*
X159886033Y-73152034D01*
X161367001Y-74633003D01*
X161367001Y-76329176D01*
X160020000Y-76329176D01*
X159946095Y-76336455D01*
X159875030Y-76358012D01*
X159809537Y-76393019D01*
X159752131Y-76440131D01*
X159705019Y-76497537D01*
X159670012Y-76563030D01*
X159648455Y-76634095D01*
X159641176Y-76708000D01*
X159641176Y-78232000D01*
X159648455Y-78305905D01*
X159670012Y-78376970D01*
X159705019Y-78442463D01*
X159752131Y-78499869D01*
X159809537Y-78546981D01*
X159875030Y-78581988D01*
X159946095Y-78603545D01*
X160020000Y-78610824D01*
X161111175Y-78610824D01*
X159212040Y-80509959D01*
X159212034Y-80509964D01*
X159112105Y-80609893D01*
X159107903Y-80608153D01*
X158870849Y-80561000D01*
X158629151Y-80561000D01*
X158392097Y-80608153D01*
X158168798Y-80700647D01*
X157967833Y-80834927D01*
X157796927Y-81005833D01*
X157662647Y-81206798D01*
X157570153Y-81430097D01*
X157523000Y-81667151D01*
X157437000Y-81667151D01*
X157389847Y-81430097D01*
X157297353Y-81206798D01*
X157163073Y-81005833D01*
X156992167Y-80834927D01*
X156791202Y-80700647D01*
X156567903Y-80608153D01*
X156330849Y-80561000D01*
X156089151Y-80561000D01*
X155852097Y-80608153D01*
X155628798Y-80700647D01*
X155427833Y-80834927D01*
X155256927Y-81005833D01*
X155122647Y-81206798D01*
X155030153Y-81430097D01*
X154983000Y-81667151D01*
X139355917Y-81667151D01*
X139178300Y-81658824D01*
X139954000Y-81658824D01*
X140027905Y-81651545D01*
X140098970Y-81629988D01*
X140164463Y-81594981D01*
X140221869Y-81547869D01*
X140268981Y-81490463D01*
X140303988Y-81424970D01*
X140325545Y-81353905D01*
X140332824Y-81280000D01*
X140332824Y-79756000D01*
X140325545Y-79682095D01*
X140303988Y-79611030D01*
X140268981Y-79545537D01*
X140221869Y-79488131D01*
X140164463Y-79441019D01*
X140098970Y-79406012D01*
X140027905Y-79384455D01*
X139954000Y-79377176D01*
X138430000Y-79377176D01*
X138356095Y-79384455D01*
X138285030Y-79406012D01*
X138219537Y-79441019D01*
X138162131Y-79488131D01*
X138115019Y-79545537D01*
X138080012Y-79611030D01*
X138058455Y-79682095D01*
X138051176Y-79756000D01*
X134702845Y-79756000D01*
X134607309Y-79660464D01*
X134480048Y-79575431D01*
X134338643Y-79516859D01*
X134188528Y-79487000D01*
X134035472Y-79487000D01*
X133885357Y-79516859D01*
X133743952Y-79575431D01*
X133616691Y-79660464D01*
X133515155Y-79762000D01*
X131152845Y-79762000D01*
X131051309Y-79660464D01*
X130924048Y-79575431D01*
X130782643Y-79516859D01*
X130632528Y-79487000D01*
X130479472Y-79487000D01*
X130329357Y-79516859D01*
X130187952Y-79575431D01*
X130060691Y-79660464D01*
X129952464Y-79768691D01*
X129867431Y-79895952D01*
X129808859Y-80037357D01*
X129779000Y-80187472D01*
X127886824Y-80187472D01*
X127886824Y-79756000D01*
X127879545Y-79682095D01*
X127857988Y-79611030D01*
X127822981Y-79545537D01*
X127775869Y-79488131D01*
X127718463Y-79441019D01*
X127652970Y-79406012D01*
X127581905Y-79384455D01*
X127508000Y-79377176D01*
X125984000Y-79377176D01*
X125910095Y-79384455D01*
X125839030Y-79406012D01*
X125773537Y-79441019D01*
X125716131Y-79488131D01*
X125669019Y-79545537D01*
X125634012Y-79611030D01*
X125612455Y-79682095D01*
X125605176Y-79756000D01*
X124862000Y-79756000D01*
X124862000Y-76962000D01*
X127549725Y-76962000D01*
X127571496Y-77183042D01*
X127635971Y-77395590D01*
X127740674Y-77591475D01*
X127881580Y-77763170D01*
X128053275Y-77904076D01*
X128249160Y-78008779D01*
X128461708Y-78073254D01*
X128627365Y-78089570D01*
X129436635Y-78089570D01*
X129602292Y-78073254D01*
X129814840Y-78008779D01*
X130010725Y-77904076D01*
X130182420Y-77763170D01*
X130323326Y-77591475D01*
X130428029Y-77395590D01*
X130492504Y-77183042D01*
X130501766Y-77089000D01*
X135266430Y-77089000D01*
X135266430Y-77438250D01*
X135317830Y-77706121D01*
X135420501Y-77958817D01*
X135570498Y-78186628D01*
X135762057Y-78380798D01*
X135987815Y-78533866D01*
X136239098Y-78639950D01*
X136310725Y-78654133D01*
X136525000Y-78531479D01*
X136525000Y-77089000D01*
X136779000Y-77089000D01*
X136779000Y-78531479D01*
X136993275Y-78654133D01*
X137064902Y-78639950D01*
X137316185Y-78533866D01*
X137541943Y-78380798D01*
X137733502Y-78186628D01*
X137883499Y-77958817D01*
X137986170Y-77706121D01*
X138037570Y-77438250D01*
X138037570Y-77089000D01*
X136779000Y-77089000D01*
X136525000Y-77089000D01*
X135266430Y-77089000D01*
X130501766Y-77089000D01*
X130514275Y-76962000D01*
X130492504Y-76740958D01*
X130428029Y-76528410D01*
X130405227Y-76485750D01*
X135266430Y-76485750D01*
X135266430Y-76835000D01*
X136525000Y-76835000D01*
X136525000Y-75392521D01*
X136779000Y-75392521D01*
X136779000Y-76835000D01*
X138037570Y-76835000D01*
X138037570Y-76557365D01*
X138064430Y-76557365D01*
X138064430Y-77366634D01*
X138080746Y-77532291D01*
X138145221Y-77744839D01*
X138249924Y-77940725D01*
X138390830Y-78112420D01*
X138562525Y-78253326D01*
X138758410Y-78358029D01*
X138970958Y-78422504D01*
X139192000Y-78444275D01*
X139413041Y-78422504D01*
X139625589Y-78358029D01*
X139821475Y-78253326D01*
X139993170Y-78112420D01*
X140134076Y-77940725D01*
X140238779Y-77744840D01*
X140303254Y-77532292D01*
X140319570Y-77366635D01*
X140319570Y-76557366D01*
X140319570Y-76557365D01*
X140604430Y-76557365D01*
X140604430Y-77366634D01*
X140620746Y-77532291D01*
X140685221Y-77744839D01*
X140789924Y-77940725D01*
X140930830Y-78112420D01*
X141102525Y-78253326D01*
X141298410Y-78358029D01*
X141510958Y-78422504D01*
X141732000Y-78444275D01*
X141953041Y-78422504D01*
X142165589Y-78358029D01*
X142361475Y-78253326D01*
X142533170Y-78112420D01*
X142674076Y-77940725D01*
X142778779Y-77744840D01*
X142843254Y-77532292D01*
X142859570Y-77366635D01*
X142859570Y-77341523D01*
X142875971Y-77395590D01*
X142980674Y-77591475D01*
X143121580Y-77763170D01*
X143293275Y-77904076D01*
X143489160Y-78008779D01*
X143701708Y-78073254D01*
X143783430Y-78081303D01*
X143805969Y-78155605D01*
X143852583Y-78242815D01*
X143915316Y-78319254D01*
X143934467Y-78334971D01*
X144494034Y-78894539D01*
X144509747Y-78913685D01*
X144586186Y-78976418D01*
X144673395Y-79023032D01*
X144768022Y-79051737D01*
X144841778Y-79059001D01*
X144841787Y-79059001D01*
X144866430Y-79061428D01*
X144891073Y-79059001D01*
X157130356Y-79059001D01*
X157154999Y-79061428D01*
X157179642Y-79059001D01*
X157179652Y-79059001D01*
X157253408Y-79051737D01*
X157348035Y-79023032D01*
X157435244Y-78976418D01*
X157511683Y-78913685D01*
X157527400Y-78894534D01*
X157872246Y-78549688D01*
X157909766Y-78565229D01*
X158129818Y-78609000D01*
X158354182Y-78609000D01*
X158574234Y-78565229D01*
X158781519Y-78479369D01*
X158968070Y-78354719D01*
X159126719Y-78196070D01*
X159251369Y-78009519D01*
X159337229Y-77802234D01*
X159381000Y-77582182D01*
X159381000Y-77357818D01*
X159337229Y-77137766D01*
X159251369Y-76930481D01*
X159126719Y-76743930D01*
X158968070Y-76585281D01*
X158781519Y-76460631D01*
X158574234Y-76374771D01*
X158354182Y-76331000D01*
X158129818Y-76331000D01*
X157909766Y-76374771D01*
X157702481Y-76460631D01*
X157515930Y-76585281D01*
X157357281Y-76743930D01*
X157232631Y-76930481D01*
X157146771Y-77137766D01*
X157103000Y-77357818D01*
X157103000Y-77582182D01*
X157146771Y-77802234D01*
X157162312Y-77839754D01*
X156947065Y-78055001D01*
X156680979Y-78055001D01*
X156711369Y-78009519D01*
X156797229Y-77802234D01*
X156841000Y-77582182D01*
X156841000Y-77357818D01*
X156797229Y-77137766D01*
X156711369Y-76930481D01*
X156586719Y-76743930D01*
X156428070Y-76585281D01*
X156241519Y-76460631D01*
X156034234Y-76374771D01*
X155814182Y-76331000D01*
X155589818Y-76331000D01*
X155369766Y-76374771D01*
X155162481Y-76460631D01*
X154975930Y-76585281D01*
X154817281Y-76743930D01*
X154692631Y-76930481D01*
X154606771Y-77137766D01*
X154563000Y-77357818D01*
X154563000Y-77582182D01*
X154606771Y-77802234D01*
X154692631Y-78009519D01*
X154723021Y-78055001D01*
X154140979Y-78055001D01*
X154171369Y-78009519D01*
X154257229Y-77802234D01*
X154301000Y-77582182D01*
X154301000Y-77357818D01*
X154257229Y-77137766D01*
X154171369Y-76930481D01*
X154046719Y-76743930D01*
X153888070Y-76585281D01*
X153701519Y-76460631D01*
X153494234Y-76374771D01*
X153274182Y-76331000D01*
X153049818Y-76331000D01*
X152829766Y-76374771D01*
X152792246Y-76390312D01*
X152447401Y-76045467D01*
X152431683Y-76026315D01*
X152355244Y-75963582D01*
X152268035Y-75916968D01*
X152173408Y-75888263D01*
X152099652Y-75880999D01*
X152099642Y-75880999D01*
X152074999Y-75878572D01*
X152050356Y-75880999D01*
X150955932Y-75880999D01*
X148035640Y-72960707D01*
X148988250Y-72959000D01*
X149147000Y-72800250D01*
X149147000Y-70451000D01*
X149401000Y-70451000D01*
X149401000Y-72800250D01*
X149559750Y-72959000D01*
X151274000Y-72962072D01*
X151398482Y-72949812D01*
X151518180Y-72913502D01*
X151628494Y-72854537D01*
X151725185Y-72775185D01*
X151804537Y-72678494D01*
X151863502Y-72568180D01*
X151899812Y-72448482D01*
X151912072Y-72324000D01*
X151909000Y-70609750D01*
X151750250Y-70451000D01*
X149401000Y-70451000D01*
X149147000Y-70451000D01*
X146797750Y-70451000D01*
X146639000Y-70609750D01*
X146637293Y-71562361D01*
X146123820Y-71048888D01*
X146123820Y-70367213D01*
X146126247Y-70342570D01*
X146123820Y-70317927D01*
X146123820Y-70317917D01*
X146116556Y-70244161D01*
X146087851Y-70149534D01*
X146066152Y-70108938D01*
X146041237Y-70062324D01*
X145994220Y-70005034D01*
X145994212Y-70005026D01*
X145978504Y-69985886D01*
X145959363Y-69970177D01*
X145690546Y-69701361D01*
X145732504Y-69563042D01*
X145754275Y-69342000D01*
X145732504Y-69120958D01*
X145668029Y-68908410D01*
X145563326Y-68712525D01*
X145422420Y-68540830D01*
X145250725Y-68399924D01*
X145108682Y-68324000D01*
X146635928Y-68324000D01*
X146639000Y-70038250D01*
X146797750Y-70197000D01*
X149147000Y-70197000D01*
X149147000Y-67847750D01*
X149401000Y-67847750D01*
X149401000Y-70197000D01*
X151750250Y-70197000D01*
X151909000Y-70038250D01*
X151912072Y-68324000D01*
X151899812Y-68199518D01*
X151863502Y-68079820D01*
X151804537Y-67969506D01*
X151725185Y-67872815D01*
X151628494Y-67793463D01*
X151518180Y-67734498D01*
X151398482Y-67698188D01*
X151274000Y-67685928D01*
X149559750Y-67689000D01*
X149401000Y-67847750D01*
X149147000Y-67847750D01*
X148988250Y-67689000D01*
X147274000Y-67685928D01*
X147149518Y-67698188D01*
X147029820Y-67734498D01*
X146919506Y-67793463D01*
X146822815Y-67872815D01*
X146743463Y-67969506D01*
X146684498Y-68079820D01*
X146648188Y-68199518D01*
X146635928Y-68324000D01*
X145108682Y-68324000D01*
X145054840Y-68295221D01*
X144842292Y-68230746D01*
X144676635Y-68214430D01*
X143867365Y-68214430D01*
X143701708Y-68230746D01*
X143489160Y-68295221D01*
X143293275Y-68399924D01*
X143121580Y-68540830D01*
X142980674Y-68712525D01*
X142875971Y-68908410D01*
X142811496Y-69120958D01*
X142789725Y-69342000D01*
X142811496Y-69563042D01*
X142875971Y-69775590D01*
X142980674Y-69971475D01*
X143121580Y-70143170D01*
X143293275Y-70284076D01*
X143489160Y-70388779D01*
X143701708Y-70453254D01*
X143867365Y-70469570D01*
X144676635Y-70469570D01*
X144842292Y-70453254D01*
X144980611Y-70411296D01*
X145119820Y-70550506D01*
X145119821Y-70869954D01*
X145054840Y-70835221D01*
X144842292Y-70770746D01*
X144676635Y-70754430D01*
X143867365Y-70754430D01*
X143701708Y-70770746D01*
X143489160Y-70835221D01*
X143293275Y-70939924D01*
X143121580Y-71080830D01*
X142980674Y-71252525D01*
X142875971Y-71448410D01*
X142811496Y-71660958D01*
X142789725Y-71882000D01*
X142811496Y-72103042D01*
X142875971Y-72315590D01*
X142980674Y-72511475D01*
X143121580Y-72683170D01*
X143293275Y-72824076D01*
X143489160Y-72928779D01*
X143701708Y-72993254D01*
X143867365Y-73009570D01*
X144676635Y-73009570D01*
X144842292Y-72993254D01*
X144980612Y-72951296D01*
X148101705Y-76072390D01*
X148009983Y-76068090D01*
X147737867Y-76109078D01*
X147478977Y-76202364D01*
X147363020Y-76264344D01*
X147296040Y-76504435D01*
X148082000Y-77290395D01*
X148096143Y-77276253D01*
X148275748Y-77455858D01*
X148261605Y-77470000D01*
X148275748Y-77484143D01*
X148096143Y-77663748D01*
X148082000Y-77649605D01*
X148067858Y-77663748D01*
X147888253Y-77484143D01*
X147902395Y-77470000D01*
X147116435Y-76684040D01*
X146876344Y-76751020D01*
X146759244Y-77000048D01*
X146692977Y-77267135D01*
X146680090Y-77542017D01*
X146721078Y-77814133D01*
X146807870Y-78055001D01*
X145074366Y-78055001D01*
X145034357Y-78014992D01*
X145054840Y-78008779D01*
X145250725Y-77904076D01*
X145422420Y-77763170D01*
X145563326Y-77591475D01*
X145668029Y-77395590D01*
X145732504Y-77183042D01*
X145754275Y-76962000D01*
X145732504Y-76740958D01*
X145668029Y-76528410D01*
X145563326Y-76332525D01*
X145422420Y-76160830D01*
X145250725Y-76019924D01*
X145054840Y-75915221D01*
X144842292Y-75850746D01*
X144676635Y-75834430D01*
X143867365Y-75834430D01*
X143701708Y-75850746D01*
X143489160Y-75915221D01*
X143293275Y-76019924D01*
X143121580Y-76160830D01*
X142980674Y-76332525D01*
X142875971Y-76528410D01*
X142859570Y-76582477D01*
X142859570Y-76557366D01*
X142843254Y-76391709D01*
X142778779Y-76179160D01*
X142674076Y-75983275D01*
X142533170Y-75811580D01*
X142361475Y-75670674D01*
X142165590Y-75565971D01*
X141953042Y-75501496D01*
X141732000Y-75479725D01*
X141510959Y-75501496D01*
X141298411Y-75565971D01*
X141102526Y-75670674D01*
X140930831Y-75811580D01*
X140789925Y-75983275D01*
X140685222Y-76179160D01*
X140620746Y-76391708D01*
X140604430Y-76557365D01*
X140319570Y-76557365D01*
X140303254Y-76391709D01*
X140238779Y-76179160D01*
X140134076Y-75983275D01*
X139993170Y-75811580D01*
X139821475Y-75670674D01*
X139625590Y-75565971D01*
X139413042Y-75501496D01*
X139192000Y-75479725D01*
X138970959Y-75501496D01*
X138758411Y-75565971D01*
X138562526Y-75670674D01*
X138390831Y-75811580D01*
X138249925Y-75983275D01*
X138145222Y-76179160D01*
X138080746Y-76391708D01*
X138064430Y-76557365D01*
X138037570Y-76557365D01*
X138037570Y-76485750D01*
X137986170Y-76217879D01*
X137883499Y-75965183D01*
X137733502Y-75737372D01*
X137541943Y-75543202D01*
X137316185Y-75390134D01*
X137064902Y-75284050D01*
X136993275Y-75269867D01*
X136779000Y-75392521D01*
X136525000Y-75392521D01*
X136310725Y-75269867D01*
X136239098Y-75284050D01*
X135987815Y-75390134D01*
X135762057Y-75543202D01*
X135570498Y-75737372D01*
X135420501Y-75965183D01*
X135317830Y-76217879D01*
X135266430Y-76485750D01*
X130405227Y-76485750D01*
X130323326Y-76332525D01*
X130182420Y-76160830D01*
X130010725Y-76019924D01*
X129814840Y-75915221D01*
X129602292Y-75850746D01*
X129436635Y-75834430D01*
X128627365Y-75834430D01*
X128461708Y-75850746D01*
X128249160Y-75915221D01*
X128053275Y-76019924D01*
X127881580Y-76160830D01*
X127740674Y-76332525D01*
X127635971Y-76528410D01*
X127571496Y-76740958D01*
X127549725Y-76962000D01*
X124862000Y-76962000D01*
X124862000Y-74422000D01*
X127549725Y-74422000D01*
X127571496Y-74643042D01*
X127635971Y-74855590D01*
X127740674Y-75051475D01*
X127881580Y-75223170D01*
X128053275Y-75364076D01*
X128249160Y-75468779D01*
X128461708Y-75533254D01*
X128627365Y-75549570D01*
X129436635Y-75549570D01*
X129602292Y-75533254D01*
X129814840Y-75468779D01*
X130010725Y-75364076D01*
X130182420Y-75223170D01*
X130323326Y-75051475D01*
X130428029Y-74855590D01*
X130492504Y-74643042D01*
X130514275Y-74422000D01*
X130499050Y-74267413D01*
X135696192Y-74267413D01*
X135791956Y-74531814D01*
X136081571Y-74672704D01*
X136393108Y-74754384D01*
X136714595Y-74773718D01*
X137033675Y-74729961D01*
X137338088Y-74624795D01*
X137512044Y-74531814D01*
X137551817Y-74422000D01*
X142789725Y-74422000D01*
X142811496Y-74643042D01*
X142875971Y-74855590D01*
X142980674Y-75051475D01*
X143121580Y-75223170D01*
X143293275Y-75364076D01*
X143489160Y-75468779D01*
X143701708Y-75533254D01*
X143867365Y-75549570D01*
X144676635Y-75549570D01*
X144842292Y-75533254D01*
X145054840Y-75468779D01*
X145250725Y-75364076D01*
X145422420Y-75223170D01*
X145563326Y-75051475D01*
X145668029Y-74855590D01*
X145732504Y-74643042D01*
X145754275Y-74422000D01*
X145732504Y-74200958D01*
X145668029Y-73988410D01*
X145563326Y-73792525D01*
X145422420Y-73620830D01*
X145250725Y-73479924D01*
X145054840Y-73375221D01*
X144842292Y-73310746D01*
X144676635Y-73294430D01*
X143867365Y-73294430D01*
X143701708Y-73310746D01*
X143489160Y-73375221D01*
X143293275Y-73479924D01*
X143121580Y-73620830D01*
X142980674Y-73792525D01*
X142875971Y-73988410D01*
X142811496Y-74200958D01*
X142789725Y-74422000D01*
X137551817Y-74422000D01*
X137607808Y-74267413D01*
X136652000Y-73311605D01*
X135696192Y-74267413D01*
X130499050Y-74267413D01*
X130492504Y-74200958D01*
X130428029Y-73988410D01*
X130323326Y-73792525D01*
X130182420Y-73620830D01*
X130010725Y-73479924D01*
X129814840Y-73375221D01*
X129602292Y-73310746D01*
X129436635Y-73294430D01*
X128627365Y-73294430D01*
X128461708Y-73310746D01*
X128249160Y-73375221D01*
X128053275Y-73479924D01*
X127881580Y-73620830D01*
X127740674Y-73792525D01*
X127635971Y-73988410D01*
X127571496Y-74200958D01*
X127549725Y-74422000D01*
X124862000Y-74422000D01*
X124862000Y-73194595D01*
X135010282Y-73194595D01*
X135054039Y-73513675D01*
X135159205Y-73818088D01*
X135252186Y-73992044D01*
X135516587Y-74087808D01*
X136472395Y-73132000D01*
X136831605Y-73132000D01*
X137787413Y-74087808D01*
X138051814Y-73992044D01*
X138192704Y-73702429D01*
X138274384Y-73390892D01*
X138293718Y-73069405D01*
X138249961Y-72750325D01*
X138144795Y-72445912D01*
X138051814Y-72271956D01*
X137787413Y-72176192D01*
X136831605Y-73132000D01*
X136472395Y-73132000D01*
X135516587Y-72176192D01*
X135252186Y-72271956D01*
X135111296Y-72561571D01*
X135029616Y-72873108D01*
X135010282Y-73194595D01*
X124862000Y-73194595D01*
X124862000Y-71882000D01*
X127549725Y-71882000D01*
X127571496Y-72103042D01*
X127635971Y-72315590D01*
X127740674Y-72511475D01*
X127881580Y-72683170D01*
X128053275Y-72824076D01*
X128249160Y-72928779D01*
X128461708Y-72993254D01*
X128627365Y-73009570D01*
X129436635Y-73009570D01*
X129602292Y-72993254D01*
X129814840Y-72928779D01*
X130010725Y-72824076D01*
X130182420Y-72683170D01*
X130323326Y-72511475D01*
X130428029Y-72315590D01*
X130492504Y-72103042D01*
X130502989Y-71996587D01*
X135696192Y-71996587D01*
X136652000Y-72952395D01*
X137607808Y-71996587D01*
X137512044Y-71732186D01*
X137222429Y-71591296D01*
X136910892Y-71509616D01*
X136589405Y-71490282D01*
X136270325Y-71534039D01*
X135965912Y-71639205D01*
X135791956Y-71732186D01*
X135696192Y-71996587D01*
X130502989Y-71996587D01*
X130514275Y-71882000D01*
X130492504Y-71660958D01*
X130428029Y-71448410D01*
X130323326Y-71252525D01*
X130182420Y-71080830D01*
X130010725Y-70939924D01*
X129814840Y-70835221D01*
X129602292Y-70770746D01*
X129436635Y-70754430D01*
X128627365Y-70754430D01*
X128461708Y-70770746D01*
X128249160Y-70835221D01*
X128053275Y-70939924D01*
X127881580Y-71080830D01*
X127740674Y-71252525D01*
X127635971Y-71448410D01*
X127571496Y-71660958D01*
X127549725Y-71882000D01*
X124862000Y-71882000D01*
X124862000Y-68492000D01*
X125009176Y-68492000D01*
X125009176Y-70192000D01*
X125016455Y-70265905D01*
X125038012Y-70336970D01*
X125073019Y-70402463D01*
X125120131Y-70459869D01*
X125177537Y-70506981D01*
X125243030Y-70541988D01*
X125314095Y-70563545D01*
X125388000Y-70570824D01*
X127088000Y-70570824D01*
X127161905Y-70563545D01*
X127232970Y-70541988D01*
X127298463Y-70506981D01*
X127355869Y-70459869D01*
X127402981Y-70402463D01*
X127437988Y-70336970D01*
X127459545Y-70265905D01*
X127466824Y-70192000D01*
X127466824Y-69342000D01*
X127549725Y-69342000D01*
X127571496Y-69563042D01*
X127635971Y-69775590D01*
X127740674Y-69971475D01*
X127881580Y-70143170D01*
X128053275Y-70284076D01*
X128249160Y-70388779D01*
X128461708Y-70453254D01*
X128627365Y-70469570D01*
X129436635Y-70469570D01*
X129602292Y-70453254D01*
X129814840Y-70388779D01*
X130010725Y-70284076D01*
X130182420Y-70143170D01*
X130323326Y-69971475D01*
X130428029Y-69775590D01*
X130492504Y-69563042D01*
X130514275Y-69342000D01*
X130492504Y-69120958D01*
X130428029Y-68908410D01*
X130323326Y-68712525D01*
X130182420Y-68540830D01*
X130010725Y-68399924D01*
X129814840Y-68295221D01*
X129602292Y-68230746D01*
X129436635Y-68214430D01*
X128627365Y-68214430D01*
X128461708Y-68230746D01*
X128249160Y-68295221D01*
X128053275Y-68399924D01*
X127881580Y-68540830D01*
X127740674Y-68712525D01*
X127635971Y-68908410D01*
X127571496Y-69120958D01*
X127549725Y-69342000D01*
X127466824Y-69342000D01*
X127466824Y-68492000D01*
X127459545Y-68418095D01*
X127437988Y-68347030D01*
X127402981Y-68281537D01*
X127355869Y-68224131D01*
X127298463Y-68177019D01*
X127232970Y-68142012D01*
X127161905Y-68120455D01*
X127088000Y-68113176D01*
X125388000Y-68113176D01*
X125314095Y-68120455D01*
X125243030Y-68142012D01*
X125177537Y-68177019D01*
X125120131Y-68224131D01*
X125073019Y-68281537D01*
X125038012Y-68347030D01*
X125016455Y-68418095D01*
X125009176Y-68492000D01*
X124862000Y-68492000D01*
X124862000Y-65952000D01*
X125009176Y-65952000D01*
X125009176Y-67652000D01*
X125016455Y-67725905D01*
X125038012Y-67796970D01*
X125073019Y-67862463D01*
X125120131Y-67919869D01*
X125177537Y-67966981D01*
X125243030Y-68001988D01*
X125314095Y-68023545D01*
X125388000Y-68030824D01*
X127088000Y-68030824D01*
X127161905Y-68023545D01*
X127232970Y-68001988D01*
X127298463Y-67966981D01*
X127355869Y-67919869D01*
X127402981Y-67862463D01*
X127437988Y-67796970D01*
X127459545Y-67725905D01*
X127466824Y-67652000D01*
X127466824Y-66802000D01*
X127549725Y-66802000D01*
X127571496Y-67023042D01*
X127635971Y-67235590D01*
X127740674Y-67431475D01*
X127881580Y-67603170D01*
X128053275Y-67744076D01*
X128249160Y-67848779D01*
X128461708Y-67913254D01*
X128627365Y-67929570D01*
X129436635Y-67929570D01*
X129602292Y-67913254D01*
X129814840Y-67848779D01*
X130010725Y-67744076D01*
X130182420Y-67603170D01*
X130323326Y-67431475D01*
X130428029Y-67235590D01*
X130492504Y-67023042D01*
X130514275Y-66802000D01*
X130492504Y-66580958D01*
X130428029Y-66368410D01*
X130323326Y-66172525D01*
X130182420Y-66000830D01*
X130010725Y-65859924D01*
X129814840Y-65755221D01*
X129602292Y-65690746D01*
X129436635Y-65674430D01*
X128627365Y-65674430D01*
X128461708Y-65690746D01*
X128249160Y-65755221D01*
X128053275Y-65859924D01*
X127881580Y-66000830D01*
X127740674Y-66172525D01*
X127635971Y-66368410D01*
X127571496Y-66580958D01*
X127549725Y-66802000D01*
X127466824Y-66802000D01*
X127466824Y-65952000D01*
X127459545Y-65878095D01*
X127437988Y-65807030D01*
X127402981Y-65741537D01*
X127355869Y-65684131D01*
X127298463Y-65637019D01*
X127232970Y-65602012D01*
X127161905Y-65580455D01*
X127088000Y-65573176D01*
X125388000Y-65573176D01*
X125314095Y-65580455D01*
X125243030Y-65602012D01*
X125177537Y-65637019D01*
X125120131Y-65684131D01*
X125073019Y-65741537D01*
X125038012Y-65807030D01*
X125016455Y-65878095D01*
X125009176Y-65952000D01*
X124862000Y-65952000D01*
X124862000Y-63412000D01*
X125009176Y-63412000D01*
X125009176Y-65112000D01*
X125016455Y-65185905D01*
X125038012Y-65256970D01*
X125073019Y-65322463D01*
X125120131Y-65379869D01*
X125177537Y-65426981D01*
X125243030Y-65461988D01*
X125314095Y-65483545D01*
X125388000Y-65490824D01*
X127088000Y-65490824D01*
X127161905Y-65483545D01*
X127232970Y-65461988D01*
X127298463Y-65426981D01*
X127355869Y-65379869D01*
X127402981Y-65322463D01*
X127437988Y-65256970D01*
X127459545Y-65185905D01*
X127466824Y-65112000D01*
X127466824Y-64262000D01*
X127549725Y-64262000D01*
X127571496Y-64483042D01*
X127635971Y-64695590D01*
X127740674Y-64891475D01*
X127881580Y-65063170D01*
X128053275Y-65204076D01*
X128249160Y-65308779D01*
X128461708Y-65373254D01*
X128627365Y-65389570D01*
X129436635Y-65389570D01*
X129602292Y-65373254D01*
X129814840Y-65308779D01*
X130010725Y-65204076D01*
X130182420Y-65063170D01*
X130323326Y-64891475D01*
X130428029Y-64695590D01*
X130477652Y-64532000D01*
X135273176Y-64532000D01*
X135273176Y-66532000D01*
X135280455Y-66605905D01*
X135302012Y-66676970D01*
X135337019Y-66742463D01*
X135384131Y-66799869D01*
X135441537Y-66846981D01*
X135507030Y-66881988D01*
X135578095Y-66903545D01*
X135652000Y-66910824D01*
X137574889Y-66910824D01*
X137803603Y-67139538D01*
X137819316Y-67158684D01*
X137895755Y-67221417D01*
X137982964Y-67268031D01*
X138077591Y-67296736D01*
X138151347Y-67304000D01*
X138151356Y-67304000D01*
X138175999Y-67306427D01*
X138200642Y-67304000D01*
X142912537Y-67304000D01*
X142980674Y-67431475D01*
X143121580Y-67603170D01*
X143293275Y-67744076D01*
X143489160Y-67848779D01*
X143701708Y-67913254D01*
X143867365Y-67929570D01*
X144676635Y-67929570D01*
X144842292Y-67913254D01*
X145054840Y-67848779D01*
X145250725Y-67744076D01*
X145422420Y-67603170D01*
X145563326Y-67431475D01*
X145668029Y-67235590D01*
X145732504Y-67023042D01*
X145754275Y-66802000D01*
X145732504Y-66580958D01*
X145668029Y-66368410D01*
X145563326Y-66172525D01*
X145422420Y-66000830D01*
X145250725Y-65859924D01*
X145054840Y-65755221D01*
X144842292Y-65690746D01*
X144676635Y-65674430D01*
X143867365Y-65674430D01*
X143701708Y-65690746D01*
X143489160Y-65755221D01*
X143293275Y-65859924D01*
X143121580Y-66000830D01*
X142980674Y-66172525D01*
X142912537Y-66300000D01*
X138383935Y-66300000D01*
X138030824Y-65946889D01*
X138030824Y-64532000D01*
X138023545Y-64458095D01*
X138001988Y-64387030D01*
X137966981Y-64321537D01*
X137919869Y-64264131D01*
X137917273Y-64262000D01*
X142789725Y-64262000D01*
X142811496Y-64483042D01*
X142875971Y-64695590D01*
X142980674Y-64891475D01*
X143121580Y-65063170D01*
X143293275Y-65204076D01*
X143489160Y-65308779D01*
X143701708Y-65373254D01*
X143867365Y-65389570D01*
X144676635Y-65389570D01*
X144842292Y-65373254D01*
X145054840Y-65308779D01*
X145250725Y-65204076D01*
X145422420Y-65063170D01*
X145563326Y-64891475D01*
X145668029Y-64695590D01*
X145732504Y-64483042D01*
X145754275Y-64262000D01*
X145732504Y-64040958D01*
X145668029Y-63828410D01*
X145563326Y-63632525D01*
X145422420Y-63460830D01*
X145250725Y-63319924D01*
X145054840Y-63215221D01*
X144842292Y-63150746D01*
X144676635Y-63134430D01*
X143867365Y-63134430D01*
X143701708Y-63150746D01*
X143489160Y-63215221D01*
X143293275Y-63319924D01*
X143121580Y-63460830D01*
X142980674Y-63632525D01*
X142875971Y-63828410D01*
X142811496Y-64040958D01*
X142789725Y-64262000D01*
X137917273Y-64262000D01*
X137862463Y-64217019D01*
X137796970Y-64182012D01*
X137725905Y-64160455D01*
X137652000Y-64153176D01*
X135652000Y-64153176D01*
X135578095Y-64160455D01*
X135507030Y-64182012D01*
X135441537Y-64217019D01*
X135384131Y-64264131D01*
X135337019Y-64321537D01*
X135302012Y-64387030D01*
X135280455Y-64458095D01*
X135273176Y-64532000D01*
X130477652Y-64532000D01*
X130492504Y-64483042D01*
X130514275Y-64262000D01*
X130492504Y-64040958D01*
X130428029Y-63828410D01*
X130323326Y-63632525D01*
X130182420Y-63460830D01*
X130010725Y-63319924D01*
X129814840Y-63215221D01*
X129602292Y-63150746D01*
X129436635Y-63134430D01*
X128627365Y-63134430D01*
X128461708Y-63150746D01*
X128249160Y-63215221D01*
X128053275Y-63319924D01*
X127881580Y-63460830D01*
X127740674Y-63632525D01*
X127635971Y-63828410D01*
X127571496Y-64040958D01*
X127549725Y-64262000D01*
X127466824Y-64262000D01*
X127466824Y-63412000D01*
X127459545Y-63338095D01*
X127437988Y-63267030D01*
X127402981Y-63201537D01*
X127355869Y-63144131D01*
X127298463Y-63097019D01*
X127232970Y-63062012D01*
X127161905Y-63040455D01*
X127088000Y-63033176D01*
X125388000Y-63033176D01*
X125314095Y-63040455D01*
X125243030Y-63062012D01*
X125177537Y-63097019D01*
X125120131Y-63144131D01*
X125073019Y-63201537D01*
X125038012Y-63267030D01*
X125016455Y-63338095D01*
X125009176Y-63412000D01*
X124862000Y-63412000D01*
X124862000Y-61722000D01*
X127549725Y-61722000D01*
X127571496Y-61943042D01*
X127635971Y-62155590D01*
X127740674Y-62351475D01*
X127881580Y-62523170D01*
X128053275Y-62664076D01*
X128249160Y-62768779D01*
X128461708Y-62833254D01*
X128627365Y-62849570D01*
X129436635Y-62849570D01*
X129602292Y-62833254D01*
X129814840Y-62768779D01*
X130010725Y-62664076D01*
X130182420Y-62523170D01*
X130323326Y-62351475D01*
X130428029Y-62155590D01*
X130492504Y-61943042D01*
X130514275Y-61722000D01*
X130492504Y-61500958D01*
X130428029Y-61288410D01*
X130323326Y-61092525D01*
X130182420Y-60920830D01*
X130010725Y-60779924D01*
X129814840Y-60675221D01*
X129602292Y-60610746D01*
X129436635Y-60594430D01*
X128627365Y-60594430D01*
X128461708Y-60610746D01*
X128249160Y-60675221D01*
X128053275Y-60779924D01*
X127881580Y-60920830D01*
X127740674Y-61092525D01*
X127635971Y-61288410D01*
X127571496Y-61500958D01*
X127549725Y-61722000D01*
X124862000Y-61722000D01*
X124862000Y-59182000D01*
X127549725Y-59182000D01*
X127571496Y-59403042D01*
X127635971Y-59615590D01*
X127740674Y-59811475D01*
X127881580Y-59983170D01*
X128053275Y-60124076D01*
X128249160Y-60228779D01*
X128461708Y-60293254D01*
X128627365Y-60309570D01*
X129436635Y-60309570D01*
X129602292Y-60293254D01*
X129814840Y-60228779D01*
X130010725Y-60124076D01*
X130182420Y-59983170D01*
X130323326Y-59811475D01*
X130428029Y-59615590D01*
X130492504Y-59403042D01*
X130514275Y-59182000D01*
X130492504Y-58960958D01*
X130428029Y-58748410D01*
X130323326Y-58552525D01*
X130182420Y-58380830D01*
X130010725Y-58239924D01*
X129814840Y-58135221D01*
X129602292Y-58070746D01*
X129436635Y-58054430D01*
X128627365Y-58054430D01*
X128461708Y-58070746D01*
X128249160Y-58135221D01*
X128053275Y-58239924D01*
X127881580Y-58380830D01*
X127740674Y-58552525D01*
X127635971Y-58748410D01*
X127571496Y-58960958D01*
X127549725Y-59182000D01*
X124862000Y-59182000D01*
X124862000Y-56983275D01*
X127339867Y-56983275D01*
X127354050Y-57054902D01*
X127460134Y-57306185D01*
X127613202Y-57531943D01*
X127807372Y-57723502D01*
X128035183Y-57873499D01*
X128287879Y-57976170D01*
X128555750Y-58027570D01*
X128905000Y-58027570D01*
X128905000Y-56769000D01*
X129159000Y-56769000D01*
X129159000Y-58027570D01*
X129508250Y-58027570D01*
X129776121Y-57976170D01*
X129934057Y-57912000D01*
X140249725Y-57912000D01*
X140271496Y-58133042D01*
X140335971Y-58345590D01*
X140440674Y-58541475D01*
X140581580Y-58713170D01*
X140753275Y-58854076D01*
X140949160Y-58958779D01*
X141161708Y-59023254D01*
X141327365Y-59039570D01*
X142136635Y-59039570D01*
X142302292Y-59023254D01*
X142514840Y-58958779D01*
X142710725Y-58854076D01*
X142882420Y-58713170D01*
X142917945Y-58669883D01*
X142875971Y-58748410D01*
X142811496Y-58960958D01*
X142789725Y-59182000D01*
X142811496Y-59403042D01*
X142875971Y-59615590D01*
X142917945Y-59694117D01*
X142882420Y-59650830D01*
X142710725Y-59509924D01*
X142514840Y-59405221D01*
X142302292Y-59340746D01*
X142136635Y-59324430D01*
X141327365Y-59324430D01*
X141161708Y-59340746D01*
X140949160Y-59405221D01*
X140753275Y-59509924D01*
X140581580Y-59650830D01*
X140440674Y-59822525D01*
X140335971Y-60018410D01*
X140271496Y-60230958D01*
X140249725Y-60452000D01*
X140271496Y-60673042D01*
X140335971Y-60885590D01*
X140440674Y-61081475D01*
X140581580Y-61253170D01*
X140753275Y-61394076D01*
X140949160Y-61498779D01*
X141161708Y-61563254D01*
X141327365Y-61579570D01*
X142136635Y-61579570D01*
X142302292Y-61563254D01*
X142514840Y-61498779D01*
X142710725Y-61394076D01*
X142882420Y-61253170D01*
X142917945Y-61209883D01*
X142875971Y-61288410D01*
X142811496Y-61500958D01*
X142789725Y-61722000D01*
X142811496Y-61943042D01*
X142875971Y-62155590D01*
X142980674Y-62351475D01*
X143121580Y-62523170D01*
X143293275Y-62664076D01*
X143489160Y-62768779D01*
X143701708Y-62833254D01*
X143867365Y-62849570D01*
X144676635Y-62849570D01*
X144842292Y-62833254D01*
X145054840Y-62768779D01*
X145250725Y-62664076D01*
X145422420Y-62523170D01*
X145563326Y-62351475D01*
X145668029Y-62155590D01*
X145732504Y-61943042D01*
X145754275Y-61722000D01*
X145732504Y-61500958D01*
X145668029Y-61288410D01*
X145563326Y-61092525D01*
X145422420Y-60920830D01*
X145250725Y-60779924D01*
X145054840Y-60675221D01*
X144842292Y-60610746D01*
X144676635Y-60594430D01*
X143867365Y-60594430D01*
X143701708Y-60610746D01*
X143489160Y-60675221D01*
X143293275Y-60779924D01*
X143121580Y-60920830D01*
X143086055Y-60964117D01*
X143128029Y-60885590D01*
X143192504Y-60673042D01*
X143214275Y-60452000D01*
X143192504Y-60230958D01*
X143128029Y-60018410D01*
X143086055Y-59939883D01*
X143121580Y-59983170D01*
X143293275Y-60124076D01*
X143489160Y-60228779D01*
X143701708Y-60293254D01*
X143867365Y-60309570D01*
X144676635Y-60309570D01*
X144842292Y-60293254D01*
X145054840Y-60228779D01*
X145250725Y-60124076D01*
X145422420Y-59983170D01*
X145563326Y-59811475D01*
X145668029Y-59615590D01*
X145732504Y-59403042D01*
X145754275Y-59182000D01*
X145732504Y-58960958D01*
X145668029Y-58748410D01*
X145563326Y-58552525D01*
X145422420Y-58380830D01*
X145250725Y-58239924D01*
X145054840Y-58135221D01*
X144842292Y-58070746D01*
X144676635Y-58054430D01*
X143867365Y-58054430D01*
X143701708Y-58070746D01*
X143489160Y-58135221D01*
X143293275Y-58239924D01*
X143121580Y-58380830D01*
X143086055Y-58424117D01*
X143128029Y-58345590D01*
X143192504Y-58133042D01*
X143214275Y-57912000D01*
X143192504Y-57690958D01*
X143128029Y-57478410D01*
X143086055Y-57399883D01*
X143121580Y-57443170D01*
X143293275Y-57584076D01*
X143489160Y-57688779D01*
X143701708Y-57753254D01*
X143867365Y-57769570D01*
X144676635Y-57769570D01*
X144842292Y-57753254D01*
X145054840Y-57688779D01*
X145250725Y-57584076D01*
X145422420Y-57443170D01*
X145563326Y-57271475D01*
X145668029Y-57075590D01*
X145732504Y-56863042D01*
X145754275Y-56642000D01*
X145732504Y-56420958D01*
X145668029Y-56208410D01*
X145563326Y-56012525D01*
X145422420Y-55840830D01*
X145250725Y-55699924D01*
X145054840Y-55595221D01*
X144842292Y-55530746D01*
X144676635Y-55514430D01*
X143867365Y-55514430D01*
X143701708Y-55530746D01*
X143489160Y-55595221D01*
X143293275Y-55699924D01*
X143121580Y-55840830D01*
X143026554Y-55956620D01*
X142255000Y-55185066D01*
X142255000Y-55041472D01*
X142225141Y-54891357D01*
X142166569Y-54749952D01*
X142081536Y-54622691D01*
X141973309Y-54514464D01*
X141846048Y-54429431D01*
X141704643Y-54370859D01*
X141554528Y-54341000D01*
X141401472Y-54341000D01*
X141251357Y-54370859D01*
X141109952Y-54429431D01*
X140982691Y-54514464D01*
X140874464Y-54622691D01*
X140789431Y-54749952D01*
X140730859Y-54891357D01*
X140701000Y-55041472D01*
X140701000Y-55194528D01*
X140730859Y-55344643D01*
X140789431Y-55486048D01*
X140874464Y-55613309D01*
X140982691Y-55721536D01*
X141109952Y-55806569D01*
X141251357Y-55865141D01*
X141401472Y-55895000D01*
X141545066Y-55895000D01*
X142515798Y-56865733D01*
X142514840Y-56865221D01*
X142302292Y-56800746D01*
X142136635Y-56784430D01*
X141327365Y-56784430D01*
X141161708Y-56800746D01*
X140949160Y-56865221D01*
X140753275Y-56969924D01*
X140581580Y-57110830D01*
X140440674Y-57282525D01*
X140335971Y-57478410D01*
X140271496Y-57690958D01*
X140249725Y-57912000D01*
X129934057Y-57912000D01*
X130028817Y-57873499D01*
X130256628Y-57723502D01*
X130450798Y-57531943D01*
X130603866Y-57306185D01*
X130709950Y-57054902D01*
X130724133Y-56983275D01*
X130601479Y-56769000D01*
X129159000Y-56769000D01*
X128905000Y-56769000D01*
X127462521Y-56769000D01*
X127339867Y-56983275D01*
X124862000Y-56983275D01*
X124862000Y-56300725D01*
X127339867Y-56300725D01*
X127462521Y-56515000D01*
X128905000Y-56515000D01*
X128905000Y-55256430D01*
X129159000Y-55256430D01*
X129159000Y-56515000D01*
X130601479Y-56515000D01*
X130724133Y-56300725D01*
X130709950Y-56229098D01*
X130603866Y-55977815D01*
X130450798Y-55752057D01*
X130256628Y-55560498D01*
X130028817Y-55410501D01*
X129776121Y-55307830D01*
X129508250Y-55256430D01*
X129159000Y-55256430D01*
X128905000Y-55256430D01*
X128555750Y-55256430D01*
X128287879Y-55307830D01*
X128035183Y-55410501D01*
X127807372Y-55560498D01*
X127613202Y-55752057D01*
X127460134Y-55977815D01*
X127354050Y-56229098D01*
X127339867Y-56300725D01*
X124862000Y-56300725D01*
X124862000Y-54102000D01*
X127549725Y-54102000D01*
X127571496Y-54323042D01*
X127635971Y-54535590D01*
X127740674Y-54731475D01*
X127881580Y-54903170D01*
X128053275Y-55044076D01*
X128249160Y-55148779D01*
X128461708Y-55213254D01*
X128627365Y-55229570D01*
X129436635Y-55229570D01*
X129602292Y-55213254D01*
X129814840Y-55148779D01*
X130010725Y-55044076D01*
X130182420Y-54903170D01*
X130323326Y-54731475D01*
X130428029Y-54535590D01*
X130492504Y-54323042D01*
X130514275Y-54102000D01*
X142789725Y-54102000D01*
X142811496Y-54323042D01*
X142875971Y-54535590D01*
X142980674Y-54731475D01*
X143121580Y-54903170D01*
X143293275Y-55044076D01*
X143489160Y-55148779D01*
X143701708Y-55213254D01*
X143867365Y-55229570D01*
X144676635Y-55229570D01*
X144842292Y-55213254D01*
X145054840Y-55148779D01*
X145250725Y-55044076D01*
X145422420Y-54903170D01*
X145563326Y-54731475D01*
X145668029Y-54535590D01*
X145732213Y-54324000D01*
X146635928Y-54324000D01*
X146648188Y-54448482D01*
X146684498Y-54568180D01*
X146743463Y-54678494D01*
X146822815Y-54775185D01*
X146919506Y-54854537D01*
X147029820Y-54913502D01*
X147149518Y-54949812D01*
X147274000Y-54962072D01*
X148988250Y-54959000D01*
X149147000Y-54800250D01*
X149147000Y-52451000D01*
X149401000Y-52451000D01*
X149401000Y-54800250D01*
X149559750Y-54959000D01*
X151274000Y-54962072D01*
X151398482Y-54949812D01*
X151518180Y-54913502D01*
X151628494Y-54854537D01*
X151725185Y-54775185D01*
X151804537Y-54678494D01*
X151863502Y-54568180D01*
X151899812Y-54448482D01*
X151912072Y-54324000D01*
X151909000Y-52609750D01*
X151750250Y-52451000D01*
X149401000Y-52451000D01*
X149147000Y-52451000D01*
X146797750Y-52451000D01*
X146639000Y-52609750D01*
X146635928Y-54324000D01*
X145732213Y-54324000D01*
X145732504Y-54323042D01*
X145754275Y-54102000D01*
X145732504Y-53880958D01*
X145668029Y-53668410D01*
X145563326Y-53472525D01*
X145422420Y-53300830D01*
X145250725Y-53159924D01*
X145054840Y-53055221D01*
X144842292Y-52990746D01*
X144676635Y-52974430D01*
X143867365Y-52974430D01*
X143701708Y-52990746D01*
X143489160Y-53055221D01*
X143293275Y-53159924D01*
X143121580Y-53300830D01*
X142980674Y-53472525D01*
X142875971Y-53668410D01*
X142811496Y-53880958D01*
X142789725Y-54102000D01*
X130514275Y-54102000D01*
X130492504Y-53880958D01*
X130428029Y-53668410D01*
X130323326Y-53472525D01*
X130182420Y-53300830D01*
X130010725Y-53159924D01*
X129814840Y-53055221D01*
X129602292Y-52990746D01*
X129436635Y-52974430D01*
X128627365Y-52974430D01*
X128461708Y-52990746D01*
X128249160Y-53055221D01*
X128053275Y-53159924D01*
X127881580Y-53300830D01*
X127740674Y-53472525D01*
X127635971Y-53668410D01*
X127571496Y-53880958D01*
X127549725Y-54102000D01*
X124862000Y-54102000D01*
X124862000Y-50712000D01*
X125009176Y-50712000D01*
X125009176Y-52412000D01*
X125016455Y-52485905D01*
X125038012Y-52556970D01*
X125073019Y-52622463D01*
X125120131Y-52679869D01*
X125177537Y-52726981D01*
X125243030Y-52761988D01*
X125314095Y-52783545D01*
X125388000Y-52790824D01*
X127088000Y-52790824D01*
X127161905Y-52783545D01*
X127232970Y-52761988D01*
X127298463Y-52726981D01*
X127355869Y-52679869D01*
X127402981Y-52622463D01*
X127437988Y-52556970D01*
X127459545Y-52485905D01*
X127466824Y-52412000D01*
X127466824Y-51562000D01*
X127549725Y-51562000D01*
X127571496Y-51783042D01*
X127635971Y-51995590D01*
X127740674Y-52191475D01*
X127881580Y-52363170D01*
X128053275Y-52504076D01*
X128249160Y-52608779D01*
X128461708Y-52673254D01*
X128627365Y-52689570D01*
X129436635Y-52689570D01*
X129602292Y-52673254D01*
X129814840Y-52608779D01*
X130010725Y-52504076D01*
X130182420Y-52363170D01*
X130323326Y-52191475D01*
X130428029Y-51995590D01*
X130456032Y-51903275D01*
X142579867Y-51903275D01*
X142594050Y-51974902D01*
X142700134Y-52226185D01*
X142853202Y-52451943D01*
X143047372Y-52643502D01*
X143275183Y-52793499D01*
X143527879Y-52896170D01*
X143795750Y-52947570D01*
X144145000Y-52947570D01*
X144145000Y-51689000D01*
X144399000Y-51689000D01*
X144399000Y-52947570D01*
X144748250Y-52947570D01*
X145016121Y-52896170D01*
X145268817Y-52793499D01*
X145496628Y-52643502D01*
X145690798Y-52451943D01*
X145843866Y-52226185D01*
X145949950Y-51974902D01*
X145964133Y-51903275D01*
X145841479Y-51689000D01*
X144399000Y-51689000D01*
X144145000Y-51689000D01*
X142702521Y-51689000D01*
X142579867Y-51903275D01*
X130456032Y-51903275D01*
X130492504Y-51783042D01*
X130514275Y-51562000D01*
X130492504Y-51340958D01*
X130456033Y-51220725D01*
X142579867Y-51220725D01*
X142702521Y-51435000D01*
X144145000Y-51435000D01*
X144145000Y-50176430D01*
X144399000Y-50176430D01*
X144399000Y-51435000D01*
X145841479Y-51435000D01*
X145964133Y-51220725D01*
X145949950Y-51149098D01*
X145843866Y-50897815D01*
X145690798Y-50672057D01*
X145496628Y-50480498D01*
X145268817Y-50330501D01*
X145252817Y-50324000D01*
X146635928Y-50324000D01*
X146639000Y-52038250D01*
X146797750Y-52197000D01*
X149147000Y-52197000D01*
X149147000Y-49847750D01*
X149401000Y-49847750D01*
X149401000Y-52197000D01*
X151750250Y-52197000D01*
X151909000Y-52038250D01*
X151912072Y-50324000D01*
X151899812Y-50199518D01*
X151863502Y-50079820D01*
X151804537Y-49969506D01*
X151725185Y-49872815D01*
X151628494Y-49793463D01*
X151518180Y-49734498D01*
X151398482Y-49698188D01*
X151274000Y-49685928D01*
X149559750Y-49689000D01*
X149401000Y-49847750D01*
X149147000Y-49847750D01*
X148988250Y-49689000D01*
X147274000Y-49685928D01*
X147149518Y-49698188D01*
X147029820Y-49734498D01*
X146919506Y-49793463D01*
X146822815Y-49872815D01*
X146743463Y-49969506D01*
X146684498Y-50079820D01*
X146648188Y-50199518D01*
X146635928Y-50324000D01*
X145252817Y-50324000D01*
X145016121Y-50227830D01*
X144748250Y-50176430D01*
X144399000Y-50176430D01*
X144145000Y-50176430D01*
X143795750Y-50176430D01*
X143527879Y-50227830D01*
X143275183Y-50330501D01*
X143047372Y-50480498D01*
X142853202Y-50672057D01*
X142700134Y-50897815D01*
X142594050Y-51149098D01*
X142579867Y-51220725D01*
X130456033Y-51220725D01*
X130428029Y-51128410D01*
X130323326Y-50932525D01*
X130182420Y-50760830D01*
X130010725Y-50619924D01*
X129814840Y-50515221D01*
X129602292Y-50450746D01*
X129436635Y-50434430D01*
X128627365Y-50434430D01*
X128461708Y-50450746D01*
X128249160Y-50515221D01*
X128053275Y-50619924D01*
X127881580Y-50760830D01*
X127740674Y-50932525D01*
X127635971Y-51128410D01*
X127571496Y-51340958D01*
X127549725Y-51562000D01*
X127466824Y-51562000D01*
X127466824Y-50712000D01*
X127459545Y-50638095D01*
X127437988Y-50567030D01*
X127402981Y-50501537D01*
X127355869Y-50444131D01*
X127298463Y-50397019D01*
X127232970Y-50362012D01*
X127161905Y-50340455D01*
X127088000Y-50333176D01*
X125388000Y-50333176D01*
X125314095Y-50340455D01*
X125243030Y-50362012D01*
X125177537Y-50397019D01*
X125120131Y-50444131D01*
X125073019Y-50501537D01*
X125038012Y-50567030D01*
X125016455Y-50638095D01*
X125009176Y-50712000D01*
X124862000Y-50712000D01*
X124862000Y-48172000D01*
X125009176Y-48172000D01*
X125009176Y-49872000D01*
X125016455Y-49945905D01*
X125038012Y-50016970D01*
X125073019Y-50082463D01*
X125120131Y-50139869D01*
X125177537Y-50186981D01*
X125243030Y-50221988D01*
X125314095Y-50243545D01*
X125388000Y-50250824D01*
X127088000Y-50250824D01*
X127161905Y-50243545D01*
X127232970Y-50221988D01*
X127298463Y-50186981D01*
X127355869Y-50139869D01*
X127402981Y-50082463D01*
X127437988Y-50016970D01*
X127459545Y-49945905D01*
X127466824Y-49872000D01*
X127466824Y-49022000D01*
X127549725Y-49022000D01*
X127571496Y-49243042D01*
X127635971Y-49455590D01*
X127740674Y-49651475D01*
X127881580Y-49823170D01*
X128053275Y-49964076D01*
X128249160Y-50068779D01*
X128461708Y-50133254D01*
X128627365Y-50149570D01*
X129436635Y-50149570D01*
X129602292Y-50133254D01*
X129814840Y-50068779D01*
X130010725Y-49964076D01*
X130182420Y-49823170D01*
X130323326Y-49651475D01*
X130428029Y-49455590D01*
X130492504Y-49243042D01*
X130514275Y-49022000D01*
X130492504Y-48800958D01*
X130428029Y-48588410D01*
X130323326Y-48392525D01*
X130182420Y-48220830D01*
X130010725Y-48079924D01*
X129814840Y-47975221D01*
X129602292Y-47910746D01*
X129436635Y-47894430D01*
X128627365Y-47894430D01*
X128461708Y-47910746D01*
X128249160Y-47975221D01*
X128053275Y-48079924D01*
X127881580Y-48220830D01*
X127740674Y-48392525D01*
X127635971Y-48588410D01*
X127571496Y-48800958D01*
X127549725Y-49022000D01*
X127466824Y-49022000D01*
X127466824Y-48172000D01*
X127459545Y-48098095D01*
X127437988Y-48027030D01*
X127402981Y-47961537D01*
X127355869Y-47904131D01*
X127298463Y-47857019D01*
X127232970Y-47822012D01*
X127161905Y-47800455D01*
X127088000Y-47793176D01*
X125388000Y-47793176D01*
X125314095Y-47800455D01*
X125243030Y-47822012D01*
X125177537Y-47857019D01*
X125120131Y-47904131D01*
X125073019Y-47961537D01*
X125038012Y-48027030D01*
X125016455Y-48098095D01*
X125009176Y-48172000D01*
X124862000Y-48172000D01*
X124862000Y-39937282D01*
X126039000Y-39937282D01*
X126039000Y-40326718D01*
X126114975Y-40708670D01*
X126264005Y-41068461D01*
X126480364Y-41392264D01*
X126755736Y-41667636D01*
X127079539Y-41883995D01*
X127439330Y-42033025D01*
X127821282Y-42109000D01*
X128210718Y-42109000D01*
X128592670Y-42033025D01*
X128952461Y-41883995D01*
X129276264Y-41667636D01*
X129551636Y-41392264D01*
X129767995Y-41068461D01*
X129793265Y-41007453D01*
X133955000Y-41007453D01*
X133955000Y-41288547D01*
X134009838Y-41564241D01*
X134117409Y-41823938D01*
X134273576Y-42057660D01*
X134472340Y-42256424D01*
X134706062Y-42412591D01*
X134965759Y-42520162D01*
X135241453Y-42575000D01*
X135522547Y-42575000D01*
X135798241Y-42520162D01*
X136057938Y-42412591D01*
X136291660Y-42256424D01*
X136490424Y-42057660D01*
X136493176Y-42053541D01*
X136493176Y-42198000D01*
X136500455Y-42271905D01*
X136522012Y-42342970D01*
X136557019Y-42408463D01*
X136604131Y-42465869D01*
X136661537Y-42512981D01*
X136727030Y-42547988D01*
X136798095Y-42569545D01*
X136872000Y-42576824D01*
X138972000Y-42576824D01*
X139045905Y-42569545D01*
X139116970Y-42547988D01*
X139182463Y-42512981D01*
X139239869Y-42465869D01*
X139286981Y-42408463D01*
X139321988Y-42342970D01*
X139343545Y-42271905D01*
X139350824Y-42198000D01*
X139350824Y-40535178D01*
X139611003Y-40274999D01*
X141615081Y-40274999D01*
X141483409Y-40472062D01*
X141375838Y-40731759D01*
X141321000Y-41007453D01*
X141321000Y-41288547D01*
X141375838Y-41564241D01*
X141483409Y-41823938D01*
X141639576Y-42057660D01*
X141838340Y-42256424D01*
X142072062Y-42412591D01*
X142331759Y-42520162D01*
X142607453Y-42575000D01*
X142888547Y-42575000D01*
X143164241Y-42520162D01*
X143423938Y-42412591D01*
X143657660Y-42256424D01*
X143856424Y-42057660D01*
X143859176Y-42053541D01*
X143859176Y-42198000D01*
X143866455Y-42271905D01*
X143888012Y-42342970D01*
X143923019Y-42408463D01*
X143970131Y-42465869D01*
X144027537Y-42512981D01*
X144093030Y-42547988D01*
X144164095Y-42569545D01*
X144238000Y-42576824D01*
X144711001Y-42576824D01*
X144711000Y-47766998D01*
X144583568Y-47894430D01*
X143867365Y-47894430D01*
X143701708Y-47910746D01*
X143489160Y-47975221D01*
X143293275Y-48079924D01*
X143121580Y-48220830D01*
X142980674Y-48392525D01*
X142875971Y-48588410D01*
X142811496Y-48800958D01*
X142789725Y-49022000D01*
X142811496Y-49243042D01*
X142875971Y-49455590D01*
X142980674Y-49651475D01*
X143121580Y-49823170D01*
X143293275Y-49964076D01*
X143489160Y-50068779D01*
X143701708Y-50133254D01*
X143867365Y-50149570D01*
X144676635Y-50149570D01*
X144842292Y-50133254D01*
X145054840Y-50068779D01*
X145250725Y-49964076D01*
X145422420Y-49823170D01*
X145563326Y-49651475D01*
X145668029Y-49455590D01*
X145732504Y-49243042D01*
X145754275Y-49022000D01*
X145732504Y-48800958D01*
X145668029Y-48588410D01*
X145617021Y-48492981D01*
X145675968Y-48434034D01*
X145697974Y-48415974D01*
X145717219Y-48392525D01*
X145726448Y-48381278D01*
X145770079Y-48328115D01*
X145823657Y-48227876D01*
X145840607Y-48172000D01*
X145856651Y-48119112D01*
X145867790Y-48006000D01*
X145865000Y-47977669D01*
X145865000Y-46975866D01*
X146011472Y-47005000D01*
X146164528Y-47005000D01*
X146314643Y-46975141D01*
X146456048Y-46916569D01*
X146583309Y-46831536D01*
X146691536Y-46723309D01*
X146776569Y-46596048D01*
X146826295Y-46476000D01*
X147982182Y-46476000D01*
X147989639Y-46551708D01*
X148025067Y-46668499D01*
X148082599Y-46776134D01*
X148160024Y-46870476D01*
X148254366Y-46947901D01*
X148362001Y-47005433D01*
X148478792Y-47040861D01*
X148600250Y-47052824D01*
X149087750Y-47052824D01*
X149209208Y-47040861D01*
X149325999Y-47005433D01*
X149433634Y-46947901D01*
X149527976Y-46870476D01*
X149605401Y-46776134D01*
X149662933Y-46668499D01*
X149698361Y-46551708D01*
X149710324Y-46430250D01*
X149710324Y-45517750D01*
X149852676Y-45517750D01*
X149852676Y-46430250D01*
X149864639Y-46551708D01*
X149900067Y-46668499D01*
X149957599Y-46776134D01*
X150035024Y-46870476D01*
X150129366Y-46947901D01*
X150237001Y-47005433D01*
X150353792Y-47040861D01*
X150475250Y-47052824D01*
X150962750Y-47052824D01*
X151084208Y-47040861D01*
X151200999Y-47005433D01*
X151308634Y-46947901D01*
X151402976Y-46870476D01*
X151480401Y-46776134D01*
X151537933Y-46668499D01*
X151559500Y-46597402D01*
X151581067Y-46668499D01*
X151638599Y-46776134D01*
X151716024Y-46870476D01*
X151810366Y-46947901D01*
X151918001Y-47005433D01*
X152034792Y-47040861D01*
X152156250Y-47052824D01*
X152643750Y-47052824D01*
X152765208Y-47040861D01*
X152881999Y-47005433D01*
X152989634Y-46947901D01*
X153083976Y-46870476D01*
X153159692Y-46778216D01*
X153161688Y-46798482D01*
X153197998Y-46918180D01*
X153256963Y-47028494D01*
X153336315Y-47125185D01*
X153433006Y-47204537D01*
X153543320Y-47263502D01*
X153663018Y-47299812D01*
X153787500Y-47312072D01*
X153989250Y-47309000D01*
X154148000Y-47150250D01*
X154148000Y-46101000D01*
X154402000Y-46101000D01*
X154402000Y-47150250D01*
X154560750Y-47309000D01*
X154762500Y-47312072D01*
X154886982Y-47299812D01*
X155006680Y-47263502D01*
X155116994Y-47204537D01*
X155213685Y-47125185D01*
X155293037Y-47028494D01*
X155352002Y-46918180D01*
X155388312Y-46798482D01*
X155400572Y-46674000D01*
X155397500Y-46259750D01*
X155238750Y-46101000D01*
X154402000Y-46101000D01*
X154148000Y-46101000D01*
X154128000Y-46101000D01*
X154128000Y-45847000D01*
X154148000Y-45847000D01*
X154148000Y-44797750D01*
X154402000Y-44797750D01*
X154402000Y-45847000D01*
X155238750Y-45847000D01*
X155397500Y-45688250D01*
X155400572Y-45274000D01*
X155388312Y-45149518D01*
X155352002Y-45029820D01*
X155293037Y-44919506D01*
X155213685Y-44822815D01*
X155116994Y-44743463D01*
X155006680Y-44684498D01*
X154886982Y-44648188D01*
X154762500Y-44635928D01*
X154560750Y-44639000D01*
X154402000Y-44797750D01*
X154148000Y-44797750D01*
X153989250Y-44639000D01*
X153787500Y-44635928D01*
X153663018Y-44648188D01*
X153543320Y-44684498D01*
X153433006Y-44743463D01*
X153336315Y-44822815D01*
X153256963Y-44919506D01*
X153197998Y-45029820D01*
X153161688Y-45149518D01*
X153159692Y-45169784D01*
X153083976Y-45077524D01*
X152989634Y-45000099D01*
X152881999Y-44942567D01*
X152765208Y-44907139D01*
X152643750Y-44895176D01*
X152156250Y-44895176D01*
X152034792Y-44907139D01*
X151918001Y-44942567D01*
X151810366Y-45000099D01*
X151716024Y-45077524D01*
X151638599Y-45171866D01*
X151581067Y-45279501D01*
X151559500Y-45350598D01*
X151537933Y-45279501D01*
X151480401Y-45171866D01*
X151402976Y-45077524D01*
X151308634Y-45000099D01*
X151200999Y-44942567D01*
X151084208Y-44907139D01*
X150962750Y-44895176D01*
X150475250Y-44895176D01*
X150353792Y-44907139D01*
X150237001Y-44942567D01*
X150129366Y-45000099D01*
X150035024Y-45077524D01*
X149957599Y-45171866D01*
X149900067Y-45279501D01*
X149864639Y-45396292D01*
X149852676Y-45517750D01*
X149710324Y-45517750D01*
X149698361Y-45396292D01*
X149662933Y-45279501D01*
X149605401Y-45171866D01*
X149527976Y-45077524D01*
X149433634Y-45000099D01*
X149325999Y-44942567D01*
X149209208Y-44907139D01*
X149087750Y-44895176D01*
X148600250Y-44895176D01*
X148478792Y-44907139D01*
X148362001Y-44942567D01*
X148254366Y-45000099D01*
X148160024Y-45077524D01*
X148082599Y-45171866D01*
X148025067Y-45279501D01*
X147989639Y-45396292D01*
X147982182Y-45472000D01*
X146366642Y-45472000D01*
X146341999Y-45469573D01*
X146317356Y-45472000D01*
X146317347Y-45472000D01*
X146285750Y-45475112D01*
X146164528Y-45451000D01*
X146011472Y-45451000D01*
X145865000Y-45480134D01*
X145865000Y-42576824D01*
X146338000Y-42576824D01*
X146411905Y-42569545D01*
X146482970Y-42547988D01*
X146548463Y-42512981D01*
X146605869Y-42465869D01*
X146652981Y-42408463D01*
X146687988Y-42342970D01*
X146709545Y-42271905D01*
X146716824Y-42198000D01*
X146716824Y-41725000D01*
X149278906Y-41725000D01*
X149280647Y-41729202D01*
X149414927Y-41930167D01*
X149585833Y-42101073D01*
X149786798Y-42235353D01*
X150010097Y-42327847D01*
X150247151Y-42375000D01*
X150488849Y-42375000D01*
X150725903Y-42327847D01*
X150949202Y-42235353D01*
X151150167Y-42101073D01*
X151321073Y-41930167D01*
X151421112Y-41780447D01*
X151419928Y-41998000D01*
X151432188Y-42122482D01*
X151468498Y-42242180D01*
X151527463Y-42352494D01*
X151606815Y-42449185D01*
X151703506Y-42528537D01*
X151813820Y-42587502D01*
X151933518Y-42623812D01*
X152058000Y-42636072D01*
X152622250Y-42633000D01*
X152781000Y-42474250D01*
X152781000Y-41275000D01*
X153035000Y-41275000D01*
X153035000Y-42474250D01*
X153193750Y-42633000D01*
X153758000Y-42636072D01*
X153882482Y-42623812D01*
X154002180Y-42587502D01*
X154112494Y-42528537D01*
X154209185Y-42449185D01*
X154288537Y-42352494D01*
X154347502Y-42242180D01*
X154383812Y-42122482D01*
X154396072Y-41998000D01*
X154393000Y-41433750D01*
X154234250Y-41275000D01*
X153035000Y-41275000D01*
X152781000Y-41275000D01*
X152761000Y-41275000D01*
X152761000Y-41021000D01*
X152781000Y-41021000D01*
X152781000Y-41001000D01*
X153035000Y-41001000D01*
X153035000Y-41021000D01*
X154234250Y-41021000D01*
X154393000Y-40862250D01*
X154396072Y-40298000D01*
X154383812Y-40173518D01*
X154347502Y-40053820D01*
X154290405Y-39947000D01*
X154700999Y-39947000D01*
X159697000Y-44943002D01*
X159697001Y-49945176D01*
X158274000Y-49945176D01*
X158200095Y-49952455D01*
X158129030Y-49974012D01*
X158063537Y-50009019D01*
X158006131Y-50056131D01*
X157959019Y-50113537D01*
X157924012Y-50179030D01*
X157902455Y-50250095D01*
X157895176Y-50324000D01*
X157895176Y-54324000D01*
X157902455Y-54397905D01*
X157924012Y-54468970D01*
X157959019Y-54534463D01*
X158006131Y-54591869D01*
X158063537Y-54638981D01*
X158129030Y-54673988D01*
X158200095Y-54695545D01*
X158274000Y-54702824D01*
X162274000Y-54702824D01*
X162347905Y-54695545D01*
X162418970Y-54673988D01*
X162484463Y-54638981D01*
X162541869Y-54591869D01*
X162588981Y-54534463D01*
X162623988Y-54468970D01*
X162645545Y-54397905D01*
X162652824Y-54324000D01*
X162652824Y-50324000D01*
X162645545Y-50250095D01*
X162623988Y-50179030D01*
X162588981Y-50113537D01*
X162541869Y-50056131D01*
X162484463Y-50009019D01*
X162418970Y-49974012D01*
X162347905Y-49952455D01*
X162274000Y-49945176D01*
X160851000Y-49945176D01*
X160851000Y-44732328D01*
X160853790Y-44703999D01*
X160851000Y-44675670D01*
X160851000Y-44675664D01*
X160842650Y-44590888D01*
X160809657Y-44482124D01*
X160756079Y-44381885D01*
X160683974Y-44294026D01*
X160661969Y-44275967D01*
X156323284Y-39937282D01*
X158551000Y-39937282D01*
X158551000Y-40326718D01*
X158626975Y-40708670D01*
X158776005Y-41068461D01*
X158992364Y-41392264D01*
X159267736Y-41667636D01*
X159591539Y-41883995D01*
X159951330Y-42033025D01*
X160333282Y-42109000D01*
X160722718Y-42109000D01*
X161104670Y-42033025D01*
X161464461Y-41883995D01*
X161788264Y-41667636D01*
X162063636Y-41392264D01*
X162279995Y-41068461D01*
X162429025Y-40708670D01*
X162505000Y-40326718D01*
X162505000Y-39937282D01*
X162429025Y-39555330D01*
X162279995Y-39195539D01*
X162063636Y-38871736D01*
X161788264Y-38596364D01*
X161464461Y-38380005D01*
X161104670Y-38230975D01*
X160722718Y-38155000D01*
X160333282Y-38155000D01*
X159951330Y-38230975D01*
X159591539Y-38380005D01*
X159267736Y-38596364D01*
X158992364Y-38871736D01*
X158776005Y-39195539D01*
X158626975Y-39555330D01*
X158551000Y-39937282D01*
X156323284Y-39937282D01*
X155368039Y-38982038D01*
X155349974Y-38960026D01*
X155262115Y-38887921D01*
X155161876Y-38834343D01*
X155097770Y-38814897D01*
X155053111Y-38801349D01*
X154998045Y-38795926D01*
X154968336Y-38793000D01*
X154968331Y-38793000D01*
X154940000Y-38790210D01*
X154911669Y-38793000D01*
X150972247Y-38793000D01*
X150943918Y-38790210D01*
X150915589Y-38793000D01*
X150915583Y-38793000D01*
X150830807Y-38801350D01*
X150722043Y-38834343D01*
X150621804Y-38887921D01*
X150533945Y-38960026D01*
X150515880Y-38982038D01*
X149980034Y-39517884D01*
X149958027Y-39535945D01*
X149939966Y-39557952D01*
X149939963Y-39557955D01*
X149917861Y-39584887D01*
X149885922Y-39623804D01*
X149832344Y-39724043D01*
X149799349Y-39832808D01*
X149788210Y-39945919D01*
X149791001Y-39974260D01*
X149791001Y-40058906D01*
X149786798Y-40060647D01*
X149585833Y-40194927D01*
X149414927Y-40365833D01*
X149280647Y-40566798D01*
X149278906Y-40571000D01*
X146716824Y-40571000D01*
X146716824Y-40098000D01*
X146709545Y-40024095D01*
X146687988Y-39953030D01*
X146652981Y-39887537D01*
X146605869Y-39830131D01*
X146548463Y-39783019D01*
X146482970Y-39748012D01*
X146411905Y-39726455D01*
X146338000Y-39719176D01*
X144675177Y-39719176D01*
X144266038Y-39310037D01*
X144247973Y-39288025D01*
X144160114Y-39215920D01*
X144059875Y-39162342D01*
X143995769Y-39142896D01*
X143951110Y-39129348D01*
X143896044Y-39123925D01*
X143866335Y-39120999D01*
X143866330Y-39120999D01*
X143837999Y-39118209D01*
X143809668Y-39120999D01*
X139400329Y-39120999D01*
X139372000Y-39118209D01*
X139343671Y-39120999D01*
X139343665Y-39120999D01*
X139258889Y-39129349D01*
X139150125Y-39162342D01*
X139049886Y-39215920D01*
X139003981Y-39253594D01*
X138984036Y-39269962D01*
X138984034Y-39269964D01*
X138962027Y-39288025D01*
X138943966Y-39310032D01*
X138534822Y-39719176D01*
X136872000Y-39719176D01*
X136798095Y-39726455D01*
X136727030Y-39748012D01*
X136661537Y-39783019D01*
X136604131Y-39830131D01*
X136557019Y-39887537D01*
X136522012Y-39953030D01*
X136500455Y-40024095D01*
X136493176Y-40098000D01*
X136493176Y-40242459D01*
X136490424Y-40238340D01*
X136291660Y-40039576D01*
X136057938Y-39883409D01*
X135798241Y-39775838D01*
X135522547Y-39721000D01*
X135241453Y-39721000D01*
X134965759Y-39775838D01*
X134706062Y-39883409D01*
X134472340Y-40039576D01*
X134273576Y-40238340D01*
X134117409Y-40472062D01*
X134009838Y-40731759D01*
X133955000Y-41007453D01*
X129793265Y-41007453D01*
X129917025Y-40708670D01*
X129993000Y-40326718D01*
X129993000Y-39937282D01*
X129917025Y-39555330D01*
X129767995Y-39195539D01*
X129551636Y-38871736D01*
X129276264Y-38596364D01*
X128952461Y-38380005D01*
X128592670Y-38230975D01*
X128210718Y-38155000D01*
X127821282Y-38155000D01*
X127439330Y-38230975D01*
X127079539Y-38380005D01*
X126755736Y-38596364D01*
X126480364Y-38871736D01*
X126264005Y-39195539D01*
X126114975Y-39555330D01*
X126039000Y-39937282D01*
X124862000Y-39937282D01*
X124862000Y-36978000D01*
X163682001Y-36978000D01*
X163682000Y-101198000D01*
M02*
