G04 #@! TF.GenerationSoftware,KiCad,Pcbnew,5.1.5-52549c5~84~ubuntu19.04.1*
G04 #@! TF.CreationDate,2019-12-06T19:41:43+01:00*
G04 #@! TF.ProjectId,Rocket_PCB,526f636b-6574-45f5-9043-422e6b696361,rev?*
G04 #@! TF.SameCoordinates,Original*
G04 #@! TF.FileFunction,Paste,Bot*
G04 #@! TF.FilePolarity,Positive*
%FSLAX46Y46*%
G04 Gerber Fmt 4.6, Leading zero omitted, Abs format (unit mm)*
G04 Created by KiCad (PCBNEW 5.1.5-52549c5~84~ubuntu19.04.1) date 2019-12-06 19:41:43*
%MOMM*%
%LPD*%
G04 APERTURE LIST*
%ADD10C,0.100000*%
%ADD11R,0.800000X0.900000*%
G04 APERTURE END LIST*
D10*
G36*
X140475642Y-49847174D02*
G01*
X140499303Y-49850684D01*
X140522507Y-49856496D01*
X140545029Y-49864554D01*
X140566653Y-49874782D01*
X140587170Y-49887079D01*
X140606383Y-49901329D01*
X140624107Y-49917393D01*
X140640171Y-49935117D01*
X140654421Y-49954330D01*
X140666718Y-49974847D01*
X140676946Y-49996471D01*
X140685004Y-50018993D01*
X140690816Y-50042197D01*
X140694326Y-50065858D01*
X140695500Y-50089750D01*
X140695500Y-51002250D01*
X140694326Y-51026142D01*
X140690816Y-51049803D01*
X140685004Y-51073007D01*
X140676946Y-51095529D01*
X140666718Y-51117153D01*
X140654421Y-51137670D01*
X140640171Y-51156883D01*
X140624107Y-51174607D01*
X140606383Y-51190671D01*
X140587170Y-51204921D01*
X140566653Y-51217218D01*
X140545029Y-51227446D01*
X140522507Y-51235504D01*
X140499303Y-51241316D01*
X140475642Y-51244826D01*
X140451750Y-51246000D01*
X139964250Y-51246000D01*
X139940358Y-51244826D01*
X139916697Y-51241316D01*
X139893493Y-51235504D01*
X139870971Y-51227446D01*
X139849347Y-51217218D01*
X139828830Y-51204921D01*
X139809617Y-51190671D01*
X139791893Y-51174607D01*
X139775829Y-51156883D01*
X139761579Y-51137670D01*
X139749282Y-51117153D01*
X139739054Y-51095529D01*
X139730996Y-51073007D01*
X139725184Y-51049803D01*
X139721674Y-51026142D01*
X139720500Y-51002250D01*
X139720500Y-50089750D01*
X139721674Y-50065858D01*
X139725184Y-50042197D01*
X139730996Y-50018993D01*
X139739054Y-49996471D01*
X139749282Y-49974847D01*
X139761579Y-49954330D01*
X139775829Y-49935117D01*
X139791893Y-49917393D01*
X139809617Y-49901329D01*
X139828830Y-49887079D01*
X139849347Y-49874782D01*
X139870971Y-49864554D01*
X139893493Y-49856496D01*
X139916697Y-49850684D01*
X139940358Y-49847174D01*
X139964250Y-49846000D01*
X140451750Y-49846000D01*
X140475642Y-49847174D01*
G37*
G36*
X138600642Y-49847174D02*
G01*
X138624303Y-49850684D01*
X138647507Y-49856496D01*
X138670029Y-49864554D01*
X138691653Y-49874782D01*
X138712170Y-49887079D01*
X138731383Y-49901329D01*
X138749107Y-49917393D01*
X138765171Y-49935117D01*
X138779421Y-49954330D01*
X138791718Y-49974847D01*
X138801946Y-49996471D01*
X138810004Y-50018993D01*
X138815816Y-50042197D01*
X138819326Y-50065858D01*
X138820500Y-50089750D01*
X138820500Y-51002250D01*
X138819326Y-51026142D01*
X138815816Y-51049803D01*
X138810004Y-51073007D01*
X138801946Y-51095529D01*
X138791718Y-51117153D01*
X138779421Y-51137670D01*
X138765171Y-51156883D01*
X138749107Y-51174607D01*
X138731383Y-51190671D01*
X138712170Y-51204921D01*
X138691653Y-51217218D01*
X138670029Y-51227446D01*
X138647507Y-51235504D01*
X138624303Y-51241316D01*
X138600642Y-51244826D01*
X138576750Y-51246000D01*
X138089250Y-51246000D01*
X138065358Y-51244826D01*
X138041697Y-51241316D01*
X138018493Y-51235504D01*
X137995971Y-51227446D01*
X137974347Y-51217218D01*
X137953830Y-51204921D01*
X137934617Y-51190671D01*
X137916893Y-51174607D01*
X137900829Y-51156883D01*
X137886579Y-51137670D01*
X137874282Y-51117153D01*
X137864054Y-51095529D01*
X137855996Y-51073007D01*
X137850184Y-51049803D01*
X137846674Y-51026142D01*
X137845500Y-51002250D01*
X137845500Y-50089750D01*
X137846674Y-50065858D01*
X137850184Y-50042197D01*
X137855996Y-50018993D01*
X137864054Y-49996471D01*
X137874282Y-49974847D01*
X137886579Y-49954330D01*
X137900829Y-49935117D01*
X137916893Y-49917393D01*
X137934617Y-49901329D01*
X137953830Y-49887079D01*
X137974347Y-49874782D01*
X137995971Y-49864554D01*
X138018493Y-49856496D01*
X138041697Y-49850684D01*
X138065358Y-49847174D01*
X138089250Y-49846000D01*
X138576750Y-49846000D01*
X138600642Y-49847174D01*
G37*
G36*
X138600642Y-52133174D02*
G01*
X138624303Y-52136684D01*
X138647507Y-52142496D01*
X138670029Y-52150554D01*
X138691653Y-52160782D01*
X138712170Y-52173079D01*
X138731383Y-52187329D01*
X138749107Y-52203393D01*
X138765171Y-52221117D01*
X138779421Y-52240330D01*
X138791718Y-52260847D01*
X138801946Y-52282471D01*
X138810004Y-52304993D01*
X138815816Y-52328197D01*
X138819326Y-52351858D01*
X138820500Y-52375750D01*
X138820500Y-53288250D01*
X138819326Y-53312142D01*
X138815816Y-53335803D01*
X138810004Y-53359007D01*
X138801946Y-53381529D01*
X138791718Y-53403153D01*
X138779421Y-53423670D01*
X138765171Y-53442883D01*
X138749107Y-53460607D01*
X138731383Y-53476671D01*
X138712170Y-53490921D01*
X138691653Y-53503218D01*
X138670029Y-53513446D01*
X138647507Y-53521504D01*
X138624303Y-53527316D01*
X138600642Y-53530826D01*
X138576750Y-53532000D01*
X138089250Y-53532000D01*
X138065358Y-53530826D01*
X138041697Y-53527316D01*
X138018493Y-53521504D01*
X137995971Y-53513446D01*
X137974347Y-53503218D01*
X137953830Y-53490921D01*
X137934617Y-53476671D01*
X137916893Y-53460607D01*
X137900829Y-53442883D01*
X137886579Y-53423670D01*
X137874282Y-53403153D01*
X137864054Y-53381529D01*
X137855996Y-53359007D01*
X137850184Y-53335803D01*
X137846674Y-53312142D01*
X137845500Y-53288250D01*
X137845500Y-52375750D01*
X137846674Y-52351858D01*
X137850184Y-52328197D01*
X137855996Y-52304993D01*
X137864054Y-52282471D01*
X137874282Y-52260847D01*
X137886579Y-52240330D01*
X137900829Y-52221117D01*
X137916893Y-52203393D01*
X137934617Y-52187329D01*
X137953830Y-52173079D01*
X137974347Y-52160782D01*
X137995971Y-52150554D01*
X138018493Y-52142496D01*
X138041697Y-52136684D01*
X138065358Y-52133174D01*
X138089250Y-52132000D01*
X138576750Y-52132000D01*
X138600642Y-52133174D01*
G37*
G36*
X140475642Y-52133174D02*
G01*
X140499303Y-52136684D01*
X140522507Y-52142496D01*
X140545029Y-52150554D01*
X140566653Y-52160782D01*
X140587170Y-52173079D01*
X140606383Y-52187329D01*
X140624107Y-52203393D01*
X140640171Y-52221117D01*
X140654421Y-52240330D01*
X140666718Y-52260847D01*
X140676946Y-52282471D01*
X140685004Y-52304993D01*
X140690816Y-52328197D01*
X140694326Y-52351858D01*
X140695500Y-52375750D01*
X140695500Y-53288250D01*
X140694326Y-53312142D01*
X140690816Y-53335803D01*
X140685004Y-53359007D01*
X140676946Y-53381529D01*
X140666718Y-53403153D01*
X140654421Y-53423670D01*
X140640171Y-53442883D01*
X140624107Y-53460607D01*
X140606383Y-53476671D01*
X140587170Y-53490921D01*
X140566653Y-53503218D01*
X140545029Y-53513446D01*
X140522507Y-53521504D01*
X140499303Y-53527316D01*
X140475642Y-53530826D01*
X140451750Y-53532000D01*
X139964250Y-53532000D01*
X139940358Y-53530826D01*
X139916697Y-53527316D01*
X139893493Y-53521504D01*
X139870971Y-53513446D01*
X139849347Y-53503218D01*
X139828830Y-53490921D01*
X139809617Y-53476671D01*
X139791893Y-53460607D01*
X139775829Y-53442883D01*
X139761579Y-53423670D01*
X139749282Y-53403153D01*
X139739054Y-53381529D01*
X139730996Y-53359007D01*
X139725184Y-53335803D01*
X139721674Y-53312142D01*
X139720500Y-53288250D01*
X139720500Y-52375750D01*
X139721674Y-52351858D01*
X139725184Y-52328197D01*
X139730996Y-52304993D01*
X139739054Y-52282471D01*
X139749282Y-52260847D01*
X139761579Y-52240330D01*
X139775829Y-52221117D01*
X139791893Y-52203393D01*
X139809617Y-52187329D01*
X139828830Y-52173079D01*
X139849347Y-52160782D01*
X139870971Y-52150554D01*
X139893493Y-52142496D01*
X139916697Y-52136684D01*
X139940358Y-52133174D01*
X139964250Y-52132000D01*
X140451750Y-52132000D01*
X140475642Y-52133174D01*
G37*
D11*
X139192000Y-46514000D03*
X138242000Y-48514000D03*
X140142000Y-48514000D03*
D10*
G36*
X136665642Y-49847174D02*
G01*
X136689303Y-49850684D01*
X136712507Y-49856496D01*
X136735029Y-49864554D01*
X136756653Y-49874782D01*
X136777170Y-49887079D01*
X136796383Y-49901329D01*
X136814107Y-49917393D01*
X136830171Y-49935117D01*
X136844421Y-49954330D01*
X136856718Y-49974847D01*
X136866946Y-49996471D01*
X136875004Y-50018993D01*
X136880816Y-50042197D01*
X136884326Y-50065858D01*
X136885500Y-50089750D01*
X136885500Y-51002250D01*
X136884326Y-51026142D01*
X136880816Y-51049803D01*
X136875004Y-51073007D01*
X136866946Y-51095529D01*
X136856718Y-51117153D01*
X136844421Y-51137670D01*
X136830171Y-51156883D01*
X136814107Y-51174607D01*
X136796383Y-51190671D01*
X136777170Y-51204921D01*
X136756653Y-51217218D01*
X136735029Y-51227446D01*
X136712507Y-51235504D01*
X136689303Y-51241316D01*
X136665642Y-51244826D01*
X136641750Y-51246000D01*
X136154250Y-51246000D01*
X136130358Y-51244826D01*
X136106697Y-51241316D01*
X136083493Y-51235504D01*
X136060971Y-51227446D01*
X136039347Y-51217218D01*
X136018830Y-51204921D01*
X135999617Y-51190671D01*
X135981893Y-51174607D01*
X135965829Y-51156883D01*
X135951579Y-51137670D01*
X135939282Y-51117153D01*
X135929054Y-51095529D01*
X135920996Y-51073007D01*
X135915184Y-51049803D01*
X135911674Y-51026142D01*
X135910500Y-51002250D01*
X135910500Y-50089750D01*
X135911674Y-50065858D01*
X135915184Y-50042197D01*
X135920996Y-50018993D01*
X135929054Y-49996471D01*
X135939282Y-49974847D01*
X135951579Y-49954330D01*
X135965829Y-49935117D01*
X135981893Y-49917393D01*
X135999617Y-49901329D01*
X136018830Y-49887079D01*
X136039347Y-49874782D01*
X136060971Y-49864554D01*
X136083493Y-49856496D01*
X136106697Y-49850684D01*
X136130358Y-49847174D01*
X136154250Y-49846000D01*
X136641750Y-49846000D01*
X136665642Y-49847174D01*
G37*
G36*
X134790642Y-49847174D02*
G01*
X134814303Y-49850684D01*
X134837507Y-49856496D01*
X134860029Y-49864554D01*
X134881653Y-49874782D01*
X134902170Y-49887079D01*
X134921383Y-49901329D01*
X134939107Y-49917393D01*
X134955171Y-49935117D01*
X134969421Y-49954330D01*
X134981718Y-49974847D01*
X134991946Y-49996471D01*
X135000004Y-50018993D01*
X135005816Y-50042197D01*
X135009326Y-50065858D01*
X135010500Y-50089750D01*
X135010500Y-51002250D01*
X135009326Y-51026142D01*
X135005816Y-51049803D01*
X135000004Y-51073007D01*
X134991946Y-51095529D01*
X134981718Y-51117153D01*
X134969421Y-51137670D01*
X134955171Y-51156883D01*
X134939107Y-51174607D01*
X134921383Y-51190671D01*
X134902170Y-51204921D01*
X134881653Y-51217218D01*
X134860029Y-51227446D01*
X134837507Y-51235504D01*
X134814303Y-51241316D01*
X134790642Y-51244826D01*
X134766750Y-51246000D01*
X134279250Y-51246000D01*
X134255358Y-51244826D01*
X134231697Y-51241316D01*
X134208493Y-51235504D01*
X134185971Y-51227446D01*
X134164347Y-51217218D01*
X134143830Y-51204921D01*
X134124617Y-51190671D01*
X134106893Y-51174607D01*
X134090829Y-51156883D01*
X134076579Y-51137670D01*
X134064282Y-51117153D01*
X134054054Y-51095529D01*
X134045996Y-51073007D01*
X134040184Y-51049803D01*
X134036674Y-51026142D01*
X134035500Y-51002250D01*
X134035500Y-50089750D01*
X134036674Y-50065858D01*
X134040184Y-50042197D01*
X134045996Y-50018993D01*
X134054054Y-49996471D01*
X134064282Y-49974847D01*
X134076579Y-49954330D01*
X134090829Y-49935117D01*
X134106893Y-49917393D01*
X134124617Y-49901329D01*
X134143830Y-49887079D01*
X134164347Y-49874782D01*
X134185971Y-49864554D01*
X134208493Y-49856496D01*
X134231697Y-49850684D01*
X134255358Y-49847174D01*
X134279250Y-49846000D01*
X134766750Y-49846000D01*
X134790642Y-49847174D01*
G37*
G36*
X134790642Y-52133174D02*
G01*
X134814303Y-52136684D01*
X134837507Y-52142496D01*
X134860029Y-52150554D01*
X134881653Y-52160782D01*
X134902170Y-52173079D01*
X134921383Y-52187329D01*
X134939107Y-52203393D01*
X134955171Y-52221117D01*
X134969421Y-52240330D01*
X134981718Y-52260847D01*
X134991946Y-52282471D01*
X135000004Y-52304993D01*
X135005816Y-52328197D01*
X135009326Y-52351858D01*
X135010500Y-52375750D01*
X135010500Y-53288250D01*
X135009326Y-53312142D01*
X135005816Y-53335803D01*
X135000004Y-53359007D01*
X134991946Y-53381529D01*
X134981718Y-53403153D01*
X134969421Y-53423670D01*
X134955171Y-53442883D01*
X134939107Y-53460607D01*
X134921383Y-53476671D01*
X134902170Y-53490921D01*
X134881653Y-53503218D01*
X134860029Y-53513446D01*
X134837507Y-53521504D01*
X134814303Y-53527316D01*
X134790642Y-53530826D01*
X134766750Y-53532000D01*
X134279250Y-53532000D01*
X134255358Y-53530826D01*
X134231697Y-53527316D01*
X134208493Y-53521504D01*
X134185971Y-53513446D01*
X134164347Y-53503218D01*
X134143830Y-53490921D01*
X134124617Y-53476671D01*
X134106893Y-53460607D01*
X134090829Y-53442883D01*
X134076579Y-53423670D01*
X134064282Y-53403153D01*
X134054054Y-53381529D01*
X134045996Y-53359007D01*
X134040184Y-53335803D01*
X134036674Y-53312142D01*
X134035500Y-53288250D01*
X134035500Y-52375750D01*
X134036674Y-52351858D01*
X134040184Y-52328197D01*
X134045996Y-52304993D01*
X134054054Y-52282471D01*
X134064282Y-52260847D01*
X134076579Y-52240330D01*
X134090829Y-52221117D01*
X134106893Y-52203393D01*
X134124617Y-52187329D01*
X134143830Y-52173079D01*
X134164347Y-52160782D01*
X134185971Y-52150554D01*
X134208493Y-52142496D01*
X134231697Y-52136684D01*
X134255358Y-52133174D01*
X134279250Y-52132000D01*
X134766750Y-52132000D01*
X134790642Y-52133174D01*
G37*
G36*
X136665642Y-52133174D02*
G01*
X136689303Y-52136684D01*
X136712507Y-52142496D01*
X136735029Y-52150554D01*
X136756653Y-52160782D01*
X136777170Y-52173079D01*
X136796383Y-52187329D01*
X136814107Y-52203393D01*
X136830171Y-52221117D01*
X136844421Y-52240330D01*
X136856718Y-52260847D01*
X136866946Y-52282471D01*
X136875004Y-52304993D01*
X136880816Y-52328197D01*
X136884326Y-52351858D01*
X136885500Y-52375750D01*
X136885500Y-53288250D01*
X136884326Y-53312142D01*
X136880816Y-53335803D01*
X136875004Y-53359007D01*
X136866946Y-53381529D01*
X136856718Y-53403153D01*
X136844421Y-53423670D01*
X136830171Y-53442883D01*
X136814107Y-53460607D01*
X136796383Y-53476671D01*
X136777170Y-53490921D01*
X136756653Y-53503218D01*
X136735029Y-53513446D01*
X136712507Y-53521504D01*
X136689303Y-53527316D01*
X136665642Y-53530826D01*
X136641750Y-53532000D01*
X136154250Y-53532000D01*
X136130358Y-53530826D01*
X136106697Y-53527316D01*
X136083493Y-53521504D01*
X136060971Y-53513446D01*
X136039347Y-53503218D01*
X136018830Y-53490921D01*
X135999617Y-53476671D01*
X135981893Y-53460607D01*
X135965829Y-53442883D01*
X135951579Y-53423670D01*
X135939282Y-53403153D01*
X135929054Y-53381529D01*
X135920996Y-53359007D01*
X135915184Y-53335803D01*
X135911674Y-53312142D01*
X135910500Y-53288250D01*
X135910500Y-52375750D01*
X135911674Y-52351858D01*
X135915184Y-52328197D01*
X135920996Y-52304993D01*
X135929054Y-52282471D01*
X135939282Y-52260847D01*
X135951579Y-52240330D01*
X135965829Y-52221117D01*
X135981893Y-52203393D01*
X135999617Y-52187329D01*
X136018830Y-52173079D01*
X136039347Y-52160782D01*
X136060971Y-52150554D01*
X136083493Y-52142496D01*
X136106697Y-52136684D01*
X136130358Y-52133174D01*
X136154250Y-52132000D01*
X136641750Y-52132000D01*
X136665642Y-52133174D01*
G37*
D11*
X135382000Y-46498000D03*
X134432000Y-48498000D03*
X136332000Y-48498000D03*
M02*
