G04 #@! TF.GenerationSoftware,KiCad,Pcbnew,5.1.5-52549c5~84~ubuntu19.04.1*
G04 #@! TF.CreationDate,2019-12-06T19:41:43+01:00*
G04 #@! TF.ProjectId,Rocket_PCB,526f636b-6574-45f5-9043-422e6b696361,rev?*
G04 #@! TF.SameCoordinates,Original*
G04 #@! TF.FileFunction,Legend,Bot*
G04 #@! TF.FilePolarity,Positive*
%FSLAX46Y46*%
G04 Gerber Fmt 4.6, Leading zero omitted, Abs format (unit mm)*
G04 Created by KiCad (PCBNEW 5.1.5-52549c5~84~ubuntu19.04.1) date 2019-12-06 19:41:43*
%MOMM*%
%LPD*%
G04 APERTURE LIST*
%ADD10C,0.120000*%
%ADD11C,0.150000*%
G04 APERTURE END LIST*
D10*
X139011922Y-49836000D02*
X139529078Y-49836000D01*
X139011922Y-51256000D02*
X139529078Y-51256000D01*
X139529078Y-53542000D02*
X139011922Y-53542000D01*
X139529078Y-52122000D02*
X139011922Y-52122000D01*
X137612000Y-46754000D02*
X137612000Y-48214000D01*
X140772000Y-46754000D02*
X140772000Y-48914000D01*
X140772000Y-46754000D02*
X139842000Y-46754000D01*
X137612000Y-46754000D02*
X138542000Y-46754000D01*
X148717000Y-50800000D02*
X148717000Y-58420000D01*
X160147000Y-50800000D02*
X148717000Y-50800000D01*
X160147000Y-58420000D02*
X160147000Y-50800000D01*
X148082000Y-58420000D02*
X149987000Y-58420000D01*
X160782000Y-58420000D02*
X158877000Y-58420000D01*
X149987001Y-58420000D02*
G75*
G03X158877000Y-58420000I4444999J10160000D01*
G01*
X160782000Y-68580000D02*
X160782000Y-58420000D01*
X148082000Y-68580000D02*
X148082000Y-58420000D01*
X160782000Y-68580000D02*
X148082000Y-68580000D01*
X145542000Y-78740000D02*
X163322000Y-78740000D01*
X145542000Y-60960000D02*
X145542000Y-78740000D01*
X163322000Y-60960000D02*
X145542000Y-60960000D01*
X163322000Y-78740000D02*
X163322000Y-60960000D01*
X142752000Y-69332000D02*
G75*
G03X142752000Y-69332000I-6100000J0D01*
G01*
X135201922Y-49836000D02*
X135719078Y-49836000D01*
X135201922Y-51256000D02*
X135719078Y-51256000D01*
X135719078Y-53542000D02*
X135201922Y-53542000D01*
X135719078Y-52122000D02*
X135201922Y-52122000D01*
X133802000Y-46738000D02*
X133802000Y-48198000D01*
X136962000Y-46738000D02*
X136962000Y-48898000D01*
X136962000Y-46738000D02*
X136032000Y-46738000D01*
X133802000Y-46738000D02*
X134732000Y-46738000D01*
D11*
X142152666Y-53284380D02*
X142486000Y-52808190D01*
X142724095Y-53284380D02*
X142724095Y-52284380D01*
X142343142Y-52284380D01*
X142247904Y-52332000D01*
X142200285Y-52379619D01*
X142152666Y-52474857D01*
X142152666Y-52617714D01*
X142200285Y-52712952D01*
X142247904Y-52760571D01*
X142343142Y-52808190D01*
X142724095Y-52808190D01*
X141247904Y-52284380D02*
X141724095Y-52284380D01*
X141771714Y-52760571D01*
X141724095Y-52712952D01*
X141628857Y-52665333D01*
X141390761Y-52665333D01*
X141295523Y-52712952D01*
X141247904Y-52760571D01*
X141200285Y-52855809D01*
X141200285Y-53093904D01*
X141247904Y-53189142D01*
X141295523Y-53236761D01*
X141390761Y-53284380D01*
X141628857Y-53284380D01*
X141724095Y-53236761D01*
X141771714Y-53189142D01*
X142152666Y-50998380D02*
X142486000Y-50522190D01*
X142724095Y-50998380D02*
X142724095Y-49998380D01*
X142343142Y-49998380D01*
X142247904Y-50046000D01*
X142200285Y-50093619D01*
X142152666Y-50188857D01*
X142152666Y-50331714D01*
X142200285Y-50426952D01*
X142247904Y-50474571D01*
X142343142Y-50522190D01*
X142724095Y-50522190D01*
X141819333Y-49998380D02*
X141200285Y-49998380D01*
X141533619Y-50379333D01*
X141390761Y-50379333D01*
X141295523Y-50426952D01*
X141247904Y-50474571D01*
X141200285Y-50569809D01*
X141200285Y-50807904D01*
X141247904Y-50903142D01*
X141295523Y-50950761D01*
X141390761Y-50998380D01*
X141676476Y-50998380D01*
X141771714Y-50950761D01*
X141819333Y-50903142D01*
X142239619Y-47418761D02*
X142192000Y-47323523D01*
X142096761Y-47228285D01*
X141953904Y-47085428D01*
X141906285Y-46990190D01*
X141906285Y-46894952D01*
X142144380Y-46942571D02*
X142096761Y-46847333D01*
X142001523Y-46752095D01*
X141811047Y-46704476D01*
X141477714Y-46704476D01*
X141287238Y-46752095D01*
X141192000Y-46847333D01*
X141144380Y-46942571D01*
X141144380Y-47133047D01*
X141192000Y-47228285D01*
X141287238Y-47323523D01*
X141477714Y-47371142D01*
X141811047Y-47371142D01*
X142001523Y-47323523D01*
X142096761Y-47228285D01*
X142144380Y-47133047D01*
X142144380Y-46942571D01*
X141239619Y-47752095D02*
X141192000Y-47799714D01*
X141144380Y-47894952D01*
X141144380Y-48133047D01*
X141192000Y-48228285D01*
X141239619Y-48275904D01*
X141334857Y-48323523D01*
X141430095Y-48323523D01*
X141572952Y-48275904D01*
X142144380Y-47704476D01*
X142144380Y-48323523D01*
X155146285Y-49950666D02*
X154670095Y-49950666D01*
X155241523Y-50236380D02*
X154908190Y-49236380D01*
X154574857Y-50236380D01*
X153812952Y-49569714D02*
X153812952Y-50236380D01*
X154051047Y-49188761D02*
X154289142Y-49903047D01*
X153670095Y-49903047D01*
X137532952Y-62158571D02*
X137390095Y-62206190D01*
X137342476Y-62253809D01*
X137294857Y-62349047D01*
X137294857Y-62491904D01*
X137342476Y-62587142D01*
X137390095Y-62634761D01*
X137485333Y-62682380D01*
X137866285Y-62682380D01*
X137866285Y-61682380D01*
X137532952Y-61682380D01*
X137437714Y-61730000D01*
X137390095Y-61777619D01*
X137342476Y-61872857D01*
X137342476Y-61968095D01*
X137390095Y-62063333D01*
X137437714Y-62110952D01*
X137532952Y-62158571D01*
X137866285Y-62158571D01*
X136961523Y-61682380D02*
X136294857Y-61682380D01*
X136961523Y-62682380D01*
X136294857Y-62682380D01*
X135390095Y-62682380D02*
X135961523Y-62682380D01*
X135675809Y-62682380D02*
X135675809Y-61682380D01*
X135771047Y-61825238D01*
X135866285Y-61920476D01*
X135961523Y-61968095D01*
X134183428Y-65141047D02*
X134183428Y-65902952D01*
X134564380Y-65522000D02*
X133802476Y-65522000D01*
X133008666Y-50998380D02*
X133342000Y-50522190D01*
X133580095Y-50998380D02*
X133580095Y-49998380D01*
X133199142Y-49998380D01*
X133103904Y-50046000D01*
X133056285Y-50093619D01*
X133008666Y-50188857D01*
X133008666Y-50331714D01*
X133056285Y-50426952D01*
X133103904Y-50474571D01*
X133199142Y-50522190D01*
X133580095Y-50522190D01*
X132151523Y-50331714D02*
X132151523Y-50998380D01*
X132389619Y-49950761D02*
X132627714Y-50665047D01*
X132008666Y-50665047D01*
X133008666Y-53284380D02*
X133342000Y-52808190D01*
X133580095Y-53284380D02*
X133580095Y-52284380D01*
X133199142Y-52284380D01*
X133103904Y-52332000D01*
X133056285Y-52379619D01*
X133008666Y-52474857D01*
X133008666Y-52617714D01*
X133056285Y-52712952D01*
X133103904Y-52760571D01*
X133199142Y-52808190D01*
X133580095Y-52808190D01*
X132627714Y-52379619D02*
X132580095Y-52332000D01*
X132484857Y-52284380D01*
X132246761Y-52284380D01*
X132151523Y-52332000D01*
X132103904Y-52379619D01*
X132056285Y-52474857D01*
X132056285Y-52570095D01*
X132103904Y-52712952D01*
X132675333Y-53284380D01*
X132056285Y-53284380D01*
X133389619Y-47402761D02*
X133342000Y-47307523D01*
X133246761Y-47212285D01*
X133103904Y-47069428D01*
X133056285Y-46974190D01*
X133056285Y-46878952D01*
X133294380Y-46926571D02*
X133246761Y-46831333D01*
X133151523Y-46736095D01*
X132961047Y-46688476D01*
X132627714Y-46688476D01*
X132437238Y-46736095D01*
X132342000Y-46831333D01*
X132294380Y-46926571D01*
X132294380Y-47117047D01*
X132342000Y-47212285D01*
X132437238Y-47307523D01*
X132627714Y-47355142D01*
X132961047Y-47355142D01*
X133151523Y-47307523D01*
X133246761Y-47212285D01*
X133294380Y-47117047D01*
X133294380Y-46926571D01*
X133294380Y-48307523D02*
X133294380Y-47736095D01*
X133294380Y-48021809D02*
X132294380Y-48021809D01*
X132437238Y-47926571D01*
X132532476Y-47831333D01*
X132580095Y-47736095D01*
M02*
