M48
; DRILL file {KiCad 5.1.5-52549c5~84~ubuntu19.04.1} date Fri 06 Dec 2019 07:41:40 PM CET
; FORMAT={-:-/ absolute / inch / decimal}
; #@! TF.CreationDate,2019-12-06T19:41:40+01:00
; #@! TF.GenerationSoftware,Kicad,Pcbnew,5.1.5-52549c5~84~ubuntu19.04.1
; #@! TF.FileFunction,Plated,1,2,PTH
FMAT,2
INCH
T1C0.0157
T2C0.0300
T3C0.0315
T4C0.0394
T5C0.0433
%
G90
G05
T1
X5.14Y-3.16
X5.28Y-3.16
X5.295Y-1.945
X5.445Y-1.945
X5.57Y-2.17
X5.7515Y-1.82
T2
X4.99Y-3.17
X4.99Y-3.27
X4.99Y-3.37
X4.99Y-3.47
X4.99Y-3.57
X4.99Y-3.67
X5.83Y-3.05
X5.93Y-3.05
X6.03Y-3.05
X6.13Y-3.05
X6.23Y-3.05
X6.33Y-3.05
X5.8769Y-2.06
X5.8769Y-2.7687
X6.31Y-2.06
X6.31Y-2.7687
X5.48Y-3.17
X5.48Y-3.27
X5.48Y-3.37
X5.48Y-3.47
X5.48Y-3.57
X5.48Y-3.67
X5.48Y-3.77
X5.48Y-3.87
T3
X5.08Y-1.93
X5.08Y-2.03
X5.08Y-2.13
X5.08Y-2.23
X5.08Y-2.33
X5.08Y-2.43
X5.08Y-2.53
X5.08Y-2.63
X5.08Y-2.73
X5.08Y-2.83
X5.08Y-2.93
X5.08Y-3.03
X5.38Y-3.03
X5.48Y-3.03
X5.58Y-2.28
X5.58Y-2.38
X5.58Y-3.03
X5.68Y-1.93
X5.68Y-2.03
X5.68Y-2.13
X5.68Y-2.23
X5.68Y-2.33
X5.68Y-2.43
X5.68Y-2.53
X5.68Y-2.63
X5.68Y-2.73
X5.68Y-2.83
X5.68Y-2.93
X5.68Y-3.03
T4
X4.97Y-2.63
X4.97Y-1.93
X4.97Y-2.03
X4.97Y-2.73
X5.38Y-2.58
X5.38Y-2.8792
X4.97Y-2.53
X6.15Y-3.22
X6.25Y-3.22
X6.35Y-3.22
X6.15Y-3.39
X6.25Y-3.39
X6.35Y-3.39
X6.15Y-3.56
X6.25Y-3.56
X6.35Y-3.56
X5.92Y-1.62
X6.02Y-1.62
T5
X5.33Y-1.62
X5.43Y-1.62
X5.62Y-1.62
X5.72Y-1.62
T0
M30
