G04 #@! TF.GenerationSoftware,KiCad,Pcbnew,5.1.5-52549c5~84~ubuntu19.04.1*
G04 #@! TF.CreationDate,2019-12-06T19:41:43+01:00*
G04 #@! TF.ProjectId,Rocket_PCB,526f636b-6574-45f5-9043-422e6b696361,rev?*
G04 #@! TF.SameCoordinates,Original*
G04 #@! TF.FileFunction,Paste,Top*
G04 #@! TF.FilePolarity,Positive*
%FSLAX46Y46*%
G04 Gerber Fmt 4.6, Leading zero omitted, Abs format (unit mm)*
G04 Created by KiCad (PCBNEW 5.1.5-52549c5~84~ubuntu19.04.1) date 2019-12-06 19:41:43*
%MOMM*%
%LPD*%
G04 APERTURE LIST*
%ADD10C,0.100000*%
G04 APERTURE END LIST*
D10*
G36*
X149111642Y-45275174D02*
G01*
X149135303Y-45278684D01*
X149158507Y-45284496D01*
X149181029Y-45292554D01*
X149202653Y-45302782D01*
X149223170Y-45315079D01*
X149242383Y-45329329D01*
X149260107Y-45345393D01*
X149276171Y-45363117D01*
X149290421Y-45382330D01*
X149302718Y-45402847D01*
X149312946Y-45424471D01*
X149321004Y-45446993D01*
X149326816Y-45470197D01*
X149330326Y-45493858D01*
X149331500Y-45517750D01*
X149331500Y-46430250D01*
X149330326Y-46454142D01*
X149326816Y-46477803D01*
X149321004Y-46501007D01*
X149312946Y-46523529D01*
X149302718Y-46545153D01*
X149290421Y-46565670D01*
X149276171Y-46584883D01*
X149260107Y-46602607D01*
X149242383Y-46618671D01*
X149223170Y-46632921D01*
X149202653Y-46645218D01*
X149181029Y-46655446D01*
X149158507Y-46663504D01*
X149135303Y-46669316D01*
X149111642Y-46672826D01*
X149087750Y-46674000D01*
X148600250Y-46674000D01*
X148576358Y-46672826D01*
X148552697Y-46669316D01*
X148529493Y-46663504D01*
X148506971Y-46655446D01*
X148485347Y-46645218D01*
X148464830Y-46632921D01*
X148445617Y-46618671D01*
X148427893Y-46602607D01*
X148411829Y-46584883D01*
X148397579Y-46565670D01*
X148385282Y-46545153D01*
X148375054Y-46523529D01*
X148366996Y-46501007D01*
X148361184Y-46477803D01*
X148357674Y-46454142D01*
X148356500Y-46430250D01*
X148356500Y-45517750D01*
X148357674Y-45493858D01*
X148361184Y-45470197D01*
X148366996Y-45446993D01*
X148375054Y-45424471D01*
X148385282Y-45402847D01*
X148397579Y-45382330D01*
X148411829Y-45363117D01*
X148427893Y-45345393D01*
X148445617Y-45329329D01*
X148464830Y-45315079D01*
X148485347Y-45302782D01*
X148506971Y-45292554D01*
X148529493Y-45284496D01*
X148552697Y-45278684D01*
X148576358Y-45275174D01*
X148600250Y-45274000D01*
X149087750Y-45274000D01*
X149111642Y-45275174D01*
G37*
G36*
X150986642Y-45275174D02*
G01*
X151010303Y-45278684D01*
X151033507Y-45284496D01*
X151056029Y-45292554D01*
X151077653Y-45302782D01*
X151098170Y-45315079D01*
X151117383Y-45329329D01*
X151135107Y-45345393D01*
X151151171Y-45363117D01*
X151165421Y-45382330D01*
X151177718Y-45402847D01*
X151187946Y-45424471D01*
X151196004Y-45446993D01*
X151201816Y-45470197D01*
X151205326Y-45493858D01*
X151206500Y-45517750D01*
X151206500Y-46430250D01*
X151205326Y-46454142D01*
X151201816Y-46477803D01*
X151196004Y-46501007D01*
X151187946Y-46523529D01*
X151177718Y-46545153D01*
X151165421Y-46565670D01*
X151151171Y-46584883D01*
X151135107Y-46602607D01*
X151117383Y-46618671D01*
X151098170Y-46632921D01*
X151077653Y-46645218D01*
X151056029Y-46655446D01*
X151033507Y-46663504D01*
X151010303Y-46669316D01*
X150986642Y-46672826D01*
X150962750Y-46674000D01*
X150475250Y-46674000D01*
X150451358Y-46672826D01*
X150427697Y-46669316D01*
X150404493Y-46663504D01*
X150381971Y-46655446D01*
X150360347Y-46645218D01*
X150339830Y-46632921D01*
X150320617Y-46618671D01*
X150302893Y-46602607D01*
X150286829Y-46584883D01*
X150272579Y-46565670D01*
X150260282Y-46545153D01*
X150250054Y-46523529D01*
X150241996Y-46501007D01*
X150236184Y-46477803D01*
X150232674Y-46454142D01*
X150231500Y-46430250D01*
X150231500Y-45517750D01*
X150232674Y-45493858D01*
X150236184Y-45470197D01*
X150241996Y-45446993D01*
X150250054Y-45424471D01*
X150260282Y-45402847D01*
X150272579Y-45382330D01*
X150286829Y-45363117D01*
X150302893Y-45345393D01*
X150320617Y-45329329D01*
X150339830Y-45315079D01*
X150360347Y-45302782D01*
X150381971Y-45292554D01*
X150404493Y-45284496D01*
X150427697Y-45278684D01*
X150451358Y-45275174D01*
X150475250Y-45274000D01*
X150962750Y-45274000D01*
X150986642Y-45275174D01*
G37*
G36*
X152667642Y-45275174D02*
G01*
X152691303Y-45278684D01*
X152714507Y-45284496D01*
X152737029Y-45292554D01*
X152758653Y-45302782D01*
X152779170Y-45315079D01*
X152798383Y-45329329D01*
X152816107Y-45345393D01*
X152832171Y-45363117D01*
X152846421Y-45382330D01*
X152858718Y-45402847D01*
X152868946Y-45424471D01*
X152877004Y-45446993D01*
X152882816Y-45470197D01*
X152886326Y-45493858D01*
X152887500Y-45517750D01*
X152887500Y-46430250D01*
X152886326Y-46454142D01*
X152882816Y-46477803D01*
X152877004Y-46501007D01*
X152868946Y-46523529D01*
X152858718Y-46545153D01*
X152846421Y-46565670D01*
X152832171Y-46584883D01*
X152816107Y-46602607D01*
X152798383Y-46618671D01*
X152779170Y-46632921D01*
X152758653Y-46645218D01*
X152737029Y-46655446D01*
X152714507Y-46663504D01*
X152691303Y-46669316D01*
X152667642Y-46672826D01*
X152643750Y-46674000D01*
X152156250Y-46674000D01*
X152132358Y-46672826D01*
X152108697Y-46669316D01*
X152085493Y-46663504D01*
X152062971Y-46655446D01*
X152041347Y-46645218D01*
X152020830Y-46632921D01*
X152001617Y-46618671D01*
X151983893Y-46602607D01*
X151967829Y-46584883D01*
X151953579Y-46565670D01*
X151941282Y-46545153D01*
X151931054Y-46523529D01*
X151922996Y-46501007D01*
X151917184Y-46477803D01*
X151913674Y-46454142D01*
X151912500Y-46430250D01*
X151912500Y-45517750D01*
X151913674Y-45493858D01*
X151917184Y-45470197D01*
X151922996Y-45446993D01*
X151931054Y-45424471D01*
X151941282Y-45402847D01*
X151953579Y-45382330D01*
X151967829Y-45363117D01*
X151983893Y-45345393D01*
X152001617Y-45329329D01*
X152020830Y-45315079D01*
X152041347Y-45302782D01*
X152062971Y-45292554D01*
X152085493Y-45284496D01*
X152108697Y-45278684D01*
X152132358Y-45275174D01*
X152156250Y-45274000D01*
X152643750Y-45274000D01*
X152667642Y-45275174D01*
G37*
G36*
X154542642Y-45275174D02*
G01*
X154566303Y-45278684D01*
X154589507Y-45284496D01*
X154612029Y-45292554D01*
X154633653Y-45302782D01*
X154654170Y-45315079D01*
X154673383Y-45329329D01*
X154691107Y-45345393D01*
X154707171Y-45363117D01*
X154721421Y-45382330D01*
X154733718Y-45402847D01*
X154743946Y-45424471D01*
X154752004Y-45446993D01*
X154757816Y-45470197D01*
X154761326Y-45493858D01*
X154762500Y-45517750D01*
X154762500Y-46430250D01*
X154761326Y-46454142D01*
X154757816Y-46477803D01*
X154752004Y-46501007D01*
X154743946Y-46523529D01*
X154733718Y-46545153D01*
X154721421Y-46565670D01*
X154707171Y-46584883D01*
X154691107Y-46602607D01*
X154673383Y-46618671D01*
X154654170Y-46632921D01*
X154633653Y-46645218D01*
X154612029Y-46655446D01*
X154589507Y-46663504D01*
X154566303Y-46669316D01*
X154542642Y-46672826D01*
X154518750Y-46674000D01*
X154031250Y-46674000D01*
X154007358Y-46672826D01*
X153983697Y-46669316D01*
X153960493Y-46663504D01*
X153937971Y-46655446D01*
X153916347Y-46645218D01*
X153895830Y-46632921D01*
X153876617Y-46618671D01*
X153858893Y-46602607D01*
X153842829Y-46584883D01*
X153828579Y-46565670D01*
X153816282Y-46545153D01*
X153806054Y-46523529D01*
X153797996Y-46501007D01*
X153792184Y-46477803D01*
X153788674Y-46454142D01*
X153787500Y-46430250D01*
X153787500Y-45517750D01*
X153788674Y-45493858D01*
X153792184Y-45470197D01*
X153797996Y-45446993D01*
X153806054Y-45424471D01*
X153816282Y-45402847D01*
X153828579Y-45382330D01*
X153842829Y-45363117D01*
X153858893Y-45345393D01*
X153876617Y-45329329D01*
X153895830Y-45315079D01*
X153916347Y-45302782D01*
X153937971Y-45292554D01*
X153960493Y-45284496D01*
X153983697Y-45278684D01*
X154007358Y-45275174D01*
X154031250Y-45274000D01*
X154518750Y-45274000D01*
X154542642Y-45275174D01*
G37*
M02*
