G04 #@! TF.GenerationSoftware,KiCad,Pcbnew,5.1.5-52549c5~84~ubuntu19.04.1*
G04 #@! TF.CreationDate,2019-12-06T19:41:43+01:00*
G04 #@! TF.ProjectId,Rocket_PCB,526f636b-6574-45f5-9043-422e6b696361,rev?*
G04 #@! TF.SameCoordinates,Original*
G04 #@! TF.FileFunction,Legend,Top*
G04 #@! TF.FilePolarity,Positive*
%FSLAX46Y46*%
G04 Gerber Fmt 4.6, Leading zero omitted, Abs format (unit mm)*
G04 Created by KiCad (PCBNEW 5.1.5-52549c5~84~ubuntu19.04.1) date 2019-12-06 19:41:43*
%MOMM*%
%LPD*%
G04 APERTURE LIST*
%ADD10C,0.125000*%
%ADD11C,0.150000*%
%ADD12C,0.010000*%
%ADD13C,0.120000*%
%ADD14C,0.160000*%
G04 APERTURE END LIST*
D10*
X138036952Y-36857809D02*
X138036952Y-37357809D01*
X137846476Y-37357809D01*
X137798857Y-37334000D01*
X137775047Y-37310190D01*
X137751238Y-37262571D01*
X137751238Y-37191142D01*
X137775047Y-37143523D01*
X137798857Y-37119714D01*
X137846476Y-37095904D01*
X138036952Y-37095904D01*
X137584571Y-37191142D02*
X137465523Y-36857809D01*
X137346476Y-37191142D02*
X137465523Y-36857809D01*
X137513142Y-36738761D01*
X137536952Y-36714952D01*
X137584571Y-36691142D01*
X137156000Y-36857809D02*
X137156000Y-37191142D01*
X137156000Y-37095904D02*
X137132190Y-37143523D01*
X137108380Y-37167333D01*
X137060761Y-37191142D01*
X137013142Y-37191142D01*
X136775047Y-36857809D02*
X136822666Y-36881619D01*
X136846476Y-36905428D01*
X136870285Y-36953047D01*
X136870285Y-37095904D01*
X136846476Y-37143523D01*
X136822666Y-37167333D01*
X136775047Y-37191142D01*
X136703619Y-37191142D01*
X136656000Y-37167333D01*
X136632190Y-37143523D01*
X136608380Y-37095904D01*
X136608380Y-36953047D01*
X136632190Y-36905428D01*
X136656000Y-36881619D01*
X136703619Y-36857809D01*
X136775047Y-36857809D01*
X136036952Y-37310190D02*
X136013142Y-37334000D01*
X135965523Y-37357809D01*
X135846476Y-37357809D01*
X135798857Y-37334000D01*
X135775047Y-37310190D01*
X135751238Y-37262571D01*
X135751238Y-37214952D01*
X135775047Y-37143523D01*
X136060761Y-36857809D01*
X135751238Y-36857809D01*
X145148952Y-36857809D02*
X145148952Y-37357809D01*
X144958476Y-37357809D01*
X144910857Y-37334000D01*
X144887047Y-37310190D01*
X144863238Y-37262571D01*
X144863238Y-37191142D01*
X144887047Y-37143523D01*
X144910857Y-37119714D01*
X144958476Y-37095904D01*
X145148952Y-37095904D01*
X144696571Y-37191142D02*
X144577523Y-36857809D01*
X144458476Y-37191142D02*
X144577523Y-36857809D01*
X144625142Y-36738761D01*
X144648952Y-36714952D01*
X144696571Y-36691142D01*
X144268000Y-36857809D02*
X144268000Y-37191142D01*
X144268000Y-37095904D02*
X144244190Y-37143523D01*
X144220380Y-37167333D01*
X144172761Y-37191142D01*
X144125142Y-37191142D01*
X143887047Y-36857809D02*
X143934666Y-36881619D01*
X143958476Y-36905428D01*
X143982285Y-36953047D01*
X143982285Y-37095904D01*
X143958476Y-37143523D01*
X143934666Y-37167333D01*
X143887047Y-37191142D01*
X143815619Y-37191142D01*
X143768000Y-37167333D01*
X143744190Y-37143523D01*
X143720380Y-37095904D01*
X143720380Y-36953047D01*
X143744190Y-36905428D01*
X143768000Y-36881619D01*
X143815619Y-36857809D01*
X143887047Y-36857809D01*
X142863238Y-36857809D02*
X143148952Y-36857809D01*
X143006095Y-36857809D02*
X143006095Y-37357809D01*
X143053714Y-37286380D01*
X143101333Y-37238761D01*
X143148952Y-37214952D01*
D11*
X153733238Y-37139619D02*
X154304666Y-37139619D01*
X154018952Y-37139619D02*
X154018952Y-38139619D01*
X154114190Y-37996761D01*
X154209428Y-37901523D01*
X154304666Y-37853904D01*
X153352285Y-37187238D02*
X153257047Y-37139619D01*
X153066571Y-37139619D01*
X152971333Y-37187238D01*
X152923714Y-37282476D01*
X152923714Y-37330095D01*
X152971333Y-37425333D01*
X153066571Y-37472952D01*
X153209428Y-37472952D01*
X153304666Y-37520571D01*
X153352285Y-37615809D01*
X153352285Y-37663428D01*
X153304666Y-37758666D01*
X153209428Y-37806285D01*
X153066571Y-37806285D01*
X152971333Y-37758666D01*
X151257047Y-37139619D02*
X151733238Y-37139619D01*
X151733238Y-38139619D01*
X150923714Y-37139619D02*
X150923714Y-37806285D01*
X150923714Y-38139619D02*
X150971333Y-38092000D01*
X150923714Y-38044380D01*
X150876095Y-38092000D01*
X150923714Y-38139619D01*
X150923714Y-38044380D01*
X150447523Y-37139619D02*
X150447523Y-38139619D01*
X150066571Y-38139619D01*
X149971333Y-38092000D01*
X149923714Y-38044380D01*
X149876095Y-37949142D01*
X149876095Y-37806285D01*
X149923714Y-37711047D01*
X149971333Y-37663428D01*
X150066571Y-37615809D01*
X150447523Y-37615809D01*
X149304666Y-37139619D02*
X149399904Y-37187238D01*
X149447523Y-37234857D01*
X149495142Y-37330095D01*
X149495142Y-37615809D01*
X149447523Y-37711047D01*
X149399904Y-37758666D01*
X149304666Y-37806285D01*
X149161809Y-37806285D01*
X149066571Y-37758666D01*
X149018952Y-37711047D01*
X148971333Y-37615809D01*
X148971333Y-37330095D01*
X149018952Y-37234857D01*
X149066571Y-37187238D01*
X149161809Y-37139619D01*
X149304666Y-37139619D01*
X149876095Y-38933428D02*
X150638000Y-38933428D01*
X150257047Y-39314380D02*
X150257047Y-38552476D01*
X152638000Y-38933428D02*
X153399904Y-38933428D01*
X163107714Y-90352571D02*
X163441047Y-90352571D01*
X163583904Y-90876380D02*
X163107714Y-90876380D01*
X163107714Y-89876380D01*
X163583904Y-89876380D01*
X163322000Y-86082190D02*
X163322000Y-86558380D01*
X162988666Y-85558380D02*
X163322000Y-86082190D01*
X163655333Y-85558380D01*
X162988666Y-80986380D02*
X163655333Y-81986380D01*
X163655333Y-80986380D02*
X162988666Y-81986380D01*
X154726190Y-94130761D02*
X154869047Y-94178380D01*
X155107142Y-94178380D01*
X155202380Y-94130761D01*
X155250000Y-94083142D01*
X155297619Y-93987904D01*
X155297619Y-93892666D01*
X155250000Y-93797428D01*
X155202380Y-93749809D01*
X155107142Y-93702190D01*
X154916666Y-93654571D01*
X154821428Y-93606952D01*
X154773809Y-93559333D01*
X154726190Y-93464095D01*
X154726190Y-93368857D01*
X154773809Y-93273619D01*
X154821428Y-93226000D01*
X154916666Y-93178380D01*
X155154761Y-93178380D01*
X155297619Y-93226000D01*
X156154761Y-94178380D02*
X156154761Y-93654571D01*
X156107142Y-93559333D01*
X156011904Y-93511714D01*
X155821428Y-93511714D01*
X155726190Y-93559333D01*
X156154761Y-94130761D02*
X156059523Y-94178380D01*
X155821428Y-94178380D01*
X155726190Y-94130761D01*
X155678571Y-94035523D01*
X155678571Y-93940285D01*
X155726190Y-93845047D01*
X155821428Y-93797428D01*
X156059523Y-93797428D01*
X156154761Y-93749809D01*
X157059523Y-93511714D02*
X157059523Y-94321238D01*
X157011904Y-94416476D01*
X156964285Y-94464095D01*
X156869047Y-94511714D01*
X156726190Y-94511714D01*
X156630952Y-94464095D01*
X157059523Y-94130761D02*
X156964285Y-94178380D01*
X156773809Y-94178380D01*
X156678571Y-94130761D01*
X156630952Y-94083142D01*
X156583333Y-93987904D01*
X156583333Y-93702190D01*
X156630952Y-93606952D01*
X156678571Y-93559333D01*
X156773809Y-93511714D01*
X156964285Y-93511714D01*
X157059523Y-93559333D01*
X157964285Y-94178380D02*
X157964285Y-93654571D01*
X157916666Y-93559333D01*
X157821428Y-93511714D01*
X157630952Y-93511714D01*
X157535714Y-93559333D01*
X157964285Y-94130761D02*
X157869047Y-94178380D01*
X157630952Y-94178380D01*
X157535714Y-94130761D01*
X157488095Y-94035523D01*
X157488095Y-93940285D01*
X157535714Y-93845047D01*
X157630952Y-93797428D01*
X157869047Y-93797428D01*
X157964285Y-93749809D01*
X158440476Y-93511714D02*
X158440476Y-94178380D01*
X158440476Y-93606952D02*
X158488095Y-93559333D01*
X158583333Y-93511714D01*
X158726190Y-93511714D01*
X158821428Y-93559333D01*
X158869047Y-93654571D01*
X158869047Y-94178380D01*
X160107142Y-94178380D02*
X160107142Y-93178380D01*
X160440476Y-93892666D01*
X160773809Y-93178380D01*
X160773809Y-94178380D01*
X161250000Y-94178380D02*
X161250000Y-93178380D01*
X161821428Y-94178380D02*
X161392857Y-93606952D01*
X161821428Y-93178380D02*
X161250000Y-93749809D01*
X162773809Y-94178380D02*
X162202380Y-94178380D01*
X162488095Y-94178380D02*
X162488095Y-93178380D01*
X162392857Y-93321238D01*
X162297619Y-93416476D01*
X162202380Y-93464095D01*
X129635809Y-100734761D02*
X129540571Y-100782380D01*
X129350095Y-100782380D01*
X129254857Y-100734761D01*
X129207238Y-100687142D01*
X129159619Y-100591904D01*
X129159619Y-100306190D01*
X129207238Y-100210952D01*
X129254857Y-100163333D01*
X129350095Y-100115714D01*
X129540571Y-100115714D01*
X129635809Y-100163333D01*
X130064380Y-100782380D02*
X130064380Y-99782380D01*
X130492952Y-100782380D02*
X130492952Y-100258571D01*
X130445333Y-100163333D01*
X130350095Y-100115714D01*
X130207238Y-100115714D01*
X130112000Y-100163333D01*
X130064380Y-100210952D01*
X131397714Y-100782380D02*
X131397714Y-100258571D01*
X131350095Y-100163333D01*
X131254857Y-100115714D01*
X131064380Y-100115714D01*
X130969142Y-100163333D01*
X131397714Y-100734761D02*
X131302476Y-100782380D01*
X131064380Y-100782380D01*
X130969142Y-100734761D01*
X130921523Y-100639523D01*
X130921523Y-100544285D01*
X130969142Y-100449047D01*
X131064380Y-100401428D01*
X131302476Y-100401428D01*
X131397714Y-100353809D01*
X131873904Y-100782380D02*
X131873904Y-100115714D01*
X131873904Y-100306190D02*
X131921523Y-100210952D01*
X131969142Y-100163333D01*
X132064380Y-100115714D01*
X132159619Y-100115714D01*
X132635809Y-100782380D02*
X132540571Y-100734761D01*
X132492952Y-100639523D01*
X132492952Y-99782380D01*
X133397714Y-100734761D02*
X133302476Y-100782380D01*
X133112000Y-100782380D01*
X133016761Y-100734761D01*
X132969142Y-100639523D01*
X132969142Y-100258571D01*
X133016761Y-100163333D01*
X133112000Y-100115714D01*
X133302476Y-100115714D01*
X133397714Y-100163333D01*
X133445333Y-100258571D01*
X133445333Y-100353809D01*
X132969142Y-100449047D01*
X133826285Y-100734761D02*
X133921523Y-100782380D01*
X134112000Y-100782380D01*
X134207238Y-100734761D01*
X134254857Y-100639523D01*
X134254857Y-100591904D01*
X134207238Y-100496666D01*
X134112000Y-100449047D01*
X133969142Y-100449047D01*
X133873904Y-100401428D01*
X133826285Y-100306190D01*
X133826285Y-100258571D01*
X133873904Y-100163333D01*
X133969142Y-100115714D01*
X134112000Y-100115714D01*
X134207238Y-100163333D01*
X134826285Y-100782380D02*
X134731047Y-100734761D01*
X134683428Y-100639523D01*
X134683428Y-99782380D01*
X135635809Y-100782380D02*
X135635809Y-100258571D01*
X135588190Y-100163333D01*
X135492952Y-100115714D01*
X135302476Y-100115714D01*
X135207238Y-100163333D01*
X135635809Y-100734761D02*
X135540571Y-100782380D01*
X135302476Y-100782380D01*
X135207238Y-100734761D01*
X135159619Y-100639523D01*
X135159619Y-100544285D01*
X135207238Y-100449047D01*
X135302476Y-100401428D01*
X135540571Y-100401428D01*
X135635809Y-100353809D01*
X136112000Y-100782380D02*
X136112000Y-99782380D01*
X136112000Y-100163333D02*
X136207238Y-100115714D01*
X136397714Y-100115714D01*
X136492952Y-100163333D01*
X136540571Y-100210952D01*
X136588190Y-100306190D01*
X136588190Y-100591904D01*
X136540571Y-100687142D01*
X136492952Y-100734761D01*
X136397714Y-100782380D01*
X136207238Y-100782380D01*
X136112000Y-100734761D01*
X136969142Y-100734761D02*
X137064380Y-100782380D01*
X137254857Y-100782380D01*
X137350095Y-100734761D01*
X137397714Y-100639523D01*
X137397714Y-100591904D01*
X137350095Y-100496666D01*
X137254857Y-100449047D01*
X137112000Y-100449047D01*
X137016761Y-100401428D01*
X136969142Y-100306190D01*
X136969142Y-100258571D01*
X137016761Y-100163333D01*
X137112000Y-100115714D01*
X137254857Y-100115714D01*
X137350095Y-100163333D01*
X137826285Y-100687142D02*
X137873904Y-100734761D01*
X137826285Y-100782380D01*
X137778666Y-100734761D01*
X137826285Y-100687142D01*
X137826285Y-100782380D01*
X138159619Y-100115714D02*
X138540571Y-100115714D01*
X138302476Y-100782380D02*
X138302476Y-99925238D01*
X138350095Y-99830000D01*
X138445333Y-99782380D01*
X138540571Y-99782380D01*
X138873904Y-100782380D02*
X138873904Y-100115714D01*
X138873904Y-100306190D02*
X138921523Y-100210952D01*
X138969142Y-100163333D01*
X139064380Y-100115714D01*
X139159619Y-100115714D01*
X127508000Y-78232000D02*
X145542000Y-78232000D01*
X145542000Y-45466000D02*
X127508000Y-45466000D01*
X127508000Y-78232000D02*
X127508000Y-45466000D01*
X145542000Y-45466000D02*
X145542000Y-78232000D01*
D12*
G36*
X135902480Y-94527077D02*
G01*
X135966400Y-94527138D01*
X136013391Y-94528808D01*
X136046052Y-94534309D01*
X136066984Y-94545867D01*
X136078785Y-94565708D01*
X136084056Y-94596057D01*
X136085396Y-94639137D01*
X136085384Y-94683627D01*
X136085384Y-94809762D01*
X136178446Y-94884613D01*
X136271507Y-94959464D01*
X136268811Y-95102289D01*
X136266115Y-95245115D01*
X135907096Y-95247678D01*
X135548077Y-95250240D01*
X135548098Y-95101139D01*
X135548120Y-94952038D01*
X135635615Y-94883653D01*
X135723110Y-94815269D01*
X135723516Y-94690711D01*
X135723847Y-94632928D01*
X135726166Y-94590640D01*
X135733116Y-94561431D01*
X135747338Y-94542884D01*
X135771475Y-94532586D01*
X135808168Y-94528120D01*
X135860058Y-94527071D01*
X135902480Y-94527077D01*
G37*
X135902480Y-94527077D02*
X135966400Y-94527138D01*
X136013391Y-94528808D01*
X136046052Y-94534309D01*
X136066984Y-94545867D01*
X136078785Y-94565708D01*
X136084056Y-94596057D01*
X136085396Y-94639137D01*
X136085384Y-94683627D01*
X136085384Y-94809762D01*
X136178446Y-94884613D01*
X136271507Y-94959464D01*
X136268811Y-95102289D01*
X136266115Y-95245115D01*
X135907096Y-95247678D01*
X135548077Y-95250240D01*
X135548098Y-95101139D01*
X135548120Y-94952038D01*
X135635615Y-94883653D01*
X135723110Y-94815269D01*
X135723516Y-94690711D01*
X135723847Y-94632928D01*
X135726166Y-94590640D01*
X135733116Y-94561431D01*
X135747338Y-94542884D01*
X135771475Y-94532586D01*
X135808168Y-94528120D01*
X135860058Y-94527071D01*
X135902480Y-94527077D01*
G36*
X135176137Y-94552817D02*
G01*
X135184829Y-94565898D01*
X135190635Y-94581570D01*
X135194121Y-94603852D01*
X135195851Y-94636761D01*
X135196391Y-94684316D01*
X135196406Y-94696913D01*
X135196428Y-94815269D01*
X135283923Y-94883653D01*
X135371418Y-94952038D01*
X135372230Y-95250000D01*
X134649307Y-95250000D01*
X134649714Y-95101019D01*
X134650120Y-94952038D01*
X134737615Y-94883653D01*
X134825109Y-94815269D01*
X134825131Y-94696913D01*
X134825488Y-94645664D01*
X134826913Y-94609929D01*
X134829972Y-94585690D01*
X134835228Y-94568929D01*
X134843249Y-94555628D01*
X134845401Y-94552817D01*
X134865648Y-94527077D01*
X135155889Y-94527077D01*
X135176137Y-94552817D01*
G37*
X135176137Y-94552817D02*
X135184829Y-94565898D01*
X135190635Y-94581570D01*
X135194121Y-94603852D01*
X135195851Y-94636761D01*
X135196391Y-94684316D01*
X135196406Y-94696913D01*
X135196428Y-94815269D01*
X135283923Y-94883653D01*
X135371418Y-94952038D01*
X135372230Y-95250000D01*
X134649307Y-95250000D01*
X134649714Y-95101019D01*
X134650120Y-94952038D01*
X134737615Y-94883653D01*
X134825109Y-94815269D01*
X134825131Y-94696913D01*
X134825488Y-94645664D01*
X134826913Y-94609929D01*
X134829972Y-94585690D01*
X134835228Y-94568929D01*
X134843249Y-94555628D01*
X134845401Y-94552817D01*
X134865648Y-94527077D01*
X135155889Y-94527077D01*
X135176137Y-94552817D01*
G36*
X134116884Y-94527077D02*
G01*
X134180368Y-94527150D01*
X134226938Y-94528883D01*
X134259210Y-94534542D01*
X134279800Y-94546394D01*
X134291323Y-94566706D01*
X134296395Y-94597745D01*
X134297631Y-94641779D01*
X134297615Y-94683730D01*
X134297615Y-94809968D01*
X134473461Y-94950768D01*
X134473461Y-95250000D01*
X134118512Y-95250000D01*
X134037088Y-95249826D01*
X133961887Y-95249333D01*
X133895132Y-95248560D01*
X133839046Y-95247547D01*
X133795852Y-95246335D01*
X133767774Y-95244962D01*
X133757051Y-95243487D01*
X133754716Y-95231868D01*
X133752752Y-95204399D01*
X133751324Y-95164767D01*
X133750596Y-95116662D01*
X133750538Y-95098015D01*
X133750538Y-94959055D01*
X133843346Y-94884409D01*
X133936153Y-94809762D01*
X133936153Y-94683627D01*
X133936239Y-94628637D01*
X133938240Y-94588298D01*
X133944772Y-94560344D01*
X133958450Y-94542508D01*
X133981890Y-94532527D01*
X134017708Y-94528134D01*
X134068519Y-94527063D01*
X134116884Y-94527077D01*
G37*
X134116884Y-94527077D02*
X134180368Y-94527150D01*
X134226938Y-94528883D01*
X134259210Y-94534542D01*
X134279800Y-94546394D01*
X134291323Y-94566706D01*
X134296395Y-94597745D01*
X134297631Y-94641779D01*
X134297615Y-94683730D01*
X134297615Y-94809968D01*
X134473461Y-94950768D01*
X134473461Y-95250000D01*
X134118512Y-95250000D01*
X134037088Y-95249826D01*
X133961887Y-95249333D01*
X133895132Y-95248560D01*
X133839046Y-95247547D01*
X133795852Y-95246335D01*
X133767774Y-95244962D01*
X133757051Y-95243487D01*
X133754716Y-95231868D01*
X133752752Y-95204399D01*
X133751324Y-95164767D01*
X133750596Y-95116662D01*
X133750538Y-95098015D01*
X133750538Y-94959055D01*
X133843346Y-94884409D01*
X133936153Y-94809762D01*
X133936153Y-94683627D01*
X133936239Y-94628637D01*
X133938240Y-94588298D01*
X133944772Y-94560344D01*
X133958450Y-94542508D01*
X133981890Y-94532527D01*
X134017708Y-94528134D01*
X134068519Y-94527063D01*
X134116884Y-94527077D01*
G36*
X133285037Y-94527168D02*
G01*
X133331731Y-94529037D01*
X133364237Y-94535071D01*
X133385226Y-94547658D01*
X133397369Y-94569189D01*
X133403336Y-94602051D01*
X133405799Y-94648633D01*
X133406925Y-94692943D01*
X133410120Y-94817744D01*
X133497549Y-94887748D01*
X133584979Y-94957753D01*
X133579577Y-95245115D01*
X133220557Y-95247678D01*
X132861538Y-95250240D01*
X132861944Y-95101139D01*
X132862351Y-94952038D01*
X132949845Y-94883653D01*
X133037340Y-94815269D01*
X133037362Y-94690711D01*
X133037477Y-94633692D01*
X133039525Y-94591728D01*
X133046101Y-94562515D01*
X133059796Y-94543748D01*
X133083204Y-94533123D01*
X133118918Y-94528336D01*
X133169529Y-94527083D01*
X133221485Y-94527077D01*
X133285037Y-94527168D01*
G37*
X133285037Y-94527168D02*
X133331731Y-94529037D01*
X133364237Y-94535071D01*
X133385226Y-94547658D01*
X133397369Y-94569189D01*
X133403336Y-94602051D01*
X133405799Y-94648633D01*
X133406925Y-94692943D01*
X133410120Y-94817744D01*
X133497549Y-94887748D01*
X133584979Y-94957753D01*
X133579577Y-95245115D01*
X133220557Y-95247678D01*
X132861538Y-95250240D01*
X132861944Y-95101139D01*
X132862351Y-94952038D01*
X132949845Y-94883653D01*
X133037340Y-94815269D01*
X133037362Y-94690711D01*
X133037477Y-94633692D01*
X133039525Y-94591728D01*
X133046101Y-94562515D01*
X133059796Y-94543748D01*
X133083204Y-94533123D01*
X133118918Y-94528336D01*
X133169529Y-94527083D01*
X133221485Y-94527077D01*
X133285037Y-94527168D01*
G36*
X132327442Y-94527077D02*
G01*
X132391224Y-94527180D01*
X132438090Y-94529050D01*
X132470651Y-94535025D01*
X132491520Y-94547444D01*
X132503311Y-94568646D01*
X132508635Y-94600970D01*
X132510107Y-94646753D01*
X132510252Y-94690711D01*
X132510658Y-94815269D01*
X132598153Y-94883653D01*
X132685648Y-94952038D01*
X132685692Y-95250000D01*
X132330743Y-95250000D01*
X132249319Y-95249826D01*
X132174118Y-95249333D01*
X132107363Y-95248560D01*
X132051277Y-95247547D01*
X132008083Y-95246335D01*
X131980005Y-95244962D01*
X131969282Y-95243487D01*
X131966953Y-95231872D01*
X131964992Y-95204397D01*
X131963564Y-95164737D01*
X131962831Y-95116569D01*
X131962769Y-95097259D01*
X131962769Y-94957545D01*
X132055577Y-94882898D01*
X132148384Y-94808251D01*
X132148384Y-94683832D01*
X132148407Y-94628536D01*
X132150227Y-94588036D01*
X132156468Y-94560033D01*
X132169754Y-94542229D01*
X132192712Y-94532327D01*
X132227965Y-94528028D01*
X132278139Y-94527036D01*
X132327442Y-94527077D01*
G37*
X132327442Y-94527077D02*
X132391224Y-94527180D01*
X132438090Y-94529050D01*
X132470651Y-94535025D01*
X132491520Y-94547444D01*
X132503311Y-94568646D01*
X132508635Y-94600970D01*
X132510107Y-94646753D01*
X132510252Y-94690711D01*
X132510658Y-94815269D01*
X132598153Y-94883653D01*
X132685648Y-94952038D01*
X132685692Y-95250000D01*
X132330743Y-95250000D01*
X132249319Y-95249826D01*
X132174118Y-95249333D01*
X132107363Y-95248560D01*
X132051277Y-95247547D01*
X132008083Y-95246335D01*
X131980005Y-95244962D01*
X131969282Y-95243487D01*
X131966953Y-95231872D01*
X131964992Y-95204397D01*
X131963564Y-95164737D01*
X131962831Y-95116569D01*
X131962769Y-95097259D01*
X131962769Y-94957545D01*
X132055577Y-94882898D01*
X132148384Y-94808251D01*
X132148384Y-94683832D01*
X132148407Y-94628536D01*
X132150227Y-94588036D01*
X132156468Y-94560033D01*
X132169754Y-94542229D01*
X132192712Y-94532327D01*
X132227965Y-94528028D01*
X132278139Y-94527036D01*
X132327442Y-94527077D01*
G36*
X134306075Y-95405617D02*
G01*
X134486348Y-95405731D01*
X134664367Y-95405918D01*
X134839040Y-95406178D01*
X135009279Y-95406510D01*
X135173993Y-95406915D01*
X135332094Y-95407393D01*
X135482492Y-95407944D01*
X135624096Y-95408567D01*
X135755817Y-95409264D01*
X135876566Y-95410032D01*
X135985252Y-95410874D01*
X136080787Y-95411789D01*
X136162080Y-95412776D01*
X136228042Y-95413836D01*
X136277583Y-95414969D01*
X136309613Y-95416174D01*
X136322329Y-95417270D01*
X136399386Y-95442241D01*
X136468983Y-95483413D01*
X136528110Y-95538246D01*
X136573760Y-95604199D01*
X136592476Y-95645467D01*
X136613194Y-95700842D01*
X136608038Y-98381038D01*
X136582390Y-98434769D01*
X136537464Y-98507266D01*
X136479091Y-98566004D01*
X136408762Y-98609812D01*
X136327972Y-98637521D01*
X136321807Y-98638861D01*
X136305679Y-98640189D01*
X136271145Y-98641429D01*
X136219290Y-98642581D01*
X136151198Y-98643646D01*
X136067954Y-98644623D01*
X135970642Y-98645515D01*
X135860347Y-98646322D01*
X135738152Y-98647044D01*
X135605143Y-98647682D01*
X135462403Y-98648238D01*
X135311018Y-98648711D01*
X135152071Y-98649102D01*
X134986647Y-98649413D01*
X134815831Y-98649643D01*
X134640706Y-98649794D01*
X134462357Y-98649866D01*
X134281869Y-98649861D01*
X134100325Y-98649778D01*
X133918811Y-98649618D01*
X133738411Y-98649383D01*
X133560209Y-98649072D01*
X133385289Y-98648688D01*
X133214737Y-98648229D01*
X133049635Y-98647698D01*
X132891070Y-98647094D01*
X132740124Y-98646419D01*
X132597883Y-98645673D01*
X132465431Y-98644857D01*
X132343853Y-98643972D01*
X132234232Y-98643018D01*
X132137653Y-98641997D01*
X132055201Y-98640908D01*
X131987960Y-98639753D01*
X131937014Y-98638532D01*
X131903448Y-98637246D01*
X131888399Y-98635908D01*
X131811887Y-98607815D01*
X131743638Y-98563922D01*
X131686594Y-98506807D01*
X131643696Y-98439046D01*
X131631659Y-98410894D01*
X131628750Y-98402947D01*
X131626129Y-98394781D01*
X131623781Y-98385386D01*
X131621691Y-98373757D01*
X131619843Y-98358884D01*
X131618223Y-98339761D01*
X131616817Y-98315380D01*
X131615608Y-98284732D01*
X131614582Y-98246810D01*
X131613724Y-98200607D01*
X131613019Y-98145115D01*
X131612451Y-98079326D01*
X131612007Y-98002232D01*
X131611670Y-97912826D01*
X131611427Y-97810099D01*
X131611261Y-97693045D01*
X131611158Y-97560655D01*
X131611103Y-97411922D01*
X131611081Y-97245838D01*
X131611077Y-97061395D01*
X131611077Y-97028000D01*
X131611078Y-96883055D01*
X132040923Y-96883055D01*
X132040923Y-97182714D01*
X132162361Y-97185953D01*
X132221284Y-97188386D01*
X132264660Y-97193062D01*
X132296465Y-97201489D01*
X132320676Y-97215176D01*
X132341269Y-97235630D01*
X132359852Y-97260858D01*
X132371004Y-97280561D01*
X132380118Y-97305051D01*
X132387377Y-97336296D01*
X132392966Y-97376265D01*
X132397069Y-97426926D01*
X132399870Y-97490249D01*
X132401553Y-97568201D01*
X132402302Y-97662752D01*
X132402384Y-97715500D01*
X132402611Y-97808595D01*
X132403358Y-97884585D01*
X132404724Y-97945898D01*
X132406811Y-97994966D01*
X132409719Y-98034215D01*
X132413546Y-98066075D01*
X132417819Y-98090238D01*
X132442564Y-98177651D01*
X132478170Y-98250086D01*
X132525679Y-98308404D01*
X132586134Y-98353468D01*
X132660578Y-98386137D01*
X132750051Y-98407275D01*
X132810358Y-98414689D01*
X132849701Y-98417347D01*
X132903071Y-98419772D01*
X132964954Y-98421776D01*
X133029839Y-98423167D01*
X133069134Y-98423637D01*
X133242538Y-98425000D01*
X133242538Y-98122153D01*
X133088673Y-98121920D01*
X133008981Y-98120907D01*
X132946158Y-98117594D01*
X132897592Y-98111168D01*
X132860670Y-98100816D01*
X132832780Y-98085723D01*
X132811308Y-98065077D01*
X132793642Y-98038063D01*
X132788640Y-98028488D01*
X132783295Y-98016446D01*
X132778942Y-98002340D01*
X132775420Y-97983948D01*
X132772570Y-97959048D01*
X132770233Y-97925417D01*
X132768248Y-97880832D01*
X132766456Y-97823071D01*
X132764947Y-97760293D01*
X133694995Y-97760293D01*
X133719615Y-97885742D01*
X133744235Y-98011190D01*
X133796083Y-98003060D01*
X133831658Y-97995883D01*
X133876404Y-97984662D01*
X133921027Y-97971740D01*
X133923792Y-97970868D01*
X134012772Y-97935878D01*
X134093683Y-97888930D01*
X134171295Y-97827039D01*
X134205046Y-97794884D01*
X134277884Y-97711047D01*
X134332496Y-97622236D01*
X134369537Y-97526760D01*
X134389661Y-97422926D01*
X134393522Y-97309042D01*
X134393467Y-97307485D01*
X134388044Y-97234330D01*
X134376682Y-97175997D01*
X134357993Y-97128311D01*
X134330594Y-97087094D01*
X134314211Y-97068663D01*
X134262010Y-97027622D01*
X134200594Y-97001192D01*
X134133847Y-96989486D01*
X134065654Y-96992619D01*
X133999899Y-97010703D01*
X133940465Y-97043854D01*
X133923909Y-97057228D01*
X133880030Y-97103629D01*
X133851828Y-97153727D01*
X133837312Y-97212187D01*
X133834211Y-97267346D01*
X133835585Y-97312070D01*
X133840375Y-97345095D01*
X133850166Y-97374173D01*
X133860440Y-97395551D01*
X133893762Y-97445462D01*
X133936634Y-97488485D01*
X133984764Y-97521492D01*
X134033856Y-97541357D01*
X134066729Y-97545769D01*
X134080567Y-97551815D01*
X134079096Y-97569898D01*
X134062336Y-97599940D01*
X134050942Y-97615836D01*
X134011016Y-97655157D01*
X133955435Y-97689642D01*
X133887853Y-97717431D01*
X133814038Y-97736281D01*
X133774573Y-97743722D01*
X133740531Y-97750345D01*
X133718139Y-97754935D01*
X133715440Y-97755541D01*
X133694995Y-97760293D01*
X132764947Y-97760293D01*
X132764697Y-97749913D01*
X132763085Y-97672769D01*
X132761089Y-97581185D01*
X132759070Y-97506889D01*
X132756886Y-97447627D01*
X132754394Y-97401148D01*
X132751452Y-97365201D01*
X132747919Y-97337534D01*
X132743653Y-97315895D01*
X132739655Y-97301538D01*
X132715868Y-97237225D01*
X132688915Y-97187002D01*
X132655782Y-97145419D01*
X132650029Y-97139526D01*
X132621493Y-97116078D01*
X132584146Y-97092143D01*
X132543789Y-97070750D01*
X132506225Y-97054927D01*
X132477255Y-97047702D01*
X132473788Y-97047546D01*
X132452619Y-97044932D01*
X132449207Y-97038002D01*
X132462607Y-97028092D01*
X132491870Y-97016536D01*
X132496884Y-97014954D01*
X132574539Y-96982119D01*
X132638593Y-96935430D01*
X132689470Y-96874460D01*
X132727594Y-96798783D01*
X132736199Y-96774414D01*
X132742012Y-96755045D01*
X132746737Y-96734874D01*
X132750545Y-96711484D01*
X132753607Y-96682459D01*
X132756096Y-96645384D01*
X132758183Y-96597843D01*
X132760038Y-96537419D01*
X132761833Y-96461696D01*
X132763251Y-96393000D01*
X132764781Y-96320976D01*
X133836781Y-96320976D01*
X133851075Y-96392862D01*
X133881048Y-96455774D01*
X133925656Y-96507909D01*
X133983859Y-96547466D01*
X134025770Y-96564707D01*
X134075115Y-96573962D01*
X134133074Y-96574580D01*
X134190996Y-96567067D01*
X134239653Y-96552185D01*
X134301428Y-96515519D01*
X134350262Y-96466888D01*
X134376394Y-96424635D01*
X134390068Y-96382555D01*
X134397951Y-96329856D01*
X134399828Y-96273675D01*
X134395483Y-96221149D01*
X134384703Y-96179415D01*
X134383828Y-96177366D01*
X134347931Y-96118978D01*
X134298474Y-96072022D01*
X134238658Y-96037885D01*
X134171680Y-96017951D01*
X134100739Y-96013606D01*
X134032517Y-96025199D01*
X133964522Y-96053999D01*
X133909532Y-96096310D01*
X133868946Y-96150565D01*
X133844160Y-96215197D01*
X133839207Y-96241920D01*
X133836781Y-96320976D01*
X132764781Y-96320976D01*
X132765241Y-96299351D01*
X132767319Y-96223114D01*
X132769799Y-96162162D01*
X132772998Y-96114369D01*
X132777231Y-96077609D01*
X132782814Y-96049756D01*
X132790061Y-96028684D01*
X132799290Y-96012266D01*
X132810814Y-95998378D01*
X132823644Y-95986071D01*
X132844164Y-95971199D01*
X132870286Y-95960057D01*
X132904806Y-95952189D01*
X132950519Y-95947138D01*
X133010221Y-95944450D01*
X133083788Y-95943669D01*
X133242538Y-95943615D01*
X133242538Y-95941752D01*
X134991230Y-95941752D01*
X135169519Y-95945333D01*
X135236208Y-95946976D01*
X135286381Y-95949051D01*
X135323059Y-95951856D01*
X135349263Y-95955688D01*
X135368014Y-95960844D01*
X135379465Y-95966007D01*
X135402498Y-95980887D01*
X135421352Y-95999557D01*
X135436425Y-96023964D01*
X135448114Y-96056055D01*
X135456817Y-96097776D01*
X135462931Y-96151076D01*
X135466852Y-96217900D01*
X135468980Y-96300195D01*
X135469709Y-96399910D01*
X135469719Y-96408302D01*
X135470163Y-96501453D01*
X135471537Y-96577770D01*
X135474155Y-96639946D01*
X135478329Y-96690674D01*
X135484369Y-96732649D01*
X135492590Y-96768564D01*
X135503302Y-96801114D01*
X135516818Y-96832991D01*
X135519615Y-96838954D01*
X135559515Y-96901098D01*
X135613795Y-96953052D01*
X135678698Y-96991890D01*
X135743461Y-97013291D01*
X135773140Y-97020671D01*
X135784199Y-97027353D01*
X135776504Y-97034875D01*
X135749917Y-97044776D01*
X135740423Y-97047766D01*
X135659599Y-97080983D01*
X135593822Y-97126237D01*
X135542243Y-97184204D01*
X135518102Y-97224692D01*
X135504495Y-97254648D01*
X135493616Y-97287128D01*
X135485184Y-97324630D01*
X135478917Y-97369656D01*
X135474534Y-97424707D01*
X135471753Y-97492283D01*
X135470294Y-97574884D01*
X135469889Y-97653230D01*
X135469201Y-97754894D01*
X135467195Y-97838973D01*
X135463482Y-97907399D01*
X135457669Y-97962102D01*
X135449365Y-98005015D01*
X135438180Y-98038068D01*
X135423720Y-98063194D01*
X135405596Y-98082324D01*
X135383416Y-98097389D01*
X135379465Y-98099551D01*
X135364144Y-98105921D01*
X135343303Y-98110770D01*
X135313955Y-98114394D01*
X135273110Y-98117089D01*
X135217781Y-98119152D01*
X135169519Y-98120363D01*
X134991230Y-98124296D01*
X134991230Y-98425000D01*
X135149980Y-98424748D01*
X135213506Y-98424022D01*
X135279373Y-98422201D01*
X135341055Y-98419533D01*
X135392028Y-98416266D01*
X135406227Y-98415017D01*
X135496469Y-98402543D01*
X135571080Y-98383576D01*
X135633246Y-98356889D01*
X135686151Y-98321255D01*
X135713004Y-98296850D01*
X135737792Y-98270802D01*
X135758605Y-98245153D01*
X135775822Y-98217933D01*
X135789827Y-98187174D01*
X135801000Y-98150908D01*
X135809723Y-98107166D01*
X135816376Y-98053979D01*
X135821342Y-97989379D01*
X135825002Y-97911397D01*
X135827738Y-97818064D01*
X135829930Y-97707412D01*
X135830189Y-97692008D01*
X135836269Y-97325363D01*
X135860956Y-97276816D01*
X135882671Y-97241615D01*
X135908775Y-97216186D01*
X135942556Y-97199154D01*
X135987305Y-97189148D01*
X136046309Y-97184794D01*
X136082570Y-97184307D01*
X136192846Y-97184307D01*
X136192846Y-96881461D01*
X136082570Y-96881461D01*
X136014961Y-96879440D01*
X135963301Y-96872467D01*
X135924333Y-96859180D01*
X135894801Y-96838218D01*
X135871446Y-96808217D01*
X135860692Y-96788653D01*
X135854447Y-96775853D01*
X135849335Y-96763520D01*
X135845207Y-96749585D01*
X135841911Y-96731976D01*
X135839296Y-96708623D01*
X135837210Y-96677454D01*
X135835504Y-96636398D01*
X135834025Y-96583385D01*
X135832624Y-96516344D01*
X135831148Y-96433203D01*
X135830062Y-96368577D01*
X135828189Y-96264891D01*
X135826193Y-96178581D01*
X135823831Y-96107482D01*
X135820863Y-96049432D01*
X135817048Y-96002268D01*
X135812144Y-95963827D01*
X135805911Y-95931945D01*
X135798107Y-95904460D01*
X135788492Y-95879207D01*
X135776823Y-95854026D01*
X135771531Y-95843497D01*
X135738481Y-95794856D01*
X135692435Y-95748858D01*
X135639643Y-95711502D01*
X135626751Y-95704533D01*
X135591896Y-95688276D01*
X135556662Y-95675338D01*
X135518110Y-95665273D01*
X135473299Y-95657639D01*
X135419288Y-95651990D01*
X135353138Y-95647883D01*
X135271907Y-95644875D01*
X135223250Y-95643609D01*
X134991230Y-95638172D01*
X134991230Y-95941752D01*
X133242538Y-95941752D01*
X133242538Y-95638054D01*
X133005634Y-95643658D01*
X132914495Y-95646309D01*
X132840045Y-95649790D01*
X132779439Y-95654518D01*
X132729833Y-95660914D01*
X132688382Y-95669395D01*
X132652241Y-95680380D01*
X132618565Y-95694288D01*
X132600024Y-95703355D01*
X132541073Y-95744068D01*
X132490497Y-95800290D01*
X132450193Y-95869095D01*
X132422054Y-95947561D01*
X132412658Y-95992461D01*
X132410116Y-96018176D01*
X132407794Y-96060412D01*
X132405774Y-96116154D01*
X132404141Y-96182386D01*
X132402979Y-96256091D01*
X132402372Y-96334252D01*
X132402305Y-96363692D01*
X132401919Y-96467453D01*
X132400678Y-96553686D01*
X132398211Y-96624394D01*
X132394144Y-96681581D01*
X132388105Y-96727250D01*
X132379723Y-96763407D01*
X132368624Y-96792053D01*
X132354436Y-96815194D01*
X132336788Y-96834834D01*
X132315306Y-96852975D01*
X132310738Y-96856434D01*
X132296621Y-96865154D01*
X132279064Y-96871218D01*
X132254104Y-96875249D01*
X132217775Y-96877873D01*
X132166116Y-96879714D01*
X132162361Y-96879816D01*
X132040923Y-96883055D01*
X131611078Y-96883055D01*
X131611079Y-96840322D01*
X131611097Y-96671175D01*
X131611145Y-96519551D01*
X131611239Y-96384442D01*
X131611393Y-96264841D01*
X131611622Y-96159740D01*
X131611942Y-96068131D01*
X131612367Y-95989007D01*
X131612912Y-95921359D01*
X131613593Y-95864180D01*
X131614424Y-95816462D01*
X131615420Y-95777198D01*
X131616597Y-95745380D01*
X131617969Y-95720000D01*
X131619551Y-95700051D01*
X131621358Y-95684524D01*
X131623406Y-95672412D01*
X131625709Y-95662708D01*
X131628283Y-95654403D01*
X131631142Y-95646489D01*
X131631659Y-95645105D01*
X131668258Y-95574236D01*
X131720057Y-95512944D01*
X131784016Y-95463793D01*
X131857101Y-95429344D01*
X131901670Y-95417270D01*
X131917753Y-95416002D01*
X131952285Y-95414807D01*
X132004176Y-95413684D01*
X132072336Y-95412634D01*
X132155675Y-95411657D01*
X132253105Y-95410753D01*
X132363535Y-95409921D01*
X132485875Y-95409162D01*
X132619037Y-95408476D01*
X132761930Y-95407863D01*
X132913464Y-95407322D01*
X133072550Y-95406854D01*
X133238099Y-95406459D01*
X133409020Y-95406137D01*
X133584224Y-95405887D01*
X133762621Y-95405711D01*
X133943122Y-95405607D01*
X134124636Y-95405575D01*
X134306075Y-95405617D01*
G37*
X134306075Y-95405617D02*
X134486348Y-95405731D01*
X134664367Y-95405918D01*
X134839040Y-95406178D01*
X135009279Y-95406510D01*
X135173993Y-95406915D01*
X135332094Y-95407393D01*
X135482492Y-95407944D01*
X135624096Y-95408567D01*
X135755817Y-95409264D01*
X135876566Y-95410032D01*
X135985252Y-95410874D01*
X136080787Y-95411789D01*
X136162080Y-95412776D01*
X136228042Y-95413836D01*
X136277583Y-95414969D01*
X136309613Y-95416174D01*
X136322329Y-95417270D01*
X136399386Y-95442241D01*
X136468983Y-95483413D01*
X136528110Y-95538246D01*
X136573760Y-95604199D01*
X136592476Y-95645467D01*
X136613194Y-95700842D01*
X136608038Y-98381038D01*
X136582390Y-98434769D01*
X136537464Y-98507266D01*
X136479091Y-98566004D01*
X136408762Y-98609812D01*
X136327972Y-98637521D01*
X136321807Y-98638861D01*
X136305679Y-98640189D01*
X136271145Y-98641429D01*
X136219290Y-98642581D01*
X136151198Y-98643646D01*
X136067954Y-98644623D01*
X135970642Y-98645515D01*
X135860347Y-98646322D01*
X135738152Y-98647044D01*
X135605143Y-98647682D01*
X135462403Y-98648238D01*
X135311018Y-98648711D01*
X135152071Y-98649102D01*
X134986647Y-98649413D01*
X134815831Y-98649643D01*
X134640706Y-98649794D01*
X134462357Y-98649866D01*
X134281869Y-98649861D01*
X134100325Y-98649778D01*
X133918811Y-98649618D01*
X133738411Y-98649383D01*
X133560209Y-98649072D01*
X133385289Y-98648688D01*
X133214737Y-98648229D01*
X133049635Y-98647698D01*
X132891070Y-98647094D01*
X132740124Y-98646419D01*
X132597883Y-98645673D01*
X132465431Y-98644857D01*
X132343853Y-98643972D01*
X132234232Y-98643018D01*
X132137653Y-98641997D01*
X132055201Y-98640908D01*
X131987960Y-98639753D01*
X131937014Y-98638532D01*
X131903448Y-98637246D01*
X131888399Y-98635908D01*
X131811887Y-98607815D01*
X131743638Y-98563922D01*
X131686594Y-98506807D01*
X131643696Y-98439046D01*
X131631659Y-98410894D01*
X131628750Y-98402947D01*
X131626129Y-98394781D01*
X131623781Y-98385386D01*
X131621691Y-98373757D01*
X131619843Y-98358884D01*
X131618223Y-98339761D01*
X131616817Y-98315380D01*
X131615608Y-98284732D01*
X131614582Y-98246810D01*
X131613724Y-98200607D01*
X131613019Y-98145115D01*
X131612451Y-98079326D01*
X131612007Y-98002232D01*
X131611670Y-97912826D01*
X131611427Y-97810099D01*
X131611261Y-97693045D01*
X131611158Y-97560655D01*
X131611103Y-97411922D01*
X131611081Y-97245838D01*
X131611077Y-97061395D01*
X131611077Y-97028000D01*
X131611078Y-96883055D01*
X132040923Y-96883055D01*
X132040923Y-97182714D01*
X132162361Y-97185953D01*
X132221284Y-97188386D01*
X132264660Y-97193062D01*
X132296465Y-97201489D01*
X132320676Y-97215176D01*
X132341269Y-97235630D01*
X132359852Y-97260858D01*
X132371004Y-97280561D01*
X132380118Y-97305051D01*
X132387377Y-97336296D01*
X132392966Y-97376265D01*
X132397069Y-97426926D01*
X132399870Y-97490249D01*
X132401553Y-97568201D01*
X132402302Y-97662752D01*
X132402384Y-97715500D01*
X132402611Y-97808595D01*
X132403358Y-97884585D01*
X132404724Y-97945898D01*
X132406811Y-97994966D01*
X132409719Y-98034215D01*
X132413546Y-98066075D01*
X132417819Y-98090238D01*
X132442564Y-98177651D01*
X132478170Y-98250086D01*
X132525679Y-98308404D01*
X132586134Y-98353468D01*
X132660578Y-98386137D01*
X132750051Y-98407275D01*
X132810358Y-98414689D01*
X132849701Y-98417347D01*
X132903071Y-98419772D01*
X132964954Y-98421776D01*
X133029839Y-98423167D01*
X133069134Y-98423637D01*
X133242538Y-98425000D01*
X133242538Y-98122153D01*
X133088673Y-98121920D01*
X133008981Y-98120907D01*
X132946158Y-98117594D01*
X132897592Y-98111168D01*
X132860670Y-98100816D01*
X132832780Y-98085723D01*
X132811308Y-98065077D01*
X132793642Y-98038063D01*
X132788640Y-98028488D01*
X132783295Y-98016446D01*
X132778942Y-98002340D01*
X132775420Y-97983948D01*
X132772570Y-97959048D01*
X132770233Y-97925417D01*
X132768248Y-97880832D01*
X132766456Y-97823071D01*
X132764947Y-97760293D01*
X133694995Y-97760293D01*
X133719615Y-97885742D01*
X133744235Y-98011190D01*
X133796083Y-98003060D01*
X133831658Y-97995883D01*
X133876404Y-97984662D01*
X133921027Y-97971740D01*
X133923792Y-97970868D01*
X134012772Y-97935878D01*
X134093683Y-97888930D01*
X134171295Y-97827039D01*
X134205046Y-97794884D01*
X134277884Y-97711047D01*
X134332496Y-97622236D01*
X134369537Y-97526760D01*
X134389661Y-97422926D01*
X134393522Y-97309042D01*
X134393467Y-97307485D01*
X134388044Y-97234330D01*
X134376682Y-97175997D01*
X134357993Y-97128311D01*
X134330594Y-97087094D01*
X134314211Y-97068663D01*
X134262010Y-97027622D01*
X134200594Y-97001192D01*
X134133847Y-96989486D01*
X134065654Y-96992619D01*
X133999899Y-97010703D01*
X133940465Y-97043854D01*
X133923909Y-97057228D01*
X133880030Y-97103629D01*
X133851828Y-97153727D01*
X133837312Y-97212187D01*
X133834211Y-97267346D01*
X133835585Y-97312070D01*
X133840375Y-97345095D01*
X133850166Y-97374173D01*
X133860440Y-97395551D01*
X133893762Y-97445462D01*
X133936634Y-97488485D01*
X133984764Y-97521492D01*
X134033856Y-97541357D01*
X134066729Y-97545769D01*
X134080567Y-97551815D01*
X134079096Y-97569898D01*
X134062336Y-97599940D01*
X134050942Y-97615836D01*
X134011016Y-97655157D01*
X133955435Y-97689642D01*
X133887853Y-97717431D01*
X133814038Y-97736281D01*
X133774573Y-97743722D01*
X133740531Y-97750345D01*
X133718139Y-97754935D01*
X133715440Y-97755541D01*
X133694995Y-97760293D01*
X132764947Y-97760293D01*
X132764697Y-97749913D01*
X132763085Y-97672769D01*
X132761089Y-97581185D01*
X132759070Y-97506889D01*
X132756886Y-97447627D01*
X132754394Y-97401148D01*
X132751452Y-97365201D01*
X132747919Y-97337534D01*
X132743653Y-97315895D01*
X132739655Y-97301538D01*
X132715868Y-97237225D01*
X132688915Y-97187002D01*
X132655782Y-97145419D01*
X132650029Y-97139526D01*
X132621493Y-97116078D01*
X132584146Y-97092143D01*
X132543789Y-97070750D01*
X132506225Y-97054927D01*
X132477255Y-97047702D01*
X132473788Y-97047546D01*
X132452619Y-97044932D01*
X132449207Y-97038002D01*
X132462607Y-97028092D01*
X132491870Y-97016536D01*
X132496884Y-97014954D01*
X132574539Y-96982119D01*
X132638593Y-96935430D01*
X132689470Y-96874460D01*
X132727594Y-96798783D01*
X132736199Y-96774414D01*
X132742012Y-96755045D01*
X132746737Y-96734874D01*
X132750545Y-96711484D01*
X132753607Y-96682459D01*
X132756096Y-96645384D01*
X132758183Y-96597843D01*
X132760038Y-96537419D01*
X132761833Y-96461696D01*
X132763251Y-96393000D01*
X132764781Y-96320976D01*
X133836781Y-96320976D01*
X133851075Y-96392862D01*
X133881048Y-96455774D01*
X133925656Y-96507909D01*
X133983859Y-96547466D01*
X134025770Y-96564707D01*
X134075115Y-96573962D01*
X134133074Y-96574580D01*
X134190996Y-96567067D01*
X134239653Y-96552185D01*
X134301428Y-96515519D01*
X134350262Y-96466888D01*
X134376394Y-96424635D01*
X134390068Y-96382555D01*
X134397951Y-96329856D01*
X134399828Y-96273675D01*
X134395483Y-96221149D01*
X134384703Y-96179415D01*
X134383828Y-96177366D01*
X134347931Y-96118978D01*
X134298474Y-96072022D01*
X134238658Y-96037885D01*
X134171680Y-96017951D01*
X134100739Y-96013606D01*
X134032517Y-96025199D01*
X133964522Y-96053999D01*
X133909532Y-96096310D01*
X133868946Y-96150565D01*
X133844160Y-96215197D01*
X133839207Y-96241920D01*
X133836781Y-96320976D01*
X132764781Y-96320976D01*
X132765241Y-96299351D01*
X132767319Y-96223114D01*
X132769799Y-96162162D01*
X132772998Y-96114369D01*
X132777231Y-96077609D01*
X132782814Y-96049756D01*
X132790061Y-96028684D01*
X132799290Y-96012266D01*
X132810814Y-95998378D01*
X132823644Y-95986071D01*
X132844164Y-95971199D01*
X132870286Y-95960057D01*
X132904806Y-95952189D01*
X132950519Y-95947138D01*
X133010221Y-95944450D01*
X133083788Y-95943669D01*
X133242538Y-95943615D01*
X133242538Y-95941752D01*
X134991230Y-95941752D01*
X135169519Y-95945333D01*
X135236208Y-95946976D01*
X135286381Y-95949051D01*
X135323059Y-95951856D01*
X135349263Y-95955688D01*
X135368014Y-95960844D01*
X135379465Y-95966007D01*
X135402498Y-95980887D01*
X135421352Y-95999557D01*
X135436425Y-96023964D01*
X135448114Y-96056055D01*
X135456817Y-96097776D01*
X135462931Y-96151076D01*
X135466852Y-96217900D01*
X135468980Y-96300195D01*
X135469709Y-96399910D01*
X135469719Y-96408302D01*
X135470163Y-96501453D01*
X135471537Y-96577770D01*
X135474155Y-96639946D01*
X135478329Y-96690674D01*
X135484369Y-96732649D01*
X135492590Y-96768564D01*
X135503302Y-96801114D01*
X135516818Y-96832991D01*
X135519615Y-96838954D01*
X135559515Y-96901098D01*
X135613795Y-96953052D01*
X135678698Y-96991890D01*
X135743461Y-97013291D01*
X135773140Y-97020671D01*
X135784199Y-97027353D01*
X135776504Y-97034875D01*
X135749917Y-97044776D01*
X135740423Y-97047766D01*
X135659599Y-97080983D01*
X135593822Y-97126237D01*
X135542243Y-97184204D01*
X135518102Y-97224692D01*
X135504495Y-97254648D01*
X135493616Y-97287128D01*
X135485184Y-97324630D01*
X135478917Y-97369656D01*
X135474534Y-97424707D01*
X135471753Y-97492283D01*
X135470294Y-97574884D01*
X135469889Y-97653230D01*
X135469201Y-97754894D01*
X135467195Y-97838973D01*
X135463482Y-97907399D01*
X135457669Y-97962102D01*
X135449365Y-98005015D01*
X135438180Y-98038068D01*
X135423720Y-98063194D01*
X135405596Y-98082324D01*
X135383416Y-98097389D01*
X135379465Y-98099551D01*
X135364144Y-98105921D01*
X135343303Y-98110770D01*
X135313955Y-98114394D01*
X135273110Y-98117089D01*
X135217781Y-98119152D01*
X135169519Y-98120363D01*
X134991230Y-98124296D01*
X134991230Y-98425000D01*
X135149980Y-98424748D01*
X135213506Y-98424022D01*
X135279373Y-98422201D01*
X135341055Y-98419533D01*
X135392028Y-98416266D01*
X135406227Y-98415017D01*
X135496469Y-98402543D01*
X135571080Y-98383576D01*
X135633246Y-98356889D01*
X135686151Y-98321255D01*
X135713004Y-98296850D01*
X135737792Y-98270802D01*
X135758605Y-98245153D01*
X135775822Y-98217933D01*
X135789827Y-98187174D01*
X135801000Y-98150908D01*
X135809723Y-98107166D01*
X135816376Y-98053979D01*
X135821342Y-97989379D01*
X135825002Y-97911397D01*
X135827738Y-97818064D01*
X135829930Y-97707412D01*
X135830189Y-97692008D01*
X135836269Y-97325363D01*
X135860956Y-97276816D01*
X135882671Y-97241615D01*
X135908775Y-97216186D01*
X135942556Y-97199154D01*
X135987305Y-97189148D01*
X136046309Y-97184794D01*
X136082570Y-97184307D01*
X136192846Y-97184307D01*
X136192846Y-96881461D01*
X136082570Y-96881461D01*
X136014961Y-96879440D01*
X135963301Y-96872467D01*
X135924333Y-96859180D01*
X135894801Y-96838218D01*
X135871446Y-96808217D01*
X135860692Y-96788653D01*
X135854447Y-96775853D01*
X135849335Y-96763520D01*
X135845207Y-96749585D01*
X135841911Y-96731976D01*
X135839296Y-96708623D01*
X135837210Y-96677454D01*
X135835504Y-96636398D01*
X135834025Y-96583385D01*
X135832624Y-96516344D01*
X135831148Y-96433203D01*
X135830062Y-96368577D01*
X135828189Y-96264891D01*
X135826193Y-96178581D01*
X135823831Y-96107482D01*
X135820863Y-96049432D01*
X135817048Y-96002268D01*
X135812144Y-95963827D01*
X135805911Y-95931945D01*
X135798107Y-95904460D01*
X135788492Y-95879207D01*
X135776823Y-95854026D01*
X135771531Y-95843497D01*
X135738481Y-95794856D01*
X135692435Y-95748858D01*
X135639643Y-95711502D01*
X135626751Y-95704533D01*
X135591896Y-95688276D01*
X135556662Y-95675338D01*
X135518110Y-95665273D01*
X135473299Y-95657639D01*
X135419288Y-95651990D01*
X135353138Y-95647883D01*
X135271907Y-95644875D01*
X135223250Y-95643609D01*
X134991230Y-95638172D01*
X134991230Y-95941752D01*
X133242538Y-95941752D01*
X133242538Y-95638054D01*
X133005634Y-95643658D01*
X132914495Y-95646309D01*
X132840045Y-95649790D01*
X132779439Y-95654518D01*
X132729833Y-95660914D01*
X132688382Y-95669395D01*
X132652241Y-95680380D01*
X132618565Y-95694288D01*
X132600024Y-95703355D01*
X132541073Y-95744068D01*
X132490497Y-95800290D01*
X132450193Y-95869095D01*
X132422054Y-95947561D01*
X132412658Y-95992461D01*
X132410116Y-96018176D01*
X132407794Y-96060412D01*
X132405774Y-96116154D01*
X132404141Y-96182386D01*
X132402979Y-96256091D01*
X132402372Y-96334252D01*
X132402305Y-96363692D01*
X132401919Y-96467453D01*
X132400678Y-96553686D01*
X132398211Y-96624394D01*
X132394144Y-96681581D01*
X132388105Y-96727250D01*
X132379723Y-96763407D01*
X132368624Y-96792053D01*
X132354436Y-96815194D01*
X132336788Y-96834834D01*
X132315306Y-96852975D01*
X132310738Y-96856434D01*
X132296621Y-96865154D01*
X132279064Y-96871218D01*
X132254104Y-96875249D01*
X132217775Y-96877873D01*
X132166116Y-96879714D01*
X132162361Y-96879816D01*
X132040923Y-96883055D01*
X131611078Y-96883055D01*
X131611079Y-96840322D01*
X131611097Y-96671175D01*
X131611145Y-96519551D01*
X131611239Y-96384442D01*
X131611393Y-96264841D01*
X131611622Y-96159740D01*
X131611942Y-96068131D01*
X131612367Y-95989007D01*
X131612912Y-95921359D01*
X131613593Y-95864180D01*
X131614424Y-95816462D01*
X131615420Y-95777198D01*
X131616597Y-95745380D01*
X131617969Y-95720000D01*
X131619551Y-95700051D01*
X131621358Y-95684524D01*
X131623406Y-95672412D01*
X131625709Y-95662708D01*
X131628283Y-95654403D01*
X131631142Y-95646489D01*
X131631659Y-95645105D01*
X131668258Y-95574236D01*
X131720057Y-95512944D01*
X131784016Y-95463793D01*
X131857101Y-95429344D01*
X131901670Y-95417270D01*
X131917753Y-95416002D01*
X131952285Y-95414807D01*
X132004176Y-95413684D01*
X132072336Y-95412634D01*
X132155675Y-95411657D01*
X132253105Y-95410753D01*
X132363535Y-95409921D01*
X132485875Y-95409162D01*
X132619037Y-95408476D01*
X132761930Y-95407863D01*
X132913464Y-95407322D01*
X133072550Y-95406854D01*
X133238099Y-95406459D01*
X133409020Y-95406137D01*
X133584224Y-95405887D01*
X133762621Y-95405711D01*
X133943122Y-95405607D01*
X134124636Y-95405575D01*
X134306075Y-95405617D01*
G36*
X135897327Y-98808322D02*
G01*
X136256346Y-98810884D01*
X136259046Y-98954462D01*
X136261747Y-99098039D01*
X136168681Y-99172893D01*
X136075615Y-99247748D01*
X136075615Y-99373127D01*
X136075538Y-99427573D01*
X136073573Y-99467598D01*
X136067121Y-99495418D01*
X136053583Y-99513246D01*
X136030357Y-99523299D01*
X135994844Y-99527789D01*
X135944445Y-99528931D01*
X135892710Y-99528923D01*
X135837111Y-99528693D01*
X135797625Y-99527723D01*
X135770829Y-99525593D01*
X135753303Y-99521882D01*
X135741622Y-99516170D01*
X135733692Y-99509384D01*
X135725519Y-99499327D01*
X135719959Y-99486004D01*
X135716504Y-99465736D01*
X135714644Y-99434847D01*
X135713871Y-99389659D01*
X135713747Y-99365288D01*
X135713341Y-99240730D01*
X135625846Y-99172346D01*
X135538351Y-99103961D01*
X135538307Y-98805759D01*
X135897327Y-98808322D01*
G37*
X135897327Y-98808322D02*
X136256346Y-98810884D01*
X136259046Y-98954462D01*
X136261747Y-99098039D01*
X136168681Y-99172893D01*
X136075615Y-99247748D01*
X136075615Y-99373127D01*
X136075538Y-99427573D01*
X136073573Y-99467598D01*
X136067121Y-99495418D01*
X136053583Y-99513246D01*
X136030357Y-99523299D01*
X135994844Y-99527789D01*
X135944445Y-99528931D01*
X135892710Y-99528923D01*
X135837111Y-99528693D01*
X135797625Y-99527723D01*
X135770829Y-99525593D01*
X135753303Y-99521882D01*
X135741622Y-99516170D01*
X135733692Y-99509384D01*
X135725519Y-99499327D01*
X135719959Y-99486004D01*
X135716504Y-99465736D01*
X135714644Y-99434847D01*
X135713871Y-99389659D01*
X135713747Y-99365288D01*
X135713341Y-99240730D01*
X135625846Y-99172346D01*
X135538351Y-99103961D01*
X135538307Y-98805759D01*
X135897327Y-98808322D01*
G36*
X135361649Y-99103961D02*
G01*
X135274154Y-99172346D01*
X135186659Y-99240730D01*
X135186637Y-99365288D01*
X135186523Y-99422307D01*
X135184474Y-99464271D01*
X135177898Y-99493484D01*
X135164203Y-99512251D01*
X135140795Y-99522876D01*
X135105082Y-99527663D01*
X135054470Y-99528916D01*
X135002514Y-99528923D01*
X134946012Y-99528740D01*
X134905724Y-99527916D01*
X134878325Y-99526031D01*
X134860491Y-99522670D01*
X134848899Y-99517414D01*
X134840223Y-99509848D01*
X134838879Y-99508390D01*
X134830918Y-99497013D01*
X134825320Y-99481026D01*
X134821536Y-99456785D01*
X134819022Y-99420645D01*
X134817228Y-99368961D01*
X134817074Y-99363057D01*
X134813879Y-99238256D01*
X134726450Y-99168251D01*
X134639020Y-99098246D01*
X134641722Y-98954565D01*
X134644423Y-98810884D01*
X135003442Y-98808322D01*
X135362461Y-98805759D01*
X135361649Y-99103961D01*
G37*
X135361649Y-99103961D02*
X135274154Y-99172346D01*
X135186659Y-99240730D01*
X135186637Y-99365288D01*
X135186523Y-99422307D01*
X135184474Y-99464271D01*
X135177898Y-99493484D01*
X135164203Y-99512251D01*
X135140795Y-99522876D01*
X135105082Y-99527663D01*
X135054470Y-99528916D01*
X135002514Y-99528923D01*
X134946012Y-99528740D01*
X134905724Y-99527916D01*
X134878325Y-99526031D01*
X134860491Y-99522670D01*
X134848899Y-99517414D01*
X134840223Y-99509848D01*
X134838879Y-99508390D01*
X134830918Y-99497013D01*
X134825320Y-99481026D01*
X134821536Y-99456785D01*
X134819022Y-99420645D01*
X134817228Y-99368961D01*
X134817074Y-99363057D01*
X134813879Y-99238256D01*
X134726450Y-99168251D01*
X134639020Y-99098246D01*
X134641722Y-98954565D01*
X134644423Y-98810884D01*
X135003442Y-98808322D01*
X135362461Y-98805759D01*
X135361649Y-99103961D01*
G36*
X134109557Y-98808322D02*
G01*
X134468577Y-98810884D01*
X134471273Y-98953710D01*
X134473969Y-99096535D01*
X134380907Y-99171386D01*
X134287846Y-99246237D01*
X134287846Y-99372372D01*
X134287760Y-99427362D01*
X134285759Y-99467701D01*
X134279227Y-99495656D01*
X134265549Y-99513491D01*
X134242109Y-99523472D01*
X134206291Y-99527866D01*
X134155480Y-99528937D01*
X134107115Y-99528923D01*
X134048600Y-99528456D01*
X134006421Y-99526855D01*
X133977395Y-99523813D01*
X133958338Y-99519027D01*
X133948096Y-99513715D01*
X133939181Y-99506344D01*
X133933108Y-99496609D01*
X133929335Y-99480972D01*
X133927319Y-99455898D01*
X133926517Y-99417852D01*
X133926384Y-99372269D01*
X133926384Y-99246031D01*
X133750538Y-99105231D01*
X133750538Y-98805759D01*
X134109557Y-98808322D01*
G37*
X134109557Y-98808322D02*
X134468577Y-98810884D01*
X134471273Y-98953710D01*
X134473969Y-99096535D01*
X134380907Y-99171386D01*
X134287846Y-99246237D01*
X134287846Y-99372372D01*
X134287760Y-99427362D01*
X134285759Y-99467701D01*
X134279227Y-99495656D01*
X134265549Y-99513491D01*
X134242109Y-99523472D01*
X134206291Y-99527866D01*
X134155480Y-99528937D01*
X134107115Y-99528923D01*
X134048600Y-99528456D01*
X134006421Y-99526855D01*
X133977395Y-99523813D01*
X133958338Y-99519027D01*
X133948096Y-99513715D01*
X133939181Y-99506344D01*
X133933108Y-99496609D01*
X133929335Y-99480972D01*
X133927319Y-99455898D01*
X133926517Y-99417852D01*
X133926384Y-99372269D01*
X133926384Y-99246031D01*
X133750538Y-99105231D01*
X133750538Y-98805759D01*
X134109557Y-98808322D01*
G36*
X133574286Y-98954980D02*
G01*
X133573879Y-99103961D01*
X133486384Y-99172346D01*
X133398890Y-99240730D01*
X133398868Y-99359086D01*
X133398511Y-99410335D01*
X133397086Y-99446071D01*
X133394028Y-99470310D01*
X133388771Y-99487071D01*
X133380751Y-99500371D01*
X133378598Y-99503182D01*
X133358351Y-99528923D01*
X133068110Y-99528923D01*
X133047862Y-99503182D01*
X133039170Y-99490101D01*
X133033364Y-99474429D01*
X133029878Y-99452147D01*
X133028148Y-99419238D01*
X133027608Y-99371683D01*
X133027593Y-99359086D01*
X133027571Y-99240730D01*
X132940076Y-99172346D01*
X132852581Y-99103961D01*
X132852175Y-98954980D01*
X132851769Y-98806000D01*
X133574692Y-98806000D01*
X133574286Y-98954980D01*
G37*
X133574286Y-98954980D02*
X133573879Y-99103961D01*
X133486384Y-99172346D01*
X133398890Y-99240730D01*
X133398868Y-99359086D01*
X133398511Y-99410335D01*
X133397086Y-99446071D01*
X133394028Y-99470310D01*
X133388771Y-99487071D01*
X133380751Y-99500371D01*
X133378598Y-99503182D01*
X133358351Y-99528923D01*
X133068110Y-99528923D01*
X133047862Y-99503182D01*
X133039170Y-99490101D01*
X133033364Y-99474429D01*
X133029878Y-99452147D01*
X133028148Y-99419238D01*
X133027608Y-99371683D01*
X133027593Y-99359086D01*
X133027571Y-99240730D01*
X132940076Y-99172346D01*
X132852581Y-99103961D01*
X132852175Y-98954980D01*
X132851769Y-98806000D01*
X133574692Y-98806000D01*
X133574286Y-98954980D01*
G36*
X132675879Y-99103961D02*
G01*
X132588384Y-99172346D01*
X132500889Y-99240730D01*
X132500483Y-99365288D01*
X132500153Y-99423071D01*
X132497833Y-99465359D01*
X132490883Y-99494569D01*
X132476661Y-99513115D01*
X132452524Y-99523413D01*
X132415832Y-99527879D01*
X132363941Y-99528929D01*
X132321519Y-99528923D01*
X132262590Y-99528471D01*
X132220022Y-99526916D01*
X132190656Y-99523960D01*
X132171329Y-99519306D01*
X132160327Y-99513715D01*
X132151409Y-99506341D01*
X132145335Y-99496600D01*
X132141562Y-99480955D01*
X132139547Y-99455868D01*
X132138747Y-99417802D01*
X132138615Y-99372372D01*
X132138615Y-99246237D01*
X132045553Y-99171386D01*
X131952492Y-99096535D01*
X131955188Y-98953710D01*
X131957884Y-98810884D01*
X132316903Y-98808322D01*
X132675923Y-98805759D01*
X132675879Y-99103961D01*
G37*
X132675879Y-99103961D02*
X132588384Y-99172346D01*
X132500889Y-99240730D01*
X132500483Y-99365288D01*
X132500153Y-99423071D01*
X132497833Y-99465359D01*
X132490883Y-99494569D01*
X132476661Y-99513115D01*
X132452524Y-99523413D01*
X132415832Y-99527879D01*
X132363941Y-99528929D01*
X132321519Y-99528923D01*
X132262590Y-99528471D01*
X132220022Y-99526916D01*
X132190656Y-99523960D01*
X132171329Y-99519306D01*
X132160327Y-99513715D01*
X132151409Y-99506341D01*
X132145335Y-99496600D01*
X132141562Y-99480955D01*
X132139547Y-99455868D01*
X132138747Y-99417802D01*
X132138615Y-99372372D01*
X132138615Y-99246237D01*
X132045553Y-99171386D01*
X131952492Y-99096535D01*
X131955188Y-98953710D01*
X131957884Y-98810884D01*
X132316903Y-98808322D01*
X132675923Y-98805759D01*
X132675879Y-99103961D01*
D13*
X124908000Y-68012000D02*
X126238000Y-68012000D01*
X124908000Y-69342000D02*
X124908000Y-68012000D01*
X124908000Y-70612000D02*
X127568000Y-70612000D01*
X127568000Y-70612000D02*
X127568000Y-70672000D01*
X124908000Y-70612000D02*
X124908000Y-70672000D01*
X124908000Y-70672000D02*
X127568000Y-70672000D01*
X147148000Y-37538000D02*
X146748000Y-37538000D01*
X147148000Y-38178000D02*
X147148000Y-37538000D01*
X141128000Y-44518000D02*
X141128000Y-37778000D01*
X146908000Y-44518000D02*
X146908000Y-37778000D01*
X146908000Y-37778000D02*
X141128000Y-37778000D01*
X146908000Y-44518000D02*
X141128000Y-44518000D01*
X146908000Y-43398000D02*
X141128000Y-43398000D01*
X146908000Y-38298000D02*
X141128000Y-38298000D01*
X124908000Y-65472000D02*
X126238000Y-65472000D01*
X124908000Y-66802000D02*
X124908000Y-65472000D01*
X124908000Y-68072000D02*
X127568000Y-68072000D01*
X127568000Y-68072000D02*
X127568000Y-68132000D01*
X124908000Y-68072000D02*
X124908000Y-68132000D01*
X124908000Y-68132000D02*
X127568000Y-68132000D01*
X124908000Y-62932000D02*
X126238000Y-62932000D01*
X124908000Y-64262000D02*
X124908000Y-62932000D01*
X124908000Y-65532000D02*
X127568000Y-65532000D01*
X127568000Y-65532000D02*
X127568000Y-65592000D01*
X124908000Y-65532000D02*
X124908000Y-65592000D01*
X124908000Y-65592000D02*
X127568000Y-65592000D01*
X124908000Y-47692000D02*
X126238000Y-47692000D01*
X124908000Y-49022000D02*
X124908000Y-47692000D01*
X124908000Y-50292000D02*
X127568000Y-50292000D01*
X127568000Y-50292000D02*
X127568000Y-50352000D01*
X124908000Y-50292000D02*
X124908000Y-50352000D01*
X124908000Y-50352000D02*
X127568000Y-50352000D01*
X124908000Y-50232000D02*
X126238000Y-50232000D01*
X124908000Y-51562000D02*
X124908000Y-50232000D01*
X124908000Y-52832000D02*
X127568000Y-52832000D01*
X127568000Y-52832000D02*
X127568000Y-52892000D01*
X124908000Y-52832000D02*
X124908000Y-52892000D01*
X124908000Y-52892000D02*
X127568000Y-52892000D01*
X150040078Y-45264000D02*
X149522922Y-45264000D01*
X150040078Y-46684000D02*
X149522922Y-46684000D01*
X155022500Y-45014000D02*
X152337500Y-45014000D01*
X155022500Y-46934000D02*
X155022500Y-45014000D01*
X152337500Y-46934000D02*
X155022500Y-46934000D01*
X154238000Y-39818000D02*
X154238000Y-41148000D01*
X152908000Y-39818000D02*
X154238000Y-39818000D01*
X151638000Y-39818000D02*
X151638000Y-42478000D01*
X151638000Y-42478000D02*
X149038000Y-42478000D01*
X151638000Y-39818000D02*
X149038000Y-39818000D01*
X149038000Y-39818000D02*
X149038000Y-42478000D01*
X139782000Y-37538000D02*
X139382000Y-37538000D01*
X139782000Y-38178000D02*
X139782000Y-37538000D01*
X133762000Y-44518000D02*
X133762000Y-37778000D01*
X139542000Y-44518000D02*
X139542000Y-37778000D01*
X139542000Y-37778000D02*
X133762000Y-37778000D01*
X139542000Y-44518000D02*
X133762000Y-44518000D01*
X139542000Y-43398000D02*
X133762000Y-43398000D01*
X139542000Y-38298000D02*
X133762000Y-38298000D01*
X162620000Y-89094000D02*
X162620000Y-90424000D01*
X161290000Y-89094000D02*
X162620000Y-89094000D01*
X160020000Y-89094000D02*
X160020000Y-91754000D01*
X160020000Y-91754000D02*
X154880000Y-91754000D01*
X160020000Y-89094000D02*
X154880000Y-89094000D01*
X154880000Y-89094000D02*
X154880000Y-91754000D01*
X162620000Y-84776000D02*
X162620000Y-86106000D01*
X161290000Y-84776000D02*
X162620000Y-84776000D01*
X160020000Y-84776000D02*
X160020000Y-87436000D01*
X160020000Y-87436000D02*
X154880000Y-87436000D01*
X160020000Y-84776000D02*
X154880000Y-84776000D01*
X154880000Y-84776000D02*
X154880000Y-87436000D01*
X162620000Y-80458000D02*
X162620000Y-81788000D01*
X161290000Y-80458000D02*
X162620000Y-80458000D01*
X160020000Y-80458000D02*
X160020000Y-83118000D01*
X160020000Y-83118000D02*
X154880000Y-83118000D01*
X160020000Y-80458000D02*
X154880000Y-80458000D01*
X154880000Y-80458000D02*
X154880000Y-83118000D01*
X125730000Y-94234000D02*
X125730000Y-79502000D01*
X136906000Y-94234000D02*
X125730000Y-94234000D01*
X136906000Y-79502000D02*
X136906000Y-94234000D01*
X125730000Y-79502000D02*
X136906000Y-79502000D01*
X151148051Y-89408000D02*
G75*
G03X151148051Y-89408000I-1796051J0D01*
G01*
X143002000Y-86868000D02*
X144272000Y-88138000D01*
X141732000Y-88138000D02*
X143002000Y-86868000D01*
X143002000Y-86868000D02*
X141732000Y-88138000D01*
X143002000Y-91948000D02*
X143002000Y-86868000D01*
X149352000Y-95758000D02*
X148082000Y-97028000D01*
X149352000Y-95758000D02*
X148082000Y-94488000D01*
X143002000Y-95758000D02*
X149352000Y-95758000D01*
X137922000Y-99568000D02*
X137922000Y-79248000D01*
X153162000Y-99568000D02*
X137922000Y-99568000D01*
X153162000Y-79248000D02*
X153162000Y-99568000D01*
X137922000Y-79248000D02*
X153162000Y-79248000D01*
X163274000Y-49324000D02*
X146274000Y-49324000D01*
X163274000Y-73324000D02*
X163274000Y-49324000D01*
X146274000Y-73324000D02*
X163274000Y-73324000D01*
X146274000Y-49324000D02*
X146274000Y-73324000D01*
X155274000Y-68324000D02*
X153274000Y-66324000D01*
X155274000Y-68324000D02*
X157274000Y-66324000D01*
X155274000Y-55324000D02*
X155274000Y-68324000D01*
D14*
X128460571Y-44710333D02*
X128841523Y-44710333D01*
X128384380Y-44938904D02*
X128651047Y-44138904D01*
X128917714Y-44938904D01*
X129603428Y-44938904D02*
X129146285Y-44938904D01*
X129374857Y-44938904D02*
X129374857Y-44138904D01*
X129298666Y-44253190D01*
X129222476Y-44329380D01*
X129146285Y-44367476D01*
D11*
X125904666Y-66464380D02*
X125904666Y-67178666D01*
X125857047Y-67321523D01*
X125761809Y-67416761D01*
X125618952Y-67464380D01*
X125523714Y-67464380D01*
X126285619Y-66464380D02*
X126952285Y-66464380D01*
X126523714Y-67464380D01*
X144478476Y-38568380D02*
X144478476Y-39282666D01*
X144430857Y-39425523D01*
X144335619Y-39520761D01*
X144192761Y-39568380D01*
X144097523Y-39568380D01*
X145478476Y-39568380D02*
X144907047Y-39568380D01*
X145192761Y-39568380D02*
X145192761Y-38568380D01*
X145097523Y-38711238D01*
X145002285Y-38806476D01*
X144907047Y-38854095D01*
X146430857Y-39568380D02*
X145859428Y-39568380D01*
X146145142Y-39568380D02*
X146145142Y-38568380D01*
X146049904Y-38711238D01*
X145954666Y-38806476D01*
X145859428Y-38854095D01*
X125904666Y-68540380D02*
X125904666Y-69254666D01*
X125857047Y-69397523D01*
X125761809Y-69492761D01*
X125618952Y-69540380D01*
X125523714Y-69540380D01*
X126809428Y-68540380D02*
X126618952Y-68540380D01*
X126523714Y-68588000D01*
X126476095Y-68635619D01*
X126380857Y-68778476D01*
X126333238Y-68968952D01*
X126333238Y-69349904D01*
X126380857Y-69445142D01*
X126428476Y-69492761D01*
X126523714Y-69540380D01*
X126714190Y-69540380D01*
X126809428Y-69492761D01*
X126857047Y-69445142D01*
X126904666Y-69349904D01*
X126904666Y-69111809D01*
X126857047Y-69016571D01*
X126809428Y-68968952D01*
X126714190Y-68921333D01*
X126523714Y-68921333D01*
X126428476Y-68968952D01*
X126380857Y-69016571D01*
X126333238Y-69111809D01*
X125904666Y-61384380D02*
X125904666Y-62098666D01*
X125857047Y-62241523D01*
X125761809Y-62336761D01*
X125618952Y-62384380D01*
X125523714Y-62384380D01*
X126857047Y-61384380D02*
X126380857Y-61384380D01*
X126333238Y-61860571D01*
X126380857Y-61812952D01*
X126476095Y-61765333D01*
X126714190Y-61765333D01*
X126809428Y-61812952D01*
X126857047Y-61860571D01*
X126904666Y-61955809D01*
X126904666Y-62193904D01*
X126857047Y-62289142D01*
X126809428Y-62336761D01*
X126714190Y-62384380D01*
X126476095Y-62384380D01*
X126380857Y-62336761D01*
X126333238Y-62289142D01*
X125904666Y-46144380D02*
X125904666Y-46858666D01*
X125857047Y-47001523D01*
X125761809Y-47096761D01*
X125618952Y-47144380D01*
X125523714Y-47144380D01*
X126809428Y-46477714D02*
X126809428Y-47144380D01*
X126571333Y-46096761D02*
X126333238Y-46811047D01*
X126952285Y-46811047D01*
X125904666Y-53300380D02*
X125904666Y-54014666D01*
X125857047Y-54157523D01*
X125761809Y-54252761D01*
X125618952Y-54300380D01*
X125523714Y-54300380D01*
X126285619Y-53300380D02*
X126904666Y-53300380D01*
X126571333Y-53681333D01*
X126714190Y-53681333D01*
X126809428Y-53728952D01*
X126857047Y-53776571D01*
X126904666Y-53871809D01*
X126904666Y-54109904D01*
X126857047Y-54205142D01*
X126809428Y-54252761D01*
X126714190Y-54300380D01*
X126428476Y-54300380D01*
X126333238Y-54252761D01*
X126285619Y-54205142D01*
X149614833Y-48076380D02*
X149281500Y-47600190D01*
X149043404Y-48076380D02*
X149043404Y-47076380D01*
X149424357Y-47076380D01*
X149519595Y-47124000D01*
X149567214Y-47171619D01*
X149614833Y-47266857D01*
X149614833Y-47409714D01*
X149567214Y-47504952D01*
X149519595Y-47552571D01*
X149424357Y-47600190D01*
X149043404Y-47600190D01*
X150567214Y-48076380D02*
X149995785Y-48076380D01*
X150281500Y-48076380D02*
X150281500Y-47076380D01*
X150186261Y-47219238D01*
X150091023Y-47314476D01*
X149995785Y-47362095D01*
X152599404Y-48076380D02*
X152599404Y-47076380D01*
X152837500Y-47076380D01*
X152980357Y-47124000D01*
X153075595Y-47219238D01*
X153123214Y-47314476D01*
X153170833Y-47504952D01*
X153170833Y-47647809D01*
X153123214Y-47838285D01*
X153075595Y-47933523D01*
X152980357Y-48028761D01*
X152837500Y-48076380D01*
X152599404Y-48076380D01*
X154123214Y-48076380D02*
X153551785Y-48076380D01*
X153837500Y-48076380D02*
X153837500Y-47076380D01*
X153742261Y-47219238D01*
X153647023Y-47314476D01*
X153551785Y-47362095D01*
X155368666Y-40346380D02*
X155368666Y-41060666D01*
X155321047Y-41203523D01*
X155225809Y-41298761D01*
X155082952Y-41346380D01*
X154987714Y-41346380D01*
X156368666Y-41346380D02*
X155797238Y-41346380D01*
X156082952Y-41346380D02*
X156082952Y-40346380D01*
X155987714Y-40489238D01*
X155892476Y-40584476D01*
X155797238Y-40632095D01*
X137112476Y-38568380D02*
X137112476Y-39282666D01*
X137064857Y-39425523D01*
X136969619Y-39520761D01*
X136826761Y-39568380D01*
X136731523Y-39568380D01*
X138112476Y-39568380D02*
X137541047Y-39568380D01*
X137826761Y-39568380D02*
X137826761Y-38568380D01*
X137731523Y-38711238D01*
X137636285Y-38806476D01*
X137541047Y-38854095D01*
X138731523Y-38568380D02*
X138826761Y-38568380D01*
X138922000Y-38616000D01*
X138969619Y-38663619D01*
X139017238Y-38758857D01*
X139064857Y-38949333D01*
X139064857Y-39187428D01*
X139017238Y-39377904D01*
X138969619Y-39473142D01*
X138922000Y-39520761D01*
X138826761Y-39568380D01*
X138731523Y-39568380D01*
X138636285Y-39520761D01*
X138588666Y-39473142D01*
X138541047Y-39377904D01*
X138493428Y-39187428D01*
X138493428Y-38949333D01*
X138541047Y-38758857D01*
X138588666Y-38663619D01*
X138636285Y-38616000D01*
X138731523Y-38568380D01*
X154098666Y-87844380D02*
X154098666Y-88558666D01*
X154051047Y-88701523D01*
X153955809Y-88796761D01*
X153812952Y-88844380D01*
X153717714Y-88844380D01*
X154622476Y-88844380D02*
X154812952Y-88844380D01*
X154908190Y-88796761D01*
X154955809Y-88749142D01*
X155051047Y-88606285D01*
X155098666Y-88415809D01*
X155098666Y-88034857D01*
X155051047Y-87939619D01*
X155003428Y-87892000D01*
X154908190Y-87844380D01*
X154717714Y-87844380D01*
X154622476Y-87892000D01*
X154574857Y-87939619D01*
X154527238Y-88034857D01*
X154527238Y-88272952D01*
X154574857Y-88368190D01*
X154622476Y-88415809D01*
X154717714Y-88463428D01*
X154908190Y-88463428D01*
X155003428Y-88415809D01*
X155051047Y-88368190D01*
X155098666Y-88272952D01*
X154098666Y-83526380D02*
X154098666Y-84240666D01*
X154051047Y-84383523D01*
X153955809Y-84478761D01*
X153812952Y-84526380D01*
X153717714Y-84526380D01*
X154717714Y-83954952D02*
X154622476Y-83907333D01*
X154574857Y-83859714D01*
X154527238Y-83764476D01*
X154527238Y-83716857D01*
X154574857Y-83621619D01*
X154622476Y-83574000D01*
X154717714Y-83526380D01*
X154908190Y-83526380D01*
X155003428Y-83574000D01*
X155051047Y-83621619D01*
X155098666Y-83716857D01*
X155098666Y-83764476D01*
X155051047Y-83859714D01*
X155003428Y-83907333D01*
X154908190Y-83954952D01*
X154717714Y-83954952D01*
X154622476Y-84002571D01*
X154574857Y-84050190D01*
X154527238Y-84145428D01*
X154527238Y-84335904D01*
X154574857Y-84431142D01*
X154622476Y-84478761D01*
X154717714Y-84526380D01*
X154908190Y-84526380D01*
X155003428Y-84478761D01*
X155051047Y-84431142D01*
X155098666Y-84335904D01*
X155098666Y-84145428D01*
X155051047Y-84050190D01*
X155003428Y-84002571D01*
X154908190Y-83954952D01*
X154098666Y-78954380D02*
X154098666Y-79668666D01*
X154051047Y-79811523D01*
X153955809Y-79906761D01*
X153812952Y-79954380D01*
X153717714Y-79954380D01*
X154527238Y-79049619D02*
X154574857Y-79002000D01*
X154670095Y-78954380D01*
X154908190Y-78954380D01*
X155003428Y-79002000D01*
X155051047Y-79049619D01*
X155098666Y-79144857D01*
X155098666Y-79240095D01*
X155051047Y-79382952D01*
X154479619Y-79954380D01*
X155098666Y-79954380D01*
X131365714Y-93384666D02*
X131841904Y-93384666D01*
X131270476Y-93670380D02*
X131603809Y-92670380D01*
X131937142Y-93670380D01*
X132746666Y-92670380D02*
X132270476Y-92670380D01*
X132222857Y-93146571D01*
X132270476Y-93098952D01*
X132365714Y-93051333D01*
X132603809Y-93051333D01*
X132699047Y-93098952D01*
X132746666Y-93146571D01*
X132794285Y-93241809D01*
X132794285Y-93479904D01*
X132746666Y-93575142D01*
X132699047Y-93622761D01*
X132603809Y-93670380D01*
X132365714Y-93670380D01*
X132270476Y-93622761D01*
X132222857Y-93575142D01*
X145589714Y-80430666D02*
X146065904Y-80430666D01*
X145494476Y-80716380D02*
X145827809Y-79716380D01*
X146161142Y-80716380D01*
X146399238Y-79716380D02*
X147018285Y-79716380D01*
X146684952Y-80097333D01*
X146827809Y-80097333D01*
X146923047Y-80144952D01*
X146970666Y-80192571D01*
X147018285Y-80287809D01*
X147018285Y-80525904D01*
X146970666Y-80621142D01*
X146923047Y-80668761D01*
X146827809Y-80716380D01*
X146542095Y-80716380D01*
X146446857Y-80668761D01*
X146399238Y-80621142D01*
X149018666Y-88860380D02*
X149685333Y-88860380D01*
X149018666Y-89860380D01*
X149685333Y-89860380D01*
X144272000Y-90654190D02*
X144272000Y-91130380D01*
X143938666Y-90130380D02*
X144272000Y-90654190D01*
X144605333Y-90130380D01*
X146478666Y-96480380D02*
X147145333Y-97480380D01*
X147145333Y-96480380D02*
X146478666Y-97480380D01*
X161337714Y-48172666D02*
X161813904Y-48172666D01*
X161242476Y-48458380D02*
X161575809Y-47458380D01*
X161909142Y-48458380D01*
X162194857Y-47553619D02*
X162242476Y-47506000D01*
X162337714Y-47458380D01*
X162575809Y-47458380D01*
X162671047Y-47506000D01*
X162718666Y-47553619D01*
X162766285Y-47648857D01*
X162766285Y-47744095D01*
X162718666Y-47886952D01*
X162147238Y-48458380D01*
X162766285Y-48458380D01*
M02*
